<svg width="92" height="78" viewBox="0 0 92 78" fill="none" xmlns="http://www.w3.org/2000/svg">
<path d="M19.1964 21.168L9.71069 25.6545L10.8278 35.2134L21.1924 36.953L26.0085 28.438L19.1964 21.168Z" fill="url(#paint0_linear_3963_13599)"/>
<path d="M32.6741 8.93475L33.5897 7.61622C30.4949 6.49915 27.1439 5.9865 23.8476 6.15129C21.9982 6.2429 20.1668 6.53582 18.3723 7.03022L23.1518 9.5206L32.6741 8.93475Z" fill="url(#paint1_linear_3963_13599)"/>
<path d="M37.0324 25.9866L39.8342 18.4786L32.839 11.1172L23.7013 11.6848L20.7346 19.559L27.8031 27.1037L37.0324 25.9866Z" fill="url(#paint2_linear_3963_13599)"/>
<path d="M5.97502 68.0306L6.79901 68.5983C7.09193 67.9025 7.31181 67.1699 7.47661 66.4375L6.35955 66.1811L6.87235 64.0386L7.73302 64.2401C7.73302 64.1485 7.73302 64.057 7.73302 63.9654C7.73302 63.5442 7.69634 63.123 7.65982 62.7018L6.85409 62.8849L6.34129 60.7424L7.22021 60.5409C7.05541 59.9916 6.85394 59.4422 6.61595 58.9294L5.95676 59.3873L4.71156 57.5744L5.48062 57.0433C5.09609 56.494 4.65663 55.9996 4.1805 55.5234C1.9281 57.7392 0.64624 60.7608 0.64624 63.947C0.64624 67.1517 1.9281 70.1731 4.19876 72.3889C4.7665 71.8211 5.29741 71.1986 5.73703 70.5394L4.72983 69.8435L5.97502 68.0306Z" fill="url(#paint3_linear_3963_13599)"/>
<path d="M12.4575 49.9361C13.4098 49.9361 14.3437 50.0277 15.241 50.2107V46.2188C13.9042 47.4274 12.7689 48.6726 11.8533 49.9545C12.0547 49.9361 12.2561 49.9361 12.4575 49.9361Z" fill="url(#paint4_linear_3963_13599)"/>
<path d="M7.86101 49.424L5.73689 43.1063L2.20264 41.4766C3.53943 44.4798 5.46223 47.1716 7.86101 49.424Z" fill="url(#paint5_linear_3963_13599)"/>
<path d="M8.37405 36.2386C8.44725 36.0738 8.55711 35.9457 8.68539 35.8541L7.49513 25.7092L1.50701 22.6328C0.0236737 26.7347 -0.397377 31.1845 0.389942 35.5794C0.573001 36.5866 0.811144 37.5754 1.10407 38.546L6.10325 40.8715L8.37405 36.2386Z" fill="url(#paint6_linear_3963_13599)"/>
<path d="M18.5738 19.0251L21.5587 11.1693L15.5157 8.01953C11.5969 9.63099 8.11756 12.2314 5.46237 15.5642C4.21718 17.1207 3.17331 18.8054 2.33105 20.6L8.53891 23.7863L18.5738 19.0251Z" fill="url(#paint7_linear_3963_13599)"/>
<path d="M10.2785 37.3555L7.8064 42.4096L9.9856 48.8372C11.3956 46.8045 13.3366 44.8268 15.6806 43.0138C17.3837 41.6953 19.2516 40.505 21.2476 39.4796L21.0645 39.1683L10.2785 37.3555Z" fill="url(#paint8_linear_3963_13599)"/>
<path d="M71.1848 31.0596C76.2756 25.1448 83.4722 21.5007 91.2366 20.8965C89.8998 15.3662 86.8783 10.3853 82.575 6.66797L66.2588 27.1224L71.1848 31.0596Z" fill="url(#paint9_linear_3963_13599)"/>
<path d="M64.5373 25.7471L80.8534 5.29239C76.1471 1.83133 70.4521 -0.0181267 64.6289 0.00013393C65.6361 7.58131 63.6584 15.2725 59.1169 21.4253L64.5373 25.7471Z" fill="url(#paint10_linear_3963_13599)"/>
<path d="M72.9058 32.4123L86.6948 43.4361C90.9981 37.5762 92.7928 30.2513 91.6757 23.0547C84.4057 23.5492 77.6668 26.9185 72.9058 32.4123Z" fill="url(#paint11_linear_3963_13599)"/>
<path d="M21.4122 53.1593C21.4305 53.1593 21.4489 53.1775 21.4671 53.1959C21.7235 53.4157 21.9615 53.6354 22.1997 53.8551C22.749 54.3862 23.2251 54.9355 23.6646 55.4848V40.707C21.4122 41.7508 19.3246 42.9961 17.4385 44.4061V50.8337C18.8669 51.383 20.2219 52.1705 21.4122 53.1593Z" fill="url(#paint12_linear_3963_13599)"/>
<path d="M16.6876 72.5535L15.4424 70.7406L16.3947 70.0997C15.9185 69.1291 15.5523 68.1037 15.3143 67.0415L14.3437 67.2795L13.8309 65.137L15.0029 64.8623C14.9847 64.551 14.9663 64.2581 14.9663 63.9467C14.9663 63.3058 15.0029 62.6831 15.0944 62.0606L13.8308 61.7677L14.3436 59.6252L15.5705 59.9181C15.8269 59.0392 16.1748 58.215 16.596 57.4093L15.4607 56.6402L16.7059 54.8273L17.7863 55.5598C18.1708 55.047 18.592 54.571 19.0314 54.1132C17.0904 52.813 14.8196 52.1172 12.4573 52.1172C10.1133 52.1172 7.84267 52.813 5.90161 54.1132C6.41442 54.6442 6.8904 55.2118 7.3116 55.7978L8.74 54.8273L9.9852 56.6402L8.46534 57.684C8.83161 58.4348 9.14295 59.2222 9.38094 60.028L11.1023 59.625L11.6151 61.7675L9.83881 62.1887C9.912 62.7565 9.94868 63.3607 9.94868 63.9467C9.94868 64.2031 9.94868 64.4778 9.93042 64.7342L11.6151 65.1372L11.1023 67.2797L9.61893 66.9318C9.3992 67.939 9.0696 68.9096 8.6484 69.8434L9.9852 70.759L8.74 72.5719L7.54974 71.7662C7.07361 72.4803 6.52428 73.1579 5.90161 73.7806C7.84267 75.0625 10.1317 75.7766 12.4206 75.7583C14.8012 75.7583 17.072 75.0625 18.9948 73.7623C18.4454 73.213 17.951 72.6088 17.5114 71.9861L16.6876 72.5535Z" fill="url(#paint13_linear_3963_13599)"/>
<path d="M62.4313 0.0898438C55.3262 0.694104 48.7338 4.0453 44.0825 9.41075L57.4137 20.05C61.6255 14.3185 63.4202 7.1401 62.4313 0.0898438Z" fill="url(#paint14_linear_3963_13599)"/>
<path d="M47.324 19.6875C45.7125 16.5744 43.4419 13.8092 40.6767 11.5935C39.1202 10.3666 37.4538 9.32287 35.6775 8.48047L34.6887 9.89046L41.7388 17.3068L47.324 19.6875Z" fill="url(#paint15_linear_3963_13599)"/>
<path d="M67.9982 54.8825C68.1996 54.7177 68.4194 54.5529 68.6391 54.3881C67.925 51.2201 64.9218 47.4295 60.6917 44.3164V67.2615C61.4974 66.6755 62.2482 66.0713 62.9623 65.4303C63.0356 61.3466 64.8486 57.5194 67.9982 54.8825Z" fill="url(#paint16_linear_3963_13599)"/>
<path d="M76.4216 71.6371C74.1692 71.6371 71.9718 70.6848 70.5618 69.1101C69.4265 67.8465 68.8954 66.2717 69.0602 64.6969C69.1334 64.0742 69.2617 63.3051 69.4081 62.4262C69.7194 60.5768 70.1588 57.9764 70.0123 56.1269C69.8108 56.2734 69.6094 56.4382 69.4081 56.603C66.7162 58.8554 65.1597 62.1516 65.1597 65.6676C65.1597 69.1651 66.7162 72.4797 69.4081 74.7321C71.5323 76.5083 74.2242 77.4788 76.9892 77.4788C80.0656 77.4788 82.9773 76.3069 85.1931 74.1643C87.5187 71.9119 88.8005 68.8905 88.8189 65.7041C88.8189 62.4629 87.5371 59.4413 85.2115 57.1889C84.772 56.7677 84.2959 56.3832 83.8015 56.0352C83.5818 57.8481 84.1128 60.5217 84.4791 62.4078C84.6439 63.2867 84.8087 64.0559 84.8819 64.6969C85.0834 66.2534 84.5705 67.8099 83.4535 69.0735C82.0251 70.6667 79.8276 71.6373 77.5387 71.6373H76.4216V71.6371Z" fill="url(#paint17_linear_3963_13599)"/>
<path d="M69.8112 32.7613L64.8852 28.8242L56.5715 39.2438C57.7985 39.8847 59.0254 40.5623 60.179 41.3131C61.7904 42.3568 63.2738 43.4739 64.5739 44.6642C65.4163 40.3608 67.1926 36.3138 69.8112 32.7613Z" fill="url(#paint18_linear_3963_13599)"/>
<path d="M52.2681 71.7846C54.4473 70.9606 56.5349 69.9351 58.4942 68.7265V42.8331C56.5347 41.6244 54.4473 40.5807 52.2681 39.7383V71.7846Z" fill="url(#paint19_linear_3963_13599)"/>
<path d="M23.7015 60.2113C23.1338 58.4717 22.1267 56.8602 20.7715 55.5234C20.3503 55.9264 19.984 56.3474 19.6362 56.8053L20.7715 57.5744L19.5263 59.3873L18.4642 58.6732C18.1713 59.2409 17.9331 59.8269 17.7501 60.4312L19.0686 60.7608L18.5558 62.9033L17.2373 62.592C17.2006 63.0498 17.1641 63.5076 17.1641 63.9654C17.1641 64.0936 17.1823 64.2401 17.1823 64.3684L18.5741 64.0388L19.0869 66.1813L17.4754 66.5658C17.6585 67.3533 17.9333 68.1406 18.2629 68.8732L19.5081 68.0308L20.7533 69.8437L19.3798 70.7775C19.7827 71.3453 20.2404 71.8946 20.7533 72.389C23.0423 70.1366 24.2875 67.1517 24.3058 63.9472C24.3058 62.7385 24.1227 61.5849 23.793 60.4678C23.7564 60.3943 23.7198 60.3029 23.7015 60.2113Z" fill="url(#paint20_linear_3963_13599)"/>
<path d="M72.0453 54.9166C72.5214 57.169 71.9904 60.2272 71.5692 62.7725C71.4226 63.6149 71.2945 64.3473 71.2396 64.915C71.1114 66.1237 71.6974 67.0575 72.1918 67.6251C73.1806 68.7238 74.7921 69.4196 76.4035 69.4196H77.5206C79.1503 69.4196 80.7985 68.7238 81.7874 67.5884C82.2818 67.0207 82.8311 66.1235 82.6847 64.9331C82.6115 64.3654 82.465 63.633 82.3002 62.7906C81.7874 60.2268 81.1831 57.1322 81.7509 54.8431C80.2675 54.1839 78.6196 53.8359 76.9714 53.8359C75.2682 53.8362 73.5834 54.2208 72.0453 54.9166Z" fill="url(#paint21_linear_3963_13599)"/>
<path d="M71.5507 34.1523C68.8589 37.8147 67.1376 42.0815 66.5149 46.5679C68.5109 48.7471 69.9393 51.036 70.5985 53.1785C72.5579 52.1713 74.7737 51.6403 76.9894 51.6403H77.0443C80.2123 50.0288 82.9958 47.8496 85.358 45.1578L71.5507 34.1523Z" fill="url(#paint22_linear_3963_13599)"/>
<path d="M63.1638 27.4702L57.7617 23.1484C56.0953 25.0895 54.2091 26.7743 52.1398 28.2026C52.3046 29.6859 52.3413 31.1875 52.2679 32.6707C52.2679 32.8721 52.2497 33.0552 52.2313 33.2567C52.1397 34.5752 51.9383 35.8753 51.6453 37.1755C52.6158 37.505 53.5863 37.8896 54.5203 38.2925L63.1638 27.4702Z" fill="url(#paint23_linear_3963_13599)"/>
<path d="M41.7569 35.1605L37.2704 28.1836L28.0593 29.3007L23.0417 38.1637L23.2432 38.5116C23.6095 38.3468 23.9758 38.182 24.3603 38.0354C29.1397 36.0577 34.1389 35.0689 39.2114 35.0689C40.0538 35.0689 40.9145 35.1056 41.7569 35.1605Z" fill="url(#paint24_linear_3963_13599)"/>
<path d="M56.0405 21.7732L46.0237 13.7891C47.8366 15.9683 49.3198 18.4404 50.3637 21.0773C50.4003 21.1872 50.4553 21.3153 50.4918 21.4252C51.0411 22.8352 51.4623 24.2818 51.7554 25.7652C53.3119 24.5933 54.7586 23.2565 56.0405 21.7732Z" fill="url(#paint25_linear_3963_13599)"/>
<path d="M49.9608 38.932C46.4265 37.8334 42.8008 37.2656 39.2116 37.2656C34.6519 37.2656 30.1654 38.108 25.862 39.7927V59.7896C26.265 61.1264 26.4847 62.5181 26.4847 63.9463C26.4847 66.4734 25.8255 68.8906 24.5803 71.0149C24.7634 71.1065 24.9649 71.1797 25.203 71.2895C29.7445 73.2306 34.4506 74.2195 39.2118 74.2195C42.8741 74.2195 46.5183 73.6518 50.0708 72.5531V38.9687C50.0525 38.9687 50.0341 38.9504 50.0158 38.9504C49.9976 38.9504 49.979 38.932 49.9608 38.932ZM46.6462 56.8596H44.815V58.8556H42.6176V56.8596H41.1342V58.8556H38.9368V56.8596H36.9773V58.8556H34.7799V56.8596H32.8207V58.8556H30.6232V56.8596H28.9751V54.6621H30.6232V52.5562H32.8207V54.6621H34.7802V52.5562H36.9776V54.6621H38.9371V52.5562H41.1345V54.6621H42.6179V52.5562H44.8153V54.6621H46.6465V56.8596H46.6462Z" fill="url(#paint26_linear_3963_13599)"/>
<path d="M47.2141 35.9293C47.9832 36.1124 48.7706 36.2956 49.5397 36.5153C49.6496 35.966 49.7594 35.4167 49.8326 34.8672L47.2141 35.9293Z" fill="url(#paint27_linear_3963_13599)"/>
<path d="M48.6058 22.6331L41.7205 19.7031L39.0469 26.8631L44.1559 34.7923L50.0707 32.3933C50.1623 30.4156 50.034 28.4014 49.6495 26.4419C49.4115 25.1418 49.0452 23.8599 48.6058 22.6331Z" fill="url(#paint28_linear_3963_13599)"/>
<defs>
<linearGradient id="paint0_linear_3963_13599" x1="17.8596" y1="21.168" x2="21.8776" y2="42.0071" gradientUnits="userSpaceOnUse">
<stop stop-color="#B39100"/>
<stop offset="1" stop-color="#B04C00"/>
</linearGradient>
<linearGradient id="paint1_linear_3963_13599" x1="25.981" y1="6.12109" x2="26.1876" y2="10.7667" gradientUnits="userSpaceOnUse">
<stop stop-color="#B39100"/>
<stop offset="1" stop-color="#B04C00"/>
</linearGradient>
<linearGradient id="paint2_linear_3963_13599" x1="30.2844" y1="11.1172" x2="33.8333" y2="32.4156" gradientUnits="userSpaceOnUse">
<stop stop-color="#B39100"/>
<stop offset="1" stop-color="#B04C00"/>
</linearGradient>
<linearGradient id="paint3_linear_3963_13599" x1="4.18963" y1="55.5234" x2="13.1249" y2="74.3834" gradientUnits="userSpaceOnUse">
<stop stop-color="#B39100"/>
<stop offset="1" stop-color="#B04C00"/>
</linearGradient>
<linearGradient id="paint4_linear_3963_13599" x1="13.5471" y1="46.2187" x2="14.7625" y2="51.3997" gradientUnits="userSpaceOnUse">
<stop stop-color="#B39100"/>
<stop offset="1" stop-color="#B04C00"/>
</linearGradient>
<linearGradient id="paint5_linear_3963_13599" x1="5.03182" y1="41.4766" x2="7.85393" y2="51.5696" gradientUnits="userSpaceOnUse">
<stop stop-color="#B39100"/>
<stop offset="1" stop-color="#B04C00"/>
</linearGradient>
<linearGradient id="paint6_linear_3963_13599" x1="4.3427" y1="22.6328" x2="13.2297" y2="43.8913" gradientUnits="userSpaceOnUse">
<stop stop-color="#B39100"/>
<stop offset="1" stop-color="#B04C00"/>
</linearGradient>
<linearGradient id="paint7_linear_3963_13599" x1="11.9449" y1="8.01953" x2="15.3776" y2="29.048" gradientUnits="userSpaceOnUse">
<stop stop-color="#B39100"/>
<stop offset="1" stop-color="#B04C00"/>
</linearGradient>
<linearGradient id="paint8_linear_3963_13599" x1="14.527" y1="37.3555" x2="17.1253" y2="52.6351" gradientUnits="userSpaceOnUse">
<stop stop-color="#B39100"/>
<stop offset="1" stop-color="#B04C00"/>
</linearGradient>
<linearGradient id="paint9_linear_3963_13599" x1="78.7477" y1="6.66797" x2="85.004" y2="38.8503" gradientUnits="userSpaceOnUse">
<stop stop-color="#B39100"/>
<stop offset="1" stop-color="#B04C00"/>
</linearGradient>
<linearGradient id="paint10_linear_3963_13599" x1="69.9852" y1="-2.01188e-07" x2="77.8605" y2="33.3976" gradientUnits="userSpaceOnUse">
<stop stop-color="#B39100"/>
<stop offset="1" stop-color="#B04C00"/>
</linearGradient>
<linearGradient id="paint11_linear_3963_13599" x1="82.4529" y1="23.0547" x2="88.1269" y2="49.7565" gradientUnits="userSpaceOnUse">
<stop stop-color="#B39100"/>
<stop offset="1" stop-color="#B04C00"/>
</linearGradient>
<linearGradient id="paint12_linear_3963_13599" x1="20.5515" y1="40.707" x2="28.3676" y2="57.2486" gradientUnits="userSpaceOnUse">
<stop stop-color="#B39100"/>
<stop offset="1" stop-color="#B04C00"/>
</linearGradient>
<linearGradient id="paint13_linear_3963_13599" x1="12.4665" y1="52.1172" x2="22.749" y2="80.8029" gradientUnits="userSpaceOnUse">
<stop stop-color="#B39100"/>
<stop offset="1" stop-color="#B04C00"/>
</linearGradient>
<linearGradient id="paint14_linear_3963_13599" x1="53.3897" y1="0.0898436" x2="58.9697" y2="26.2295" gradientUnits="userSpaceOnUse">
<stop stop-color="#B39100"/>
<stop offset="1" stop-color="#B04C00"/>
</linearGradient>
<linearGradient id="paint15_linear_3963_13599" x1="41.0064" y1="8.48047" x2="43.634" y2="23.3619" gradientUnits="userSpaceOnUse">
<stop stop-color="#B39100"/>
<stop offset="1" stop-color="#B04C00"/>
</linearGradient>
<linearGradient id="paint16_linear_3963_13599" x1="64.6654" y1="44.3164" x2="78.239" y2="67.9329" gradientUnits="userSpaceOnUse">
<stop stop-color="#B39100"/>
<stop offset="1" stop-color="#B04C00"/>
</linearGradient>
<linearGradient id="paint17_linear_3963_13599" x1="76.9893" y1="56.0352" x2="82.1201" y2="84.4715" gradientUnits="userSpaceOnUse">
<stop stop-color="#B39100"/>
<stop offset="1" stop-color="#B04C00"/>
</linearGradient>
<linearGradient id="paint18_linear_3963_13599" x1="63.1914" y1="28.8242" x2="68.0798" y2="49.349" gradientUnits="userSpaceOnUse">
<stop stop-color="#B39100"/>
<stop offset="1" stop-color="#B04C00"/>
</linearGradient>
<linearGradient id="paint19_linear_3963_13599" x1="55.3811" y1="39.7383" x2="77.3145" y2="61.144" gradientUnits="userSpaceOnUse">
<stop stop-color="#B39100"/>
<stop offset="1" stop-color="#B04C00"/>
</linearGradient>
<linearGradient id="paint20_linear_3963_13599" x1="20.7349" y1="55.5234" x2="29.6265" y2="74.4367" gradientUnits="userSpaceOnUse">
<stop stop-color="#B39100"/>
<stop offset="1" stop-color="#B04C00"/>
</linearGradient>
<linearGradient id="paint21_linear_3963_13599" x1="76.9652" y1="53.8359" x2="82.3363" y2="73.7236" gradientUnits="userSpaceOnUse">
<stop stop-color="#B39100"/>
<stop offset="1" stop-color="#B04C00"/>
</linearGradient>
<linearGradient id="paint22_linear_3963_13599" x1="75.9365" y1="34.1523" x2="80.9697" y2="59.1925" gradientUnits="userSpaceOnUse">
<stop stop-color="#B39100"/>
<stop offset="1" stop-color="#B04C00"/>
</linearGradient>
<linearGradient id="paint23_linear_3963_13599" x1="57.4045" y1="23.1484" x2="62.484" y2="42.5552" gradientUnits="userSpaceOnUse">
<stop stop-color="#B39100"/>
<stop offset="1" stop-color="#B04C00"/>
</linearGradient>
<linearGradient id="paint24_linear_3963_13599" x1="32.3993" y1="28.1836" x2="33.9344" y2="42.1567" gradientUnits="userSpaceOnUse">
<stop stop-color="#B39100"/>
<stop offset="1" stop-color="#B04C00"/>
</linearGradient>
<linearGradient id="paint25_linear_3963_13599" x1="51.0321" y1="13.7891" x2="54.7259" y2="29.3083" gradientUnits="userSpaceOnUse">
<stop stop-color="#B39100"/>
<stop offset="1" stop-color="#B04C00"/>
</linearGradient>
<linearGradient id="paint26_linear_3963_13599" x1="37.3255" y1="37.2656" x2="50.8059" y2="83.9748" gradientUnits="userSpaceOnUse">
<stop stop-color="#B39100"/>
<stop offset="1" stop-color="#B04C00"/>
</linearGradient>
<linearGradient id="paint27_linear_3963_13599" x1="48.5234" y1="34.8672" x2="48.8018" y2="37.089" gradientUnits="userSpaceOnUse">
<stop stop-color="#B39100"/>
<stop offset="1" stop-color="#B04C00"/>
</linearGradient>
<linearGradient id="paint28_linear_3963_13599" x1="44.5729" y1="19.7031" x2="49.8021" y2="38.9429" gradientUnits="userSpaceOnUse">
<stop stop-color="#B39100"/>
<stop offset="1" stop-color="#B04C00"/>
</linearGradient>
</defs>
</svg>
