<svg width="93" height="79" viewBox="0 0 93 79" fill="none" xmlns="http://www.w3.org/2000/svg">
<path d="M19.9288 22.0628L10.4431 26.5494L11.5602 36.1083L21.9248 37.8478L26.7409 29.3328L19.9288 22.0628Z" fill="#5DF891"/>
<path d="M33.4066 9.83032L34.3222 8.51178C31.2274 7.39472 27.8763 6.88206 24.5801 7.04686C22.7306 7.13846 20.8993 7.43139 19.1047 7.92578L23.8842 10.4162L33.4066 9.83032Z" fill="#5DF891"/>
<path d="M37.7649 26.879L40.5666 19.371L33.5714 12.0096L24.4337 12.5771L21.467 20.4514L28.5356 27.996L37.7649 26.879Z" fill="#5DF891"/>
<path d="M6.70744 68.9237L7.53143 69.4914C7.82436 68.7956 8.04424 68.063 8.20903 67.3306L7.09197 67.0742L7.60477 64.9317L8.46544 65.1332C8.46544 65.0416 8.46544 64.9501 8.46544 64.8585C8.46544 64.4373 8.42877 64.0161 8.39224 63.5949L7.58651 63.778L7.07371 61.6354L7.95263 61.434C7.78783 60.8846 7.58636 60.3353 7.34837 59.8225L6.68918 60.2804L5.44399 58.4674L6.21305 57.9364C5.82852 57.3871 5.38905 56.8927 4.91292 56.4165C2.66053 58.6322 1.37866 61.6538 1.37866 64.8401C1.37866 68.0448 2.66053 71.0662 4.93118 73.2819C5.49892 72.7142 6.02983 72.0917 6.46945 71.4325L5.46225 70.7366L6.70744 68.9237Z" fill="#5DF891"/>
<path d="M13.19 50.8311C14.1422 50.8311 15.0761 50.9227 15.9734 51.1058V47.1138C14.6366 48.3225 13.5013 49.5677 12.5857 50.8496C12.7872 50.8311 12.9885 50.8311 13.19 50.8311Z" fill="#5DF891"/>
<path d="M8.59343 50.3185L6.46932 44.0008L2.93506 42.3711C4.27186 45.3743 6.19465 48.0662 8.59343 50.3185Z" fill="#5DF891"/>
<path d="M9.10648 37.1338C9.17967 36.969 9.28954 36.8408 9.41781 36.7492L8.22755 26.6043L2.23943 23.5279C0.756096 27.6298 0.335045 32.0796 1.12236 36.4746C1.30542 37.4818 1.54357 38.4705 1.83649 39.4411L6.83567 41.7667L9.10648 37.1338Z" fill="#5DF891"/>
<path d="M19.3062 19.9203L22.2911 12.0645L16.2481 8.91475C12.3293 10.5262 8.84998 13.1266 6.19479 16.4594C4.9496 18.0159 3.90573 19.7006 3.06348 21.4953L9.27133 24.6815L19.3062 19.9203Z" fill="#5DF891"/>
<path d="M11.0109 38.2508L8.53882 43.3049L10.718 49.7325C12.128 47.6998 14.0691 45.7221 16.4131 43.9092C18.1161 42.5906 19.984 41.4004 21.98 40.3749L21.7969 40.0636L11.0109 38.2508Z" fill="#5DF891"/>
<path d="M71.9172 31.9515C77.008 26.0367 84.2046 22.3926 91.969 21.7883C90.6322 16.2581 87.6108 11.2772 83.3074 7.55985L66.9912 28.0143L71.9172 31.9515Z" fill="#5DF891"/>
<path d="M65.2697 26.641L81.5858 6.18622C76.8796 2.72516 71.1845 0.875706 65.3614 0.893966C66.3686 8.47514 64.3908 16.1663 59.8494 22.3191L65.2697 26.641Z" fill="#5DF891"/>
<path d="M73.6382 33.3065L87.4272 44.3303C91.7305 38.4705 93.5252 31.1456 92.4081 23.9489C85.1381 24.4435 78.3992 27.8128 73.6382 33.3065Z" fill="#5DF891"/>
<path d="M22.1446 54.0541C22.1629 54.0541 22.1813 54.0723 22.1996 54.0907C22.456 54.3105 22.6939 54.5302 22.9321 54.7499C23.4814 55.281 23.9576 55.8303 24.397 56.3797V41.6018C22.1446 42.6456 20.057 43.8909 18.1709 45.3009V51.7285C19.5993 52.2778 20.9544 53.0653 22.1446 54.0541Z" fill="#5DF891"/>
<path d="M17.42 73.4467L16.1748 71.6338L17.1271 70.9928C16.651 70.0223 16.2847 68.9968 16.0467 67.9347L15.0762 68.1727L14.5634 66.0302L15.7354 65.7555C15.7171 65.4442 15.6987 65.1512 15.6987 64.8399C15.6987 64.199 15.7354 63.5763 15.8268 62.9538L14.5632 62.6609L15.076 60.5183L16.303 60.8113C16.5594 59.9323 16.9072 59.1082 17.3284 58.3025L16.1931 57.5334L17.4383 55.7205L18.5187 56.453C18.9032 55.9402 19.3244 55.4642 19.7639 55.0063C17.8228 53.7062 15.552 53.0104 13.1897 53.0104C10.8457 53.0104 8.57509 53.7062 6.63403 55.0063C7.14684 55.5374 7.62282 56.105 8.04402 56.691L9.47243 55.7205L10.7176 57.5334L9.19776 58.5771C9.56403 59.3279 9.87537 60.1154 10.1134 60.9211L11.8347 60.5182L12.3475 62.6607L10.5712 63.0819C10.6444 63.6497 10.6811 64.2539 10.6811 64.8399C10.6811 65.0963 10.6811 65.371 10.6628 65.6274L12.3475 66.0303L11.8347 68.1728L10.3514 67.825C10.1316 68.8322 9.80202 69.8027 9.38082 70.7366L10.7176 71.6522L9.47243 73.4651L8.28217 72.6594C7.80603 73.3735 7.2567 74.0511 6.63403 74.6738C8.57509 75.9556 10.8642 76.6698 13.1531 76.6515C15.5336 76.6515 17.8044 75.9556 19.7272 74.6555C19.1779 74.1062 18.6835 73.5019 18.2439 72.8793L17.42 73.4467Z" fill="#5DF891"/>
<path d="M63.1637 0.985585C56.0586 1.58985 49.4663 4.94104 44.8149 10.3065L58.1461 20.9458C62.358 15.2142 64.1526 8.03584 63.1637 0.985585Z" fill="#5DF891"/>
<path d="M48.0564 20.5796C46.445 17.4666 44.1743 14.7014 41.4091 12.4857C39.8526 11.2587 38.1862 10.215 36.4099 9.3726L35.4211 10.7826L42.4712 18.199L48.0564 20.5796Z" fill="#5DF891"/>
<path d="M68.7306 55.7755C68.932 55.6108 69.1518 55.446 69.3715 55.2812C68.6574 52.1132 65.6542 48.3225 61.4241 45.2094V68.1546C62.2298 67.5686 62.9806 66.9643 63.6947 66.3234C63.7681 62.2397 65.581 58.4125 68.7306 55.7755Z" fill="#5DF891"/>
<path d="M77.1541 72.5311C74.9017 72.5311 72.7042 71.5788 71.2942 70.004C70.1589 68.7404 69.6278 67.1657 69.7926 65.5909C69.8658 64.9682 69.9941 64.1991 70.1405 63.3202C70.4518 61.4708 70.8913 58.8704 70.7447 57.0209C70.5433 57.1674 70.3418 57.3322 70.1405 57.497C67.4486 59.7494 65.8921 63.0455 65.8921 66.5615C65.8921 70.0591 67.4486 73.3737 70.1405 75.6261C72.2647 77.4023 74.9566 78.3728 77.7216 78.3728C80.798 78.3728 83.7098 77.2008 85.9255 75.0583C88.2511 72.8059 89.5329 69.7845 89.5514 66.5981C89.5514 63.3569 88.2695 60.3353 85.9439 58.0829C85.5044 57.6617 85.0283 57.2772 84.5339 56.9291C84.3142 58.7421 84.8452 61.4157 85.2115 63.3018C85.3763 64.1807 85.5411 64.9499 85.6143 65.5909C85.8158 67.1474 85.303 68.7039 84.1859 69.9675C82.7575 71.5607 80.56 72.5313 78.2711 72.5313H77.1541V72.5311Z" fill="#5DF891"/>
<path d="M70.5437 33.6544L65.6177 29.7174L57.304 40.1369C58.5309 40.7779 59.7578 41.4555 60.9114 42.2063C62.5229 43.25 64.0062 44.3671 65.3063 45.5573C66.1487 41.254 67.925 37.2069 70.5437 33.6544Z" fill="#5DF891"/>
<path d="M53.0005 72.6777C55.1797 71.8537 57.2673 70.8282 59.2266 69.6196V43.7262C57.2671 42.5175 55.1797 41.4738 53.0005 40.6314V72.6777Z" fill="#5DF891"/>
<path d="M24.4339 61.1044C23.8662 59.3648 22.8591 57.7533 21.5039 56.4165C21.0827 56.8195 20.7165 57.2405 20.3686 57.6984L21.5039 58.4674L20.2587 60.2804L19.1966 59.5663C18.9037 60.134 18.6655 60.72 18.4825 61.3243L19.801 61.6538L19.2882 63.7964L17.9697 63.485C17.933 63.9429 17.8965 64.4006 17.8965 64.8585C17.8965 64.9866 17.9147 65.1332 17.9147 65.2615L19.3065 64.9319L19.8193 67.0744L18.2078 67.4589C18.3909 68.2464 18.6657 69.0337 18.9953 69.7662L20.2405 68.9238L21.4857 70.7368L20.1122 71.6706C20.5151 72.2384 20.9729 72.7877 21.4857 73.2821C23.7747 71.0297 25.0199 68.0448 25.0382 64.8403C25.0382 63.6316 24.8551 62.478 24.5254 61.3609C24.4889 61.2874 24.4522 61.196 24.4339 61.1044Z" fill="#5DF891"/>
<path d="M72.7777 55.812C73.2538 58.0644 72.7228 61.1226 72.3016 63.6679C72.155 64.5103 72.0269 65.2427 71.972 65.8104C71.8438 67.0191 72.4299 67.9529 72.9242 68.5205C73.913 69.6192 75.5245 70.315 77.136 70.315H78.253C79.8827 70.315 81.5309 69.6192 82.5198 68.4838C83.0142 67.9161 83.5635 67.0189 83.4172 65.8285C83.344 65.2608 83.1974 64.5284 83.0326 63.686C82.5198 61.1223 81.9156 58.0276 82.4833 55.7385C81 55.0794 79.352 54.7313 77.7038 54.7313C76.0006 54.7316 74.3158 55.1162 72.7777 55.812Z" fill="#5DF891"/>
<path d="M72.2832 35.0461C69.5913 38.7085 67.87 42.9753 67.2473 47.4617C69.2433 49.6409 70.6717 51.9298 71.3309 54.0723C73.2904 53.0651 75.5061 52.5341 77.7218 52.5341H77.7767C80.9447 50.9226 83.7282 48.7434 86.0905 46.0516L72.2832 35.0461Z" fill="#5DF891"/>
<path d="M63.8962 28.3623L58.4941 24.0406C56.8277 25.9816 54.9416 27.6664 52.8722 29.0947C53.037 30.578 53.0737 32.0796 53.0004 33.5628C53.0004 33.7643 52.9821 33.9473 52.9637 34.1488C52.8721 35.4673 52.6708 36.7675 52.3777 38.0676C53.3482 38.3972 54.3187 38.7817 55.2527 39.1846L63.8962 28.3623Z" fill="#5DF891"/>
<path d="M42.4893 36.0533L38.0028 29.0764L28.7918 30.1935L23.7742 39.0565L23.9756 39.4044C24.3419 39.2396 24.7082 39.0748 25.0927 38.9283C29.8722 36.9505 34.8713 35.9617 39.9439 35.9617C40.7863 35.9617 41.6469 35.9984 42.4893 36.0533Z" fill="#5DF891"/>
<path d="M56.7729 22.6671L46.7561 14.683C48.569 16.8622 50.0522 19.3344 51.0961 21.9713C51.1328 22.0811 51.1877 22.2093 51.2242 22.3191C51.7735 23.7291 52.1947 25.1758 52.4878 26.6591C54.0444 25.4873 55.491 24.1505 56.7729 22.6671Z" fill="#5DF891"/>
<path d="M50.6932 39.8256C47.1589 38.727 43.5332 38.1592 39.944 38.1592C35.3843 38.1592 30.8978 39.0016 26.5945 40.6863V60.6832C26.9974 62.02 27.2171 63.4117 27.2171 64.8399C27.2171 67.367 26.5579 69.7842 25.3127 71.9085C25.4958 72.0001 25.6973 72.0733 25.9354 72.1831C30.4769 74.1242 35.183 75.1131 39.9442 75.1131C43.6066 75.1131 47.2507 74.5454 50.8032 73.4467V39.8623C50.7849 39.8623 50.7665 39.844 50.7483 39.844C50.73 39.844 50.7114 39.8256 50.6932 39.8256ZM47.3787 57.7532H45.5475V59.7492H43.35V57.7532H41.8667V59.7492H39.6692V57.7532H37.7097V59.7492H35.5123V57.7532H33.5531V59.7492H31.3556V57.7532H29.7075V55.5557H31.3556V53.4498H33.5531V55.5557H35.5126V53.4498H37.71V55.5557H39.6695V53.4498H41.867V55.5557H43.3503V53.4498H45.5478V55.5557H47.379V57.7532H47.3787Z" fill="#5DF891"/>
<path d="M47.9465 36.8224C48.7156 37.0055 49.5031 37.1887 50.2721 37.4084C50.382 36.8591 50.4918 36.3097 50.565 35.7603L47.9465 36.8224Z" fill="#5DF891"/>
<path d="M49.3382 23.5279L42.4529 20.5979L39.7793 27.7579L44.8883 35.687L50.8031 33.2881C50.8947 31.3104 50.7665 29.2961 50.3819 27.3367C50.1439 26.0365 49.7777 24.7547 49.3382 23.5279Z" fill="#5DF891"/>
</svg>
