<svg width="79" height="75" viewBox="0 0 79 75" fill="none" xmlns="http://www.w3.org/2000/svg">
<path d="M29.6573 47.345H49.1575C49.6745 47.3457 50.1708 47.14 50.5365 46.7744C50.9021 46.4088 51.1078 45.9125 51.107 45.3955C51.0978 41.615 48.9012 38.1815 45.4727 36.5883C46.5874 35.2201 47.1994 33.5105 47.2073 31.7452C47.2073 27.4377 43.7153 23.945 39.407 23.945C35.0995 23.945 31.6075 27.4377 31.6075 31.7452C31.6147 33.5105 32.2274 35.2201 33.3421 36.5883C29.9136 38.1815 27.717 41.615 27.707 45.3955C27.707 45.9125 27.912 46.4088 28.2783 46.7744C28.6439 47.14 29.1403 47.3457 29.6573 47.345Z" fill="#5DF891"/>
<path d="M4.30695 23.945H23.8072C24.3242 23.9458 24.8205 23.7401 25.1861 23.3745C25.5525 23.0088 25.7574 22.5125 25.7574 21.9955C25.7474 18.215 23.5508 14.7816 20.1224 13.1884C21.2371 11.8202 21.8498 10.1106 21.8569 8.34528C21.8569 4.03777 18.3649 0.545048 14.0574 0.545048C9.74919 0.545048 6.25718 4.03777 6.25718 8.34528C6.26504 10.1106 6.87703 11.8202 7.99176 13.1884C4.56331 14.7816 2.36671 18.215 2.35742 21.9955C2.35671 22.5125 2.56237 23.0088 2.928 23.3745C3.29362 23.7401 3.78993 23.9458 4.30695 23.945Z" fill="#5DF891"/>
<path d="M55.0074 35.6451H74.5069C75.0246 35.6458 75.5202 35.4401 75.8866 35.0745C76.2522 34.7089 76.4571 34.2126 76.4571 33.6955C76.4479 29.915 74.2512 26.4816 70.8228 24.8884C71.9375 23.5202 72.5495 21.8106 72.5574 20.0453C72.5574 15.7378 69.0647 12.2451 64.7571 12.2451C60.4496 12.2451 56.9569 15.7378 56.9569 20.0453C56.9647 21.8106 57.5767 23.5202 58.6915 24.8884C55.263 26.4816 53.0664 29.915 53.0571 33.6955C53.0571 34.2126 53.2621 34.7089 53.6277 35.0745C53.994 35.4401 54.4896 35.6458 55.0074 35.6451Z" fill="#5DF891"/>
<path d="M76.4572 70.745H74.507V43.4453C74.5077 42.9283 74.302 42.432 73.9364 42.0663C73.5708 41.7 73.0745 41.495 72.5575 41.495H56.957C56.44 41.495 55.9437 41.7 55.578 42.0663C55.2124 42.432 55.0068 42.9283 55.0075 43.4453V70.745H49.1575V55.1453C49.1575 54.6283 48.9525 54.132 48.5862 53.7663C48.2206 53.4 47.7242 53.195 47.2072 53.195H31.6075C31.0897 53.195 30.5941 53.4 30.2278 53.7663C29.8622 54.132 29.6572 54.6283 29.6572 55.1453V70.745H23.8072V31.7453C23.8072 31.2283 23.6023 30.732 23.2367 30.3663C22.8703 30 22.3747 29.795 21.857 29.795H6.25723C5.74021 29.795 5.2439 30 4.87828 30.3663C4.51194 30.732 4.30699 31.2283 4.30699 31.7453V70.745H2.35746C1.28058 70.745 0.407227 71.6184 0.407227 72.6953C0.407227 73.7722 1.28058 74.6455 2.35746 74.6455H76.4572C77.5341 74.6455 78.4075 73.7722 78.4075 72.6953C78.4075 71.6184 77.5341 70.745 76.4572 70.745Z" fill="#5DF891"/>
</svg>
