<svg width="74" height="70" viewBox="0 0 74 70" fill="none" xmlns="http://www.w3.org/2000/svg">
<path d="M27.7896 44.2102H46.2108C46.6992 44.2109 47.168 44.0166 47.5134 43.6712C47.8588 43.3258 48.0531 42.857 48.0524 42.3686C48.0436 38.7973 45.9686 35.5538 42.7298 34.0488C43.7829 32.7563 44.361 31.1413 44.3684 29.4737C44.3684 25.4045 41.0697 22.1051 36.9998 22.1051C32.9307 22.1051 29.6319 25.4045 29.6319 29.4737C29.6387 31.1413 30.2175 32.7563 31.2705 34.0488C28.0318 35.5538 25.9567 38.7973 25.9473 42.3686C25.9473 42.857 26.1409 43.3258 26.4869 43.6712C26.8323 44.0166 27.3012 44.2109 27.7896 44.2102Z" fill="url(#paint0_linear_1073_2426)"/>
<path d="M3.84213 22.1051H22.2633C22.7517 22.1058 23.2205 21.9115 23.5659 21.5661C23.912 21.2207 24.1056 20.7519 24.1056 20.2635C24.0962 16.6922 22.0211 13.4487 18.7824 11.9437C19.8354 10.6512 20.4142 9.0362 20.421 7.3686C20.421 3.29944 17.1222 0 13.0531 0C8.98322 0 5.68445 3.29944 5.68445 7.3686C5.69187 9.0362 6.27 10.6512 7.32304 11.9437C4.08431 13.4487 2.00926 16.6922 2.00049 20.2635C1.99982 20.7519 2.1941 21.2207 2.53949 21.5661C2.88488 21.9115 3.35373 22.1058 3.84213 22.1051Z" fill="url(#paint1_linear_1073_2426)"/>
<path d="M51.7369 33.1576H70.1573C70.6464 33.1583 71.1146 32.964 71.4607 32.6186C71.8061 32.2732 71.9997 31.8044 71.9997 31.316C71.9909 27.7447 69.9158 24.5012 66.6771 22.9962C67.7302 21.7037 68.3083 20.0887 68.3157 18.4211C68.3157 14.3519 65.0163 11.0525 60.9471 11.0525C56.8779 11.0525 53.5785 14.3519 53.5785 18.4211C53.5859 20.0887 54.164 21.7037 55.2171 22.9962C51.9784 24.5012 49.9033 27.7447 49.8945 31.316C49.8945 31.8044 50.0881 32.2732 50.4335 32.6186C50.7796 32.964 51.2478 33.1583 51.7369 33.1576Z" fill="url(#paint2_linear_1073_2426)"/>
<path d="M71.9999 66.3153H70.1575V40.5262C70.1582 40.0378 69.9639 39.569 69.6185 39.2236C69.2731 38.8775 68.8043 38.6839 68.3159 38.6839H53.5787C53.0903 38.6839 52.6214 38.8775 52.2761 39.2236C51.9307 39.569 51.7364 40.0378 51.7371 40.5262V66.3153H46.2108V51.5788C46.2108 51.0904 46.0172 50.6215 45.6711 50.2761C45.3257 49.9301 44.8569 49.7365 44.3685 49.7365H29.6319C29.1428 49.7365 28.6747 49.9301 28.3286 50.2761C27.9832 50.6215 27.7896 51.0904 27.7896 51.5788V66.3153H22.2633V29.4737C22.2633 28.9853 22.0697 28.5164 21.7243 28.171C21.3783 27.825 20.9101 27.6313 20.421 27.6313H5.68448C5.19608 27.6313 4.72723 27.825 4.38184 28.171C4.03577 28.5164 3.84217 28.9853 3.84217 29.4737V66.3153H2.00052C0.983233 66.3153 0.158203 67.1403 0.158203 68.1576C0.158203 69.1749 0.983233 70 2.00052 70H71.9999C73.0172 70 73.8422 69.1749 73.8422 68.1576C73.8422 67.1403 73.0172 66.3153 71.9999 66.3153Z" fill="url(#paint3_linear_1073_2426)"/>
<defs>
<linearGradient id="paint0_linear_1073_2426" x1="36.9998" y1="22.1051" x2="42.7957" y2="51.219" gradientUnits="userSpaceOnUse">
<stop stop-color="#B39100"/>
<stop offset="1" stop-color="#B04C00"/>
</linearGradient>
<linearGradient id="paint1_linear_1073_2426" x1="13.0531" y1="-1.72729e-07" x2="18.8489" y2="29.1139" gradientUnits="userSpaceOnUse">
<stop stop-color="#B39100"/>
<stop offset="1" stop-color="#B04C00"/>
</linearGradient>
<linearGradient id="paint2_linear_1073_2426" x1="60.9471" y1="11.0525" x2="66.7429" y2="40.1664" gradientUnits="userSpaceOnUse">
<stop stop-color="#B39100"/>
<stop offset="1" stop-color="#B04C00"/>
</linearGradient>
<linearGradient id="paint3_linear_1073_2426" x1="37.0002" y1="27.6313" x2="43.5551" y2="84.8948" gradientUnits="userSpaceOnUse">
<stop stop-color="#B39100"/>
<stop offset="1" stop-color="#B04C00"/>
</linearGradient>
</defs>
</svg>
