<svg width="38" height="33" viewBox="0 0 38 33" fill="none" xmlns="http://www.w3.org/2000/svg">
<path d="M35.8109 26.8711C36.7224 25.4795 37.2015 23.9453 37.2015 22.4027C37.2015 17.2493 32.2094 13.0439 25.9762 12.8242C24.5238 17.1583 20.1978 20.787 13.847 21.2425C13.7909 21.6258 13.7363 22.0097 13.7363 22.4027C13.7363 27.6961 18.9996 32.0021 25.469 32.0021C27.6866 32.0021 29.8395 31.4845 31.7269 30.5002L35.7777 31.9407C36.1578 32.0765 36.5951 31.9852 36.8902 31.6886C37.1808 31.397 37.2777 30.9637 37.1391 30.5752L35.8109 26.8711ZM22.2691 23.4693C22.2691 24.0588 21.792 24.5359 21.2025 24.5359C20.6129 24.5359 20.1359 24.0588 20.1359 23.4693V21.3361C20.1359 20.7465 20.6129 20.2695 21.2025 20.2695C21.792 20.2695 22.2691 20.7465 22.2691 21.3361V23.4693ZM26.5355 23.4693C26.5355 24.0588 26.0584 24.5359 25.4689 24.5359C24.8793 24.5359 24.4023 24.0588 24.4023 23.4693V21.3361C24.4023 20.7465 24.8793 20.2695 25.4689 20.2695C26.0584 20.2695 26.5355 20.7465 26.5355 21.3361V23.4693ZM30.8019 23.4693C30.8019 24.0588 30.3248 24.5359 29.7353 24.5359C29.1457 24.5359 28.6687 24.0588 28.6687 23.4693V21.3361C28.6687 20.7465 29.1457 20.2695 29.7353 20.2695C30.3248 20.2695 30.8019 20.7465 30.8019 21.3361V23.4693Z" fill="url(#paint0_linear_4092_30094)"/>
<path d="M12.5275 0.0044239C10.3079 0.0044239 8.15597 0.522081 6.26958 1.50641L2.21876 0.0658602C1.8313 -0.0726558 1.39698 0.0252581 1.10637 0.317934C0.815756 0.609614 0.718909 1.04287 0.857425 1.4314L2.18549 5.13535C1.27404 6.52691 0.794922 8.06118 0.794922 9.60384C0.794922 14.8972 6.05818 19.2033 12.5275 19.2033C18.8391 19.2033 24.2602 15.0367 24.2602 9.60384C24.2602 4.31037 18.9969 0.0044239 12.5275 0.0044239ZM12.5275 14.9369C11.9385 14.9369 11.4609 14.4593 11.4609 13.8702C11.4609 13.2811 11.9385 12.8036 12.5275 12.8036C13.1166 12.8036 13.5941 13.2811 13.5941 13.8702C13.5941 14.4592 13.1166 14.9369 12.5275 14.9369ZM13.6077 10.4839C13.6077 11.0724 13.1233 11.6433 12.5348 11.6433C11.9453 11.6433 11.4609 11.2599 11.4609 10.6704C11.4609 9.59439 12.0348 8.78092 12.8878 8.47573C13.3097 8.32364 13.5941 7.92053 13.5941 7.47057C13.5941 6.88209 13.116 6.40396 12.5275 6.40396C11.939 6.40396 11.4609 6.88209 11.4609 7.47057C11.4609 8.06011 10.9838 8.53717 10.3943 8.53717C9.80472 8.53717 9.32767 8.06011 9.32767 7.47057C9.32767 5.70612 10.763 4.27076 12.5275 4.27076C14.2919 4.27076 15.7273 5.70612 15.7273 7.47057C15.7274 8.8174 14.8753 10.0288 13.6077 10.4839Z" fill="url(#paint1_linear_4092_30094)"/>
<defs>
<linearGradient id="paint0_linear_4092_30094" x1="25.4689" y1="12.8242" x2="29.6312" y2="38.4067" gradientUnits="userSpaceOnUse">
<stop stop-color="#B39100"/>
<stop offset="1" stop-color="#B04C00"/>
</linearGradient>
<linearGradient id="paint1_linear_4092_30094" x1="12.5275" y1="0.0039061" x2="16.6989" y2="25.6134" gradientUnits="userSpaceOnUse">
<stop stop-color="#B39100"/>
<stop offset="1" stop-color="#B04C00"/>
</linearGradient>
</defs>
</svg>
