<svg width="33" height="33" viewBox="0 0 33 33" fill="none" xmlns="http://www.w3.org/2000/svg">
<path d="M9.14706 19.3984C7.33715 19.3984 5.86523 20.8704 5.86523 22.6803C5.86523 25.152 6.59033 27.6098 7.96125 29.6671L10.1819 32.998H19.0305L19.2984 32.4637C20.6296 29.8003 21.334 26.7532 21.334 23.7754V22.2988C21.334 20.6995 20.0329 19.3984 18.4336 19.3984H15.5332V13.5977C15.5332 12.5297 14.6675 11.6641 13.5996 11.6641C12.5317 11.6641 11.666 12.5297 11.666 13.5977V23.2656C11.666 23.7996 11.2331 24.2324 10.6992 24.2324C10.1653 24.2324 9.73242 23.7996 9.73242 23.2656V19.3984H9.14706Z" fill="url(#paint0_linear_4092_30070)"/>
<path d="M33 7.79883C33 3.53416 29.4658 0 25.2012 0C20.9365 0 17.4668 3.53416 17.4668 7.79883C17.4668 12.0635 20.9365 15.5332 25.2012 15.5332C29.4658 15.5332 33 12.0635 33 7.79883ZM28.5019 9.73242L27.1348 11.0995L25.2012 9.16594L23.2676 11.0995L21.9005 9.73242L23.8341 7.79883L21.9005 5.86523L23.2676 4.49812L25.2012 6.43171L27.1348 4.49812L28.5019 5.86523L26.5683 7.79883L28.5019 9.73242Z" fill="url(#paint1_linear_4092_30070)"/>
<path d="M7.79883 15.5332C8.47056 15.5332 9.11096 15.4207 9.73242 15.2597V13.5996C9.73242 11.4668 11.4668 9.73242 13.5996 9.73242C14.1542 9.73242 14.6791 9.85443 15.1563 10.0655C15.3787 9.34416 15.5332 8.59308 15.5332 7.79883C15.5332 3.5272 12.0705 0 7.79883 0C3.5272 0 0 3.5272 0 7.79883C0 12.0703 3.5272 15.5332 7.79883 15.5332ZM6.83203 11.0995L3.53132 7.79883L4.89844 6.43171L6.83203 8.36531L10.6992 4.49812L12.0663 5.86523L6.83203 11.0995Z" fill="url(#paint2_linear_4092_30070)"/>
<defs>
<linearGradient id="paint0_linear_4092_30070" x1="13.5996" y1="11.6641" x2="21.0577" y2="38.8282" gradientUnits="userSpaceOnUse">
<stop stop-color="#B39100"/>
<stop offset="1" stop-color="#B04C00"/>
</linearGradient>
<linearGradient id="paint1_linear_4092_30070" x1="25.2334" y1="-1.21376e-07" x2="29.3061" y2="20.4583" gradientUnits="userSpaceOnUse">
<stop stop-color="#B39100"/>
<stop offset="1" stop-color="#B04C00"/>
</linearGradient>
<linearGradient id="paint2_linear_4092_30070" x1="7.7666" y1="-1.21376e-07" x2="11.8393" y2="20.4583" gradientUnits="userSpaceOnUse">
<stop stop-color="#B39100"/>
<stop offset="1" stop-color="#B04C00"/>
</linearGradient>
</defs>
</svg>
