<svg width="33" height="44" viewBox="0 0 33 44" fill="none" xmlns="http://www.w3.org/2000/svg">
<path d="M9.90967 8.71702V6.82654C9.90967 6.48495 10.1939 6.20718 10.5431 6.20718H22.4566C22.8059 6.20718 23.09 6.48515 23.09 6.82654V8.71702C23.09 9.05861 22.8057 9.33638 22.4566 9.33638H10.5433C10.1939 9.33657 9.90967 9.05861 9.90967 8.71702ZM20.155 3.29757C20.0026 1.45481 18.4233 0 16.4999 0C14.5766 0 12.9973 1.45481 12.8449 3.29757H20.155ZM32.1508 10.7334V40.0881C32.1508 42.2451 30.356 44 28.15 44H4.84991C2.64389 44 0.849121 42.2451 0.849121 40.0881V10.7334C0.849121 8.57639 2.64389 6.8215 4.84991 6.8215H6.93412C6.93412 6.82325 6.93392 6.82499 6.93392 6.82654V8.71702C6.93392 10.663 8.55312 12.246 10.5431 12.246H22.4566C24.4468 12.246 26.0658 10.663 26.0658 8.71702V6.82654C26.0658 6.8248 26.0656 6.82305 26.0656 6.8215H28.1498C30.356 6.8215 32.1508 8.57639 32.1508 10.7334ZM11.494 27.8254C10.7945 27.4039 9.87773 27.6165 9.44664 28.3005L8.03971 30.532L7.31343 29.9725C6.66829 29.4754 5.73232 29.5842 5.22406 30.2154C4.7156 30.8468 4.8269 31.7614 5.47244 32.2585L7.51003 33.8276C7.77427 34.0311 8.09902 34.1393 8.43052 34.1393C8.51702 34.1393 8.60411 34.1319 8.6906 34.117C9.1082 34.0445 9.47461 33.801 9.6972 33.448L11.9798 29.8273C12.4111 29.1433 12.1935 28.2471 11.494 27.8254ZM11.494 17.3508C10.7945 16.9291 9.87773 17.1421 9.44664 17.8259L8.03971 20.0573L7.31343 19.4979C6.66829 19.001 5.73232 19.1096 5.22406 19.7408C4.7156 20.3722 4.8269 21.2868 5.47244 21.7839L7.51003 23.353C7.77427 23.5565 8.09902 23.6647 8.43052 23.6647C8.51702 23.6647 8.60411 23.6573 8.6906 23.6424C9.1082 23.5698 9.47461 23.3264 9.6972 22.9734L11.9798 19.3528C12.4111 18.6687 12.1935 17.7725 11.494 17.3508ZM26.9033 32.6847C26.9033 31.8811 26.2374 31.2299 25.4155 31.2299H15.6947C14.873 31.2299 14.2068 31.8811 14.2068 32.6847C14.2068 33.4883 14.873 34.1395 15.6947 34.1395H25.4155C26.2374 34.1395 26.9033 33.4883 26.9033 32.6847ZM26.9033 22.2101C26.9033 21.4064 26.2374 20.7553 25.4155 20.7553H15.6947C14.873 20.7553 14.2068 21.4064 14.2068 22.2101C14.2068 23.0137 14.873 23.6649 15.6947 23.6649H25.4155C26.2374 23.6649 26.9033 23.0137 26.9033 22.2101Z" fill="url(#paint0_linear_1305_5166)"/>
<defs>
<linearGradient id="paint0_linear_1305_5166" x1="16.4999" y1="0" x2="16.4999" y2="44" gradientUnits="userSpaceOnUse">
<stop stop-color="#B29000"/>
<stop offset="1" stop-color="#B06200"/>
</linearGradient>
</defs>
</svg>
