<svg width="22" height="19" viewBox="0 0 22 19" fill="none" xmlns="http://www.w3.org/2000/svg">
<path d="M8.4163 16.946C8.33564 16.946 8.25638 16.9254 8.18639 16.8861C8.1164 16.8469 8.05809 16.7904 8.01727 16.7223C6.47986 14.1577 2.38116 8.69686 2.33998 8.64199C2.27414 8.55435 2.2427 8.44643 2.25143 8.33796C2.26015 8.22949 2.30845 8.12772 2.3875 8.05125L3.64784 6.83172C3.72481 6.75724 3.82601 6.71154 3.93384 6.70256C4.04166 6.69358 4.14929 6.72188 4.23801 6.78256L8.32001 9.57338C11.0515 6.14375 13.5887 3.77427 15.258 2.3761C17.1372 0.802271 18.3335 0.0937372 18.3836 0.0645604C18.4555 0.0223141 18.5378 -1.31578e-06 18.6217 9.17391e-10H20.6607C20.7545 -5.84257e-06 20.8461 0.0279043 20.9233 0.08003C21.0005 0.132156 21.0598 0.206035 21.0931 0.291873C21.1265 0.377711 21.1324 0.471453 21.1102 0.560672C21.0879 0.64989 21.0384 0.73037 20.9684 0.791443C15.1781 5.84138 8.88126 16.609 8.81833 16.7172C8.77816 16.7862 8.72014 16.8437 8.6501 16.8839C8.58006 16.924 8.50046 16.9454 8.4193 16.946L8.4163 16.946Z" fill="#5DF891"/>
<path d="M8.32854 18.8334C3.73618 18.8334 0 15.1752 0 10.6784C0 6.18173 3.73618 2.52344 8.32854 2.52344C9.24934 2.52244 10.1639 2.67126 11.0349 2.96381C11.151 3.00286 11.2464 3.08546 11.3003 3.19343C11.3542 3.30141 11.362 3.42591 11.3221 3.53956C11.2823 3.6532 11.1979 3.74668 11.0876 3.79942C10.9774 3.85217 10.8502 3.85986 10.7341 3.82081C9.95981 3.56081 9.14673 3.42859 8.32812 3.42955C4.24598 3.42955 0.924977 6.68141 0.924977 10.6784C0.924977 14.6755 4.24598 17.9273 8.32812 17.9273C12.4103 17.9273 15.7313 14.6755 15.7313 10.6784C15.7314 10.188 15.6811 9.69878 15.5811 9.2182C15.5689 9.15989 15.5686 9.09981 15.5801 9.04139C15.5917 8.98296 15.6149 8.92733 15.6484 8.87768C15.6819 8.82802 15.725 8.78532 15.7754 8.752C15.8258 8.71868 15.8823 8.6954 15.9419 8.68348C16.0014 8.67157 16.0628 8.67125 16.1224 8.68256C16.1821 8.69387 16.2389 8.71657 16.2896 8.74937C16.3404 8.78218 16.384 8.82444 16.418 8.87375C16.452 8.92306 16.4758 8.97845 16.488 9.03675C16.6004 9.57704 16.657 10.127 16.6569 10.6784C16.6571 15.1752 12.9209 18.8334 8.32854 18.8334Z" fill="#5DF891"/>
</svg>
