<svg width="60" height="61" viewBox="0 0 60 61" fill="none" xmlns="http://www.w3.org/2000/svg">
<path d="M30 0.34375C13.4586 0.34375 0 13.8024 0 30.3438C0 46.8851 13.4586 60.3438 30 60.3438C46.5414 60.3438 60 46.8851 60 30.3438C60 13.8024 46.5414 0.34375 30 0.34375ZM46.7669 22.449L27.594 41.4716C26.4662 42.5994 24.6617 42.6746 23.4586 41.5468L13.3083 32.2986C12.1053 31.1708 12.0301 29.2911 13.0827 28.0881C14.2105 26.8851 16.0902 26.8099 17.2932 27.9377L25.3383 35.3062L42.4812 18.1633C43.6842 16.9603 45.5639 16.9603 46.7669 18.1633C47.9699 19.3663 47.9699 21.246 46.7669 22.449Z" fill="url(#paint0_linear_4412_27704)"/>
<defs>
<linearGradient id="paint0_linear_4412_27704" x1="10.471" y1="5.88095" x2="58.9785" y2="57.2075" gradientUnits="userSpaceOnUse">
<stop stop-color="#FEC900"/>
<stop offset="1" stop-color="#FD8900"/>
</linearGradient>
</defs>
</svg>
