<svg width="15" height="13" viewBox="0 0 15 13" fill="none" xmlns="http://www.w3.org/2000/svg">
<path d="M5.9764 11.5475C5.91912 11.5475 5.86284 11.5334 5.81314 11.5067C5.76343 11.4799 5.72203 11.4414 5.69304 11.395C4.60132 9.64742 1.69079 5.92627 1.66155 5.88889C1.6148 5.82916 1.59248 5.75562 1.59867 5.68171C1.60487 5.6078 1.63916 5.53845 1.69529 5.48634L2.59027 4.65532C2.64493 4.60457 2.7168 4.57342 2.79336 4.5673C2.86993 4.56118 2.94636 4.58047 3.00936 4.62182L5.90802 6.52356C7.84767 4.18652 9.64939 2.57189 10.8347 1.61914C12.1692 0.546689 13.0187 0.063875 13.0543 0.0439932C13.1053 0.0152054 13.1638 -8.96609e-07 13.2233 6.25135e-10H14.6712C14.7379 -3.98128e-06 14.8029 0.0190147 14.8577 0.0545346C14.9126 0.0900544 14.9546 0.140398 14.9783 0.19889C15.002 0.257382 15.0062 0.321261 14.9904 0.382057C14.9746 0.442853 14.9395 0.497694 14.8897 0.539311C10.778 3.98048 6.30657 11.3178 6.26189 11.3915C6.23336 11.4386 6.19216 11.4778 6.14242 11.5051C6.09269 11.5325 6.03617 11.5471 5.97853 11.5474L5.9764 11.5475Z" fill="#5DF891"/>
<path d="M5.91417 12.8336C2.6531 12.8336 0 10.3407 0 7.27652C0 4.21234 2.6531 1.71949 5.91417 1.71949C6.56804 1.71881 7.21749 1.82021 7.83598 2.01957C7.9184 2.04618 7.98619 2.10246 8.02444 2.17604C8.06269 2.24961 8.06827 2.33445 8.03995 2.41189C8.01163 2.48933 7.95173 2.55303 7.87343 2.58897C7.79512 2.62492 7.70483 2.63016 7.62241 2.60355C7.07255 2.42637 6.49517 2.33628 5.91387 2.33693C3.01511 2.33693 0.656835 4.55283 0.656835 7.27652C0.656835 10.0002 3.01511 12.2161 5.91387 12.2161C8.81264 12.2161 11.1709 10.0002 11.1709 7.27652C11.171 6.94232 11.1353 6.60895 11.0643 6.28147C11.0556 6.24174 11.0554 6.2008 11.0636 6.16099C11.0718 6.12117 11.0883 6.08327 11.112 6.04943C11.1358 6.0156 11.1665 5.9865 11.2022 5.96379C11.238 5.94109 11.2782 5.92522 11.3205 5.9171C11.3627 5.90898 11.4063 5.90877 11.4487 5.91647C11.4911 5.92418 11.5314 5.93965 11.5674 5.962C11.6034 5.98436 11.6344 6.01315 11.6586 6.04676C11.6827 6.08036 11.6996 6.1181 11.7083 6.15783C11.7881 6.526 11.8283 6.90079 11.8282 7.27652C11.8283 10.3407 9.17524 12.8336 5.91417 12.8336Z" fill="#5DF891"/>
</svg>
