<svg width="29" height="29" viewBox="0 0 29 29" fill="none" xmlns="http://www.w3.org/2000/svg">
<g clip-path="url(#clip0_1073_3454)">
<path d="M15.7955 0.5H11.796C11.2671 0.5 10.8374 0.93078 10.8374 1.46095C10.8374 1.99111 11.2671 2.42189 11.796 2.42189H15.7955C16.3243 2.42189 16.754 1.99111 16.754 1.46095C16.754 0.93078 16.3243 0.5 15.7955 0.5Z" fill="url(#paint0_linear_1073_3454)"/>
<path d="M26.472 6.82909L23.8608 4.21136C23.4972 3.84686 22.9022 3.84686 22.5056 4.21136C22.142 4.57587 22.142 5.17231 22.5056 5.56992L25.0838 8.15454C25.2822 8.35337 25.5135 8.41965 25.7449 8.41965C25.9763 8.41965 26.2407 8.32026 26.406 8.15454C26.8356 7.79003 26.8356 7.19359 26.472 6.82909Z" fill="url(#paint1_linear_1073_3454)"/>
<path d="M13.7795 4.50928C7.16872 4.50928 1.81396 9.87735 1.81396 16.5046C1.81396 23.1318 7.16872 28.4999 13.7795 28.4999C20.3903 28.4999 25.745 23.1318 25.745 16.5046C25.745 9.87735 20.3903 4.50928 13.7795 4.50928ZM18.7376 17.7969H13.7795C13.2507 17.7969 12.821 17.3661 12.821 16.8359V10.6063C12.821 10.0762 13.2507 9.6454 13.7795 9.6454C14.3084 9.6454 14.7381 10.0762 14.7381 10.6063V15.9081H18.7376C19.2664 15.9081 19.6962 16.3389 19.6962 16.8691C19.6962 17.3661 19.2664 17.7969 18.7376 17.7969Z" fill="url(#paint2_linear_1073_3454)"/>
</g>
<defs>
<linearGradient id="paint0_linear_1073_3454" x1="13.7957" y1="0.5" x2="13.7957" y2="2.42189" gradientUnits="userSpaceOnUse">
<stop stop-color="#FECB00"/>
<stop offset="1" stop-color="#FD8800"/>
</linearGradient>
<linearGradient id="paint1_linear_1073_3454" x1="24.4849" y1="3.93799" x2="24.4849" y2="8.41965" gradientUnits="userSpaceOnUse">
<stop stop-color="#FECB00"/>
<stop offset="1" stop-color="#FD8800"/>
</linearGradient>
<linearGradient id="paint2_linear_1073_3454" x1="13.7795" y1="4.50928" x2="13.7795" y2="28.4999" gradientUnits="userSpaceOnUse">
<stop stop-color="#FECB00"/>
<stop offset="1" stop-color="#FD8800"/>
</linearGradient>
<clipPath id="clip0_1073_3454">
<rect width="27.9306" height="28" fill="white" transform="translate(0.310059 0.5)"/>
</clipPath>
</defs>
</svg>
