<svg width="32" height="29" viewBox="0 0 32 29" fill="none" xmlns="http://www.w3.org/2000/svg">
<path d="M10.3347 9.33302C16.2485 9.33302 20.6675 6.99516 20.6675 4.90474C20.6675 2.81452 16.2484 0.476562 10.3347 0.476562C4.42088 0.476562 0.00195312 2.81452 0.00195312 4.90474C0.00195312 6.99516 4.42078 9.33302 10.3347 9.33302Z" fill="url(#paint0_linear_4153_29434)"/>
<path d="M10.3347 27.0473C11.1978 27.0473 12.0286 26.9971 12.8189 26.9057C12.1527 26.0496 11.6019 25.0996 11.1892 24.0794C10.9056 24.0889 10.6211 24.0955 10.3346 24.0955C6.95539 24.0955 3.75524 23.4259 1.32388 22.2102C0.845148 21.9708 0.404604 21.7136 0.00195312 21.4414V22.6191C0.00195312 24.7094 4.42078 27.0473 10.3347 27.0473Z" fill="url(#paint1_linear_4153_29434)"/>
<path d="M10.3348 21.1411C10.3651 21.1411 10.3949 21.1406 10.4251 21.1405C10.3646 20.6566 10.333 20.1638 10.333 19.6638C10.333 19.164 10.3645 18.6715 10.4251 18.1881C10.3949 18.1881 10.365 18.1891 10.3348 18.1891C6.95558 18.1891 3.75554 17.5196 1.32408 16.3038C0.845247 16.0645 0.404604 15.8073 0.00195312 15.5352V16.7128C0.00205155 18.8031 4.42088 21.1411 10.3348 21.1411Z" fill="url(#paint2_linear_4153_29434)"/>
<path d="M10.3348 15.2386C10.6277 15.2386 10.9166 15.2327 11.202 15.2215C11.6602 14.0972 12.2865 13.0587 13.0501 12.1378C12.166 12.2352 11.2575 12.2869 10.3348 12.2869C6.95558 12.2869 3.75554 11.6173 1.32408 10.4016C0.845247 10.1621 0.404604 9.90505 0.00195312 9.63281V10.8105C0.00205155 12.9009 4.42088 15.2386 10.3348 15.2386Z" fill="url(#paint3_linear_4153_29434)"/>
<path d="M14.7632 14.7734C14.1244 15.7337 13.668 16.8251 13.4435 17.9979C13.3399 18.5386 13.2852 19.0964 13.2852 19.6667C13.2852 20.0956 13.3165 20.5172 13.3756 20.9299C13.521 21.9438 13.8386 22.9024 14.2978 23.7757C14.7797 24.6921 15.4172 25.5145 16.1754 26.2069C17.7509 27.6459 19.8464 28.5248 22.1433 28.5248C27.0277 28.5248 31.0014 24.5511 31.0014 19.6667C31.0014 14.7823 27.0277 10.8086 22.1433 10.8086C21.6385 10.8086 21.1435 10.8517 20.6614 10.9332C18.2059 11.3484 16.091 12.7775 14.7632 14.7734Z" fill="url(#paint4_linear_4153_29434)"/>
<defs>
<linearGradient id="paint0_linear_4153_29434" x1="10.3347" y1="0.476562" x2="11.3618" y2="12.5158" gradientUnits="userSpaceOnUse">
<stop stop-color="#B39100"/>
<stop offset="1" stop-color="#B04C00"/>
</linearGradient>
<linearGradient id="paint1_linear_4153_29434" x1="6.41041" y1="21.4414" x2="7.07375" y2="29.0596" gradientUnits="userSpaceOnUse">
<stop stop-color="#B39100"/>
<stop offset="1" stop-color="#B04C00"/>
</linearGradient>
<linearGradient id="paint2_linear_4153_29434" x1="5.21353" y1="15.5352" x2="6.02608" y2="23.1241" gradientUnits="userSpaceOnUse">
<stop stop-color="#B39100"/>
<stop offset="1" stop-color="#B04C00"/>
</linearGradient>
<linearGradient id="paint3_linear_4153_29434" x1="6.52601" y1="9.63281" x2="7.17774" y2="17.2529" gradientUnits="userSpaceOnUse">
<stop stop-color="#B39100"/>
<stop offset="1" stop-color="#B04C00"/>
</linearGradient>
<linearGradient id="paint4_linear_4153_29434" x1="22.1433" y1="10.8086" x2="26.7884" y2="34.1421" gradientUnits="userSpaceOnUse">
<stop stop-color="#B39100"/>
<stop offset="1" stop-color="#B04C00"/>
</linearGradient>
</defs>
</svg>
