<svg width="58" height="57" viewBox="0 0 58 57" fill="none" xmlns="http://www.w3.org/2000/svg">
<path d="M36.3272 21.3345C54.5484 21.3345 53.2023 21.3307 53.4829 21.3415C53.3181 20.7122 52.9905 20.1169 52.4981 19.6245L47.5024 14.6288C46.4229 13.5492 44.7656 13.2353 43.3779 13.8482C42.6328 14.1775 41.7449 14.0113 41.1686 13.435C40.5923 12.8588 40.4263 11.9709 40.7553 11.2258C41.3682 9.8385 41.0545 8.18094 39.9747 7.10122L34.9792 2.10557C33.4984 0.625022 31.0892 0.624913 29.6085 2.10557L23.3584 8.35565C25.1197 10.1184 34.5704 19.5764 36.3272 21.3345Z" fill="url(#paint0_linear_1073_2635)"/>
<path d="M21.0291 10.6853L10.3799 21.3345H31.6682C31.6297 21.2958 30.815 20.4802 21.0291 10.6853Z" fill="url(#paint1_linear_1073_2635)"/>
<path d="M54.6398 38.9599C56.0541 38.4123 57.0044 37.0183 57.0044 35.4915V28.4266C57.0044 26.3327 55.3007 24.629 53.2067 24.629H45.4736V56.9996H53.2067C55.3007 56.9996 57.0044 55.296 57.0044 53.202V46.1372C57.0044 44.6104 56.0542 43.2164 54.6399 42.6687C53.8802 42.3744 53.3698 41.6292 53.3698 40.8142C53.3698 39.9993 53.8802 39.2541 54.6398 38.9599Z" fill="url(#paint2_linear_1073_2635)"/>
<path d="M0.998047 28.4266V35.4915C0.998047 37.0183 1.94829 38.4123 3.3625 38.9598C4.12221 39.2541 4.63253 39.9993 4.63253 40.8142C4.63253 41.6292 4.1221 42.3744 3.36239 42.6687C1.94818 43.2164 0.998047 44.6103 0.998047 46.1372V53.202C0.998047 55.296 2.70174 56.9996 4.79572 56.9996H42.1792V24.629H4.79572C2.70174 24.629 0.998047 26.3325 0.998047 28.4266H0.998047ZM12.5288 32.291H37.2374V35.5855H12.5288V32.291ZM12.5288 38.8799H37.2374V42.1744H12.5288V38.8799ZM12.5288 45.4689H37.2374V48.7634H12.5288V45.4689Z" fill="url(#paint3_linear_1073_2635)"/>
<defs>
<linearGradient id="paint0_linear_1073_2635" x1="38.4206" y1="0.995117" x2="42.1001" y2="28.36" gradientUnits="userSpaceOnUse">
<stop stop-color="#B39100"/>
<stop offset="1" stop-color="#B04C00"/>
</linearGradient>
<linearGradient id="paint1_linear_1073_2635" x1="21.0241" y1="10.6853" x2="22.4619" y2="25.1237" gradientUnits="userSpaceOnUse">
<stop stop-color="#B39100"/>
<stop offset="1" stop-color="#B04C00"/>
</linearGradient>
<linearGradient id="paint2_linear_1073_2635" x1="51.239" y1="24.629" x2="70.1148" y2="58.4038" gradientUnits="userSpaceOnUse">
<stop stop-color="#B39100"/>
<stop offset="1" stop-color="#B04C00"/>
</linearGradient>
<linearGradient id="paint3_linear_1073_2635" x1="21.5886" y1="24.629" x2="28.3588" y2="67.8935" gradientUnits="userSpaceOnUse">
<stop stop-color="#B39100"/>
<stop offset="1" stop-color="#B04C00"/>
</linearGradient>
</defs>
</svg>
