<svg width="26" height="21" viewBox="0 0 26 21" fill="none" xmlns="http://www.w3.org/2000/svg">
<path d="M12.9469 4.70038C14.1386 4.70038 15.1047 3.73429 15.1047 2.54257C15.1047 1.35085 14.1386 0.384766 12.9469 0.384766C11.7551 0.384766 10.7891 1.35085 10.7891 2.54257C10.7891 3.73429 11.7551 4.70038 12.9469 4.70038Z" fill="url(#paint0_linear_1092_20413)"/>
<path d="M23.7359 6.54217C24.9277 6.54217 25.8937 5.57609 25.8937 4.38437C25.8937 3.19264 24.9277 2.22656 23.7359 2.22656C22.5442 2.22656 21.5781 3.19264 21.5781 4.38437C21.5781 5.57609 22.5442 6.54217 23.7359 6.54217Z" fill="url(#paint1_linear_1092_20413)"/>
<path d="M2.1578 6.54217C3.34953 6.54217 4.31561 5.57609 4.31561 4.38437C4.31561 3.19264 3.34953 2.22656 2.1578 2.22656C0.966082 2.22656 0 3.19264 0 4.38437C0 5.57609 0.966082 6.54217 2.1578 6.54217Z" fill="url(#paint2_linear_1092_20413)"/>
<path d="M20.2875 6.16786L17.2178 8.67948L15.4209 5.53369C14.7484 6.09081 13.886 6.42616 12.9466 6.42616C12.0072 6.42616 11.1447 6.09081 10.4723 5.53369L8.67535 8.67948L5.60569 6.16786C4.9981 7.33716 3.81373 8.15977 2.43164 8.25673L3.82702 14.8848H22.0661L23.4615 8.25673C22.0794 8.15983 20.8951 7.33716 20.2875 6.16786Z" fill="url(#paint3_linear_1092_20413)"/>
<path d="M21.8647 19.2007V16.6113H4.02686V19.2007C4.02686 19.6774 4.4133 20.0638 4.88998 20.0638H21.0016C21.4783 20.0638 21.8647 19.6774 21.8647 19.2007Z" fill="url(#paint4_linear_1092_20413)"/>
<defs>
<linearGradient id="paint0_linear_1092_20413" x1="12.9469" y1="0.384766" x2="14.0784" y2="6.06871" gradientUnits="userSpaceOnUse">
<stop stop-color="#B39100"/>
<stop offset="1" stop-color="#B04C00"/>
</linearGradient>
<linearGradient id="paint1_linear_1092_20413" x1="23.7359" y1="2.22656" x2="24.8675" y2="7.91051" gradientUnits="userSpaceOnUse">
<stop stop-color="#B39100"/>
<stop offset="1" stop-color="#B04C00"/>
</linearGradient>
<linearGradient id="paint2_linear_1092_20413" x1="2.15781" y1="2.22656" x2="3.28933" y2="7.91051" gradientUnits="userSpaceOnUse">
<stop stop-color="#B39100"/>
<stop offset="1" stop-color="#B04C00"/>
</linearGradient>
<linearGradient id="paint3_linear_1092_20413" x1="12.9466" y1="5.53369" x2="14.0712" y2="18.2382" gradientUnits="userSpaceOnUse">
<stop stop-color="#B39100"/>
<stop offset="1" stop-color="#B04C00"/>
</linearGradient>
<linearGradient id="paint4_linear_1092_20413" x1="12.9458" y1="16.6113" x2="13.1277" y2="21.3317" gradientUnits="userSpaceOnUse">
<stop stop-color="#B39100"/>
<stop offset="1" stop-color="#B04C00"/>
</linearGradient>
</defs>
</svg>
