<svg width="40" height="40" viewBox="0 0 40 40" fill="none" xmlns="http://www.w3.org/2000/svg">
<path d="M35.0554 33.1788C37.8497 29.9879 39.6347 25.8182 39.9329 21.3274L37.3453 20L39.9329 18.6726C39.6347 14.1818 37.8497 10.0121 35.0554 6.82124L33.0674 6.93142L33.1782 4.94416C29.9875 2.14992 25.818 0.365402 21.3276 0.0672607L20.0001 2.65487L18.6727 0.0672607C14.1823 0.365402 10.0128 2.15 6.82198 4.94416L6.93278 6.93142L4.94473 6.82124C2.15057 10.0121 0.365524 14.1818 0.0673828 18.6726L2.65499 20L0.0673828 21.3274C0.365524 25.8182 2.15057 29.9879 4.94482 33.1788L6.93287 33.0686L6.82207 35.0558C10.0128 37.8501 14.1823 39.6346 18.6728 39.9327L20.0001 37.3451L21.3276 39.9327C25.818 39.6346 29.9875 37.85 33.1783 35.0558L33.0675 33.0686L35.0554 33.1788Z" fill="url(#paint0_linear_1073_2966)"/>
<path d="M3.9823 18.6726H0.0672567C0.0379646 19.1133 0 19.5519 0 20C0 20.4481 0.0378761 20.8867 0.0672567 21.3274H3.9823C4.71602 21.3274 5.30973 20.7337 5.30973 20C5.30973 19.2663 4.71602 18.6726 3.9823 18.6726ZM9.58761 9.58628C10.1061 9.06779 10.1061 8.2277 9.58761 7.7092L6.82195 4.94416C6.15513 5.52796 5.52867 6.15442 4.94469 6.82124L7.71053 9.58628C8.22903 10.1049 9.06903 10.1049 9.58761 9.58628ZM20 5.30973C20.7337 5.30973 21.3274 4.71602 21.3274 3.9823V0.0672567C20.8867 0.0379646 20.4481 0 20 0C19.5519 0 19.1133 0.0378761 18.6726 0.0672567V3.9823C18.6726 4.71602 19.2663 5.30973 20 5.30973ZM32.2895 9.58628L35.0553 6.82124C34.4713 6.15442 33.8449 5.52796 33.1781 4.94416L30.4124 7.7092C29.8939 8.2277 29.8939 9.06779 30.4124 9.58628C30.9309 10.1048 31.771 10.1049 32.2895 9.58628ZM20 7.9646C13.4121 7.9646 7.9646 13.4121 7.9646 20C7.9646 26.5879 13.4121 32.0354 20 32.0354C26.5879 32.0354 32.0354 26.5879 32.0354 20C32.0354 13.4121 26.5879 7.9646 20 7.9646ZM25.976 19.309L23.9512 21.2834L24.4308 24.0718C24.5164 24.5696 24.3115 25.0726 23.9019 25.3694C23.5073 25.6575 22.9661 25.7135 22.5044 25.4705L20 24.1547L17.4955 25.4704C17.0496 25.7064 16.5077 25.6675 16.0981 25.3693C15.6884 25.0725 15.4836 24.5695 15.5691 24.0717L16.0488 21.2833L14.0239 19.3089C13.6609 18.9564 13.5313 18.4288 13.6868 17.9491C13.8424 17.4681 14.2598 17.1181 14.7576 17.0456L17.5577 16.6385L18.8099 14.1029C19.2558 13.1955 20.744 13.1955 21.19 14.1029L22.4422 16.6385L25.2423 17.0456C25.7401 17.1181 26.1575 17.4681 26.3131 17.9491C26.4687 18.4288 26.339 18.9565 25.976 19.309ZM30.4124 30.4137C29.8939 30.9322 29.8939 31.7723 30.4124 32.2908L33.1781 35.0558C33.8449 34.472 34.4713 33.8456 35.0553 33.1788L32.2895 30.4137C31.771 29.8951 30.931 29.8951 30.4124 30.4137ZM7.71053 30.4137L4.94469 33.1788C5.52867 33.8456 6.15513 34.472 6.82195 35.0558L9.58761 32.2908C10.1061 31.7723 10.1061 30.9322 9.58761 30.4137C9.06911 29.8952 8.22903 29.8951 7.71053 30.4137ZM39.9327 18.6726H36.0177C35.284 18.6726 34.6903 19.2663 34.6903 20C34.6903 20.7337 35.284 21.3274 36.0177 21.3274H39.9327C39.962 20.8867 40 20.4481 40 20C40 19.5519 39.9621 19.1133 39.9327 18.6726ZM20 34.6903C19.2663 34.6903 18.6726 35.284 18.6726 36.0177V39.9327C19.1133 39.962 19.5519 40 20 40C20.4481 40 20.8867 39.9621 21.3274 39.9327V36.0177C21.3274 35.284 20.7337 34.6903 20 34.6903Z" fill="url(#paint1_linear_1073_2966)"/>
<defs>
<linearGradient id="paint0_linear_1073_2966" x1="20.0001" y1="42.6549" x2="20.0001" y2="-2.65486" gradientUnits="userSpaceOnUse">
<stop stop-color="#B03E00"/>
<stop offset="1" stop-color="#B39B00"/>
</linearGradient>
<linearGradient id="paint1_linear_1073_2966" x1="20" y1="40" x2="20" y2="0" gradientUnits="userSpaceOnUse">
<stop stop-color="#CCB77B"/>
<stop offset="1" stop-color="#CCCCAA"/>
</linearGradient>
</defs>
</svg>
