<svg width="56" height="56" viewBox="0 0 56 56" fill="none" xmlns="http://www.w3.org/2000/svg">
<g clip-path="url(#clip0_7418_34454)">
<path d="M28.4766 0.697266C13.3137 0.697266 0.976562 13.0344 0.976562 28.1973C0.976562 43.3602 13.3137 55.6973 28.4766 55.6973C43.6395 55.6973 55.9766 43.3602 55.9766 28.1973C55.9766 13.0344 43.6395 0.697266 28.4766 0.697266ZM43.8462 20.9604L26.2711 38.3978C25.2372 39.4316 23.5831 39.5005 22.4803 38.4667L13.1758 29.9892C12.0731 28.9554 12.0041 27.2324 12.969 26.1296C14.0029 25.0268 15.7259 24.9579 16.8287 25.9918L24.2034 32.7461L39.9177 17.0319C41.0204 15.9291 42.7435 15.9291 43.8462 17.0319C44.949 18.1346 44.949 19.8577 43.8462 20.9604Z" fill="url(#paint0_linear_7418_34454)"/>
<g clip-path="url(#clip1_7418_34454)">
<path d="M47.625 37.2708C46.7796 37.2708 45.9689 36.9613 45.3711 36.4105C44.7733 35.8596 44.4375 35.1124 44.4375 34.3333V24.8119C44.5602 21.0932 43.2351 17.4568 40.7018 14.56C38.1685 11.6633 34.5941 9.69748 30.625 9.01796V4.95833C30.625 4.43895 30.4011 3.94084 30.0026 3.57358C29.6041 3.20632 29.0636 3 28.5 3C27.9364 3 27.3959 3.20632 26.9974 3.57358C26.5989 3.94084 26.375 4.43895 26.375 4.95833V9.01796C22.4059 9.69748 18.8315 11.6633 16.2982 14.56C13.7649 17.4568 12.4398 21.0932 12.5625 24.8119V34.3333C12.5625 35.1124 12.2267 35.8596 11.6289 36.4105C11.0311 36.9613 10.2204 37.2708 9.375 37.2708C8.81141 37.2708 8.27091 37.4772 7.8724 37.8444C7.47388 38.2117 7.25 38.7098 7.25 39.2292C7.25 39.7486 7.47388 40.2467 7.8724 40.6139C8.27091 40.9812 8.81141 41.1875 9.375 41.1875H47.625C48.1886 41.1875 48.7291 40.9812 49.1276 40.6139C49.5261 40.2467 49.75 39.7486 49.75 39.2292C49.75 38.7098 49.5261 38.2117 49.1276 37.8444C48.7291 37.4772 48.1886 37.2708 47.625 37.2708Z" fill="#01060E"/>
<path d="M33.2515 44.125H23.7485C23.6181 44.1252 23.4923 44.1696 23.3951 44.2498C23.2979 44.33 23.2361 44.4403 23.2215 44.5598C23.1984 44.7404 23.187 44.9222 23.1875 45.1042C23.1875 46.4026 23.7472 47.6479 24.7435 48.5661C25.7398 49.4842 27.0911 50 28.5 50C29.909 50 31.2602 49.4842 32.2565 48.5661C33.2528 47.6479 33.8125 46.4026 33.8125 45.1042C33.813 44.9222 33.8017 44.7404 33.7785 44.5598C33.7648 44.44 33.7033 44.3291 33.6059 44.2488C33.5085 44.1685 33.3822 44.1243 33.2515 44.125Z" fill="#01060E"/>
</g>
</g>
<defs>
<linearGradient id="paint0_linear_7418_34454" x1="10.575" y1="5.77303" x2="55.0401" y2="52.8224" gradientUnits="userSpaceOnUse">
<stop stop-color="#FEC900"/>
<stop offset="1" stop-color="#FD8900"/>
</linearGradient>
<clipPath id="clip0_7418_34454">
<rect width="55" height="55" fill="white" transform="translate(0.976562 0.697266)"/>
</clipPath>
<clipPath id="clip1_7418_34454">
<rect width="51" height="47" fill="white" transform="translate(3 3)"/>
</clipPath>
</defs>
</svg>
