<svg width="43" height="40" viewBox="0 0 43 40" fill="none" xmlns="http://www.w3.org/2000/svg">
<path d="M11.6181 25.4318C7.71904 25.4318 4.54688 22.4957 4.54688 18.8868C4.54688 15.2779 7.71904 12.3418 11.6181 12.3418C15.5172 12.3418 18.6894 15.2779 18.6894 18.8868C18.6894 22.4957 15.5173 25.4318 11.6181 25.4318Z" fill="url(#paint0_linear_6990_33144)"/>
<path fill-rule="evenodd" clip-rule="evenodd" d="M22.4366 26.1138C24.1716 26.7703 26.0458 27.115 27.9816 27.115C36.0582 27.115 42.6291 21.0331 42.6291 13.5575C42.6291 6.0819 36.0582 0 27.9816 0C21.3202 0 15.6833 4.13682 13.9121 9.78067C14.8449 9.98204 15.7285 10.3034 16.5428 10.7261C17.7911 6.00632 22.3937 2.504 27.8806 2.504C34.3268 2.504 39.5525 7.33798 39.5525 13.301C39.5525 19.264 34.3268 24.098 27.8806 24.098C25.3544 24.098 23.0156 23.3556 21.1054 22.0937C20.8191 22.8162 20.4391 23.4972 19.9793 24.1241C20.4257 24.7138 21.3627 25.4076 22.4366 26.1138ZM21.6438 20.0254C23.3072 21.3095 25.4674 22.098 27.8806 22.098C33.3718 22.098 37.5525 18.0156 37.5525 13.301C37.5525 8.58642 33.3718 4.504 27.8806 4.504C22.9392 4.504 19.059 7.80997 18.3316 11.9076C20.4086 13.6212 21.7185 16.1152 21.7185 18.887C21.7185 19.2723 21.6931 19.6522 21.6438 20.0254ZM27.5869 9.38902C27.9001 8.49755 29.1608 8.49755 29.4739 9.38902L29.897 10.5935C30.0377 10.9941 30.4159 11.2621 30.8405 11.2621H32.0335C33.0209 11.2621 33.4109 12.5413 32.5913 13.0921L31.7636 13.6484C31.3855 13.9025 31.227 14.3799 31.3779 14.8097L31.7251 15.798C32.0439 16.7058 31.0223 17.4961 30.2238 16.9594L29.0882 16.1962C28.7509 15.9695 28.3099 15.9695 27.9726 16.1962L26.8371 16.9594C26.0385 17.4961 25.0169 16.7058 25.3358 15.798L25.6829 14.8097C25.8339 14.3799 25.6753 13.9025 25.2972 13.6484L24.4696 13.0921C23.65 12.5413 24.0399 11.2621 25.0274 11.2621H26.2204C26.6449 11.2621 27.0232 10.9941 27.1639 10.5935L27.5869 9.38902Z" fill="url(#paint1_linear_6990_33144)"/>
<path d="M17.8954 26.207C16.1702 27.4774 13.9879 28.2377 11.617 28.2377C9.24626 28.2377 7.06387 27.4774 5.33869 26.207C2.12935 28.1225 0 31.4604 0 35.2502V38.0552C0 38.8297 0.678436 39.4577 1.51527 39.4577H21.7188C22.5557 39.4577 23.2341 38.8297 23.2341 38.0552V35.2502C23.2341 31.4604 21.1047 28.1226 17.8954 26.207Z" fill="url(#paint2_linear_6990_33144)"/>
<defs>
<linearGradient id="paint0_linear_6990_33144" x1="11.6181" y1="12.3418" x2="14.8123" y2="29.6769" gradientUnits="userSpaceOnUse">
<stop stop-color="#B39100"/>
<stop offset="1" stop-color="#B04C00"/>
</linearGradient>
<linearGradient id="paint1_linear_6990_33144" x1="28.2706" y1="-2.11877e-07" x2="35.0113" y2="35.8606" gradientUnits="userSpaceOnUse">
<stop stop-color="#B39100"/>
<stop offset="1" stop-color="#B04C00"/>
</linearGradient>
<linearGradient id="paint2_linear_6990_33144" x1="11.617" y1="26.207" x2="13.6508" y2="44.1198" gradientUnits="userSpaceOnUse">
<stop stop-color="#B39100"/>
<stop offset="1" stop-color="#B04C00"/>
</linearGradient>
</defs>
</svg>
