<svg width="30" height="33" viewBox="0 0 30 33" fill="none" xmlns="http://www.w3.org/2000/svg">
<path d="M6.07952 0C4.15421 0 2.58789 1.56632 2.58789 3.49169C2.58789 5.41706 4.15421 6.98338 6.07958 6.98338C8.00495 6.98338 9.57128 5.41706 9.57128 3.49169C9.57128 1.56632 8.00489 0 6.07952 0Z" fill="url(#paint0_linear_4092_30075)"/>
<path d="M8.39402 7.0625H3.6888C2.19318 7.0625 0.976562 8.27912 0.976562 9.77474V13.6622C0.976562 14.2979 1.49197 14.8132 2.12763 14.8132H9.95512C10.5908 14.8132 11.1062 14.2978 11.1062 13.6622V9.77474C11.1063 8.27918 9.88964 7.0625 8.39402 7.0625Z" fill="url(#paint1_linear_4092_30075)"/>
<path d="M24.2671 18.1875C22.3418 18.1875 20.7754 19.7538 20.7754 21.6792C20.7754 23.6045 22.3417 25.1709 24.2671 25.1709C26.1925 25.1709 27.7588 23.6046 27.7588 21.6792C27.7587 19.7539 26.1924 18.1875 24.2671 18.1875Z" fill="url(#paint2_linear_4092_30075)"/>
<path d="M26.6596 25.25H21.9544C20.4589 25.25 19.2422 26.4666 19.2422 27.9622V31.8497C19.2422 32.4854 19.7576 33.0007 20.3933 33.0007H28.2207C28.8565 33.0007 29.3718 32.4853 29.3718 31.8497V27.9622C29.3719 26.4666 28.1553 25.25 26.6596 25.25Z" fill="url(#paint3_linear_4092_30075)"/>
<path d="M25.2386 14.5345C24.3063 9.73192 20.0738 6.24609 15.1745 6.24609C14.5388 6.24609 14.0234 6.7615 14.0234 7.39717C14.0234 8.0329 14.5388 8.54824 15.1745 8.54824C18.9738 8.54824 22.2559 11.2504 22.9785 14.9732C23.0853 15.5232 23.5672 15.9052 24.1072 15.9052C24.18 15.9052 24.2538 15.8983 24.3279 15.8838C24.952 15.7627 25.3598 15.1586 25.2386 14.5345Z" fill="url(#paint4_linear_4092_30075)"/>
<path d="M15.1732 24.4507C11.374 24.4507 8.09187 21.7486 7.3692 18.0258C7.2481 17.4017 6.64362 16.9938 6.01988 17.1151C5.39575 17.2362 4.98804 17.8404 5.10921 18.4644C6.04153 23.267 10.274 26.7528 15.1733 26.7528C15.809 26.7528 16.3243 26.2375 16.3243 25.6018C16.3243 24.9661 15.809 24.4507 15.1732 24.4507Z" fill="url(#paint5_linear_4092_30075)"/>
<defs>
<linearGradient id="paint0_linear_4092_30075" x1="6.07958" y1="-5.45681e-08" x2="7.91059" y2="9.19759" gradientUnits="userSpaceOnUse">
<stop stop-color="#B39100"/>
<stop offset="1" stop-color="#B04C00"/>
</linearGradient>
<linearGradient id="paint1_linear_4092_30075" x1="6.04138" y1="7.0625" x2="7.62129" y2="17.4346" gradientUnits="userSpaceOnUse">
<stop stop-color="#B39100"/>
<stop offset="1" stop-color="#B04C00"/>
</linearGradient>
<linearGradient id="paint2_linear_4092_30075" x1="24.2671" y1="18.1875" x2="26.0981" y2="27.3851" gradientUnits="userSpaceOnUse">
<stop stop-color="#B39100"/>
<stop offset="1" stop-color="#B04C00"/>
</linearGradient>
<linearGradient id="paint3_linear_4092_30075" x1="24.307" y1="25.25" x2="25.8869" y2="35.6221" gradientUnits="userSpaceOnUse">
<stop stop-color="#B39100"/>
<stop offset="1" stop-color="#B04C00"/>
</linearGradient>
<linearGradient id="paint4_linear_4092_30075" x1="19.6417" y1="6.24609" x2="21.8406" y2="19.0956" gradientUnits="userSpaceOnUse">
<stop stop-color="#B39100"/>
<stop offset="1" stop-color="#B04C00"/>
</linearGradient>
<linearGradient id="paint5_linear_4092_30075" x1="10.7061" y1="17.0937" x2="12.905" y2="29.9432" gradientUnits="userSpaceOnUse">
<stop stop-color="#B39100"/>
<stop offset="1" stop-color="#B04C00"/>
</linearGradient>
</defs>
</svg>
