<svg width="24" height="25" viewBox="0 0 24 25" fill="none" xmlns="http://www.w3.org/2000/svg">
<path d="M9.79715 3.86988C9.79715 2.57754 10.8486 1.52613 12.1409 1.52613H12.952L12.7073 0.845977C12.5698 0.463477 12.2093 0.225586 11.8251 0.225586C11.7186 0.225586 11.6104 0.243867 11.5045 0.282398L3.30829 3.26557C2.82102 3.44295 2.57024 3.98215 2.74865 4.46904L3.18172 5.65113H9.79715V3.86988Z" fill="url(#paint0_linear_1092_20393)"/>
<path d="M12.1406 2.93262C11.6228 2.93262 11.2031 3.35234 11.2031 3.87012V5.65137H19.4062V3.87012C19.4062 3.35234 18.9865 2.93262 18.4688 2.93262H12.1406Z" fill="url(#paint1_linear_1092_20393)"/>
<path d="M21.8906 19.1748H18.6094C16.6709 19.1748 15.0938 17.5977 15.0938 15.6592C15.0938 13.7207 16.6709 12.1436 18.6094 12.1436H21.8906V8.93262C21.8906 7.8971 21.0511 7.05762 20.0156 7.05762H1.875C0.839484 7.05762 0 7.8971 0 8.93262V22.3508C0 23.3863 0.839484 24.2258 1.875 24.2258H20.0156C21.0511 24.2258 21.8906 23.3863 21.8906 22.3508V19.1748Z" fill="url(#paint2_linear_1092_20393)"/>
<path d="M23.2969 13.5498H18.6094C17.4463 13.5498 16.5 14.4961 16.5 15.6592C16.5 16.8223 17.4463 17.7686 18.6094 17.7686H23.2969C23.6846 17.7686 24 17.4531 24 17.0654V14.2529C24 13.8652 23.6846 13.5498 23.2969 13.5498ZM18.6094 16.3623C18.2211 16.3623 17.9062 16.0475 17.9062 15.6592C17.9062 15.2709 18.2211 14.9561 18.6094 14.9561C18.9977 14.9561 19.3125 15.2709 19.3125 15.6592C19.3125 16.0475 18.9977 16.3623 18.6094 16.3623Z" fill="url(#paint3_linear_1092_20393)"/>
<defs>
<linearGradient id="paint0_linear_1092_20393" x1="7.82159" y1="0.225586" x2="8.59502" y2="7.57318" gradientUnits="userSpaceOnUse">
<stop stop-color="#B39100"/>
<stop offset="1" stop-color="#B04C00"/>
</linearGradient>
<linearGradient id="paint1_linear_1092_20393" x1="15.3047" y1="2.93262" x2="15.5492" y2="6.63917" gradientUnits="userSpaceOnUse">
<stop stop-color="#B39100"/>
<stop offset="1" stop-color="#B04C00"/>
</linearGradient>
<linearGradient id="paint2_linear_1092_20393" x1="10.9453" y1="7.05762" x2="14.5282" y2="30.006" gradientUnits="userSpaceOnUse">
<stop stop-color="#B39100"/>
<stop offset="1" stop-color="#B04C00"/>
</linearGradient>
<linearGradient id="paint3_linear_1092_20393" x1="20.25" y1="13.5498" x2="20.8888" y2="19.2548" gradientUnits="userSpaceOnUse">
<stop stop-color="#B39100"/>
<stop offset="1" stop-color="#B04C00"/>
</linearGradient>
</defs>
</svg>
