<svg width="12" height="16" viewBox="0 0 12 16" fill="none" xmlns="http://www.w3.org/2000/svg">
<path d="M5.33083 0.275571L0.350682 4.80072C0.245106 4.89726 0.185747 5.03156 0.186463 5.17355L0.201579 8.17352C0.202572 8.37051 0.319539 8.54893 0.500049 8.62902C0.681554 8.7081 0.892507 8.67404 1.03792 8.54131L5.6854 4.31884L10.3742 8.49426C10.5219 8.62552 10.7332 8.65846 10.9129 8.57655C11.0936 8.49464 11.2088 8.31505 11.2078 8.11806L11.1927 5.1181C11.1919 4.9761 11.1302 4.84241 11.0257 4.74693L6.0002 0.272198C5.80923 0.102158 5.51907 0.10362 5.33083 0.275571Z" fill="#A3833F"/>
<path d="M5.36403 6.77581L0.383885 11.301C0.278309 11.3975 0.21895 11.5318 0.219666 11.6738L0.234782 14.6738C0.235775 14.8708 0.352742 15.0492 0.533252 15.1293C0.714757 15.2083 0.92571 15.1743 1.07113 15.0416L5.7186 10.8191L10.4074 14.9945C10.5551 15.1258 10.7664 15.1587 10.9461 15.0768C11.1268 14.9949 11.242 14.8153 11.241 14.6183L11.2259 11.6183C11.2252 11.4763 11.1634 11.3426 11.0589 11.2472L6.03341 6.77244C5.84244 6.6024 5.55227 6.60386 5.36403 6.77581Z" fill="#A3833F"/>
</svg>
