<svg width="12" height="16" viewBox="0 0 12 16" fill="none" xmlns="http://www.w3.org/2000/svg">
<path d="M6.2354 15.0069L11.1151 10.3737C11.2186 10.2749 11.275 10.1393 11.2711 9.99734L11.1903 6.99843C11.1849 6.8015 11.0641 6.62569 10.8819 6.54958C10.6987 6.47449 10.4885 6.51317 10.346 6.64906L5.79227 10.9724L1.01306 6.90079C0.862472 6.77281 0.650511 6.74451 0.472656 6.83034C0.293802 6.91619 0.182604 7.09826 0.187915 7.29519L0.268803 10.2941C0.272631 10.436 0.337257 10.5683 0.443868 10.6615L5.56626 15.025C5.76091 15.1908 6.05097 15.183 6.2354 15.0069Z" fill="#A3833F"/>
<path d="M6.0606 8.50889L10.9403 3.87563C11.0438 3.77681 11.1002 3.64124 11.0963 3.49929L11.0154 0.50038C11.0101 0.303452 10.8893 0.127646 10.7071 0.0515319C10.5239 -0.023556 10.3137 0.0151244 10.1712 0.151015L5.61747 4.47437L0.838258 0.402747C0.687668 0.274761 0.475706 0.246465 0.297851 0.332292C0.118997 0.418145 0.007799 0.60021 0.0131106 0.797138L0.093998 3.79605C0.0978267 3.938 0.162453 4.0703 0.269063 4.16346L5.39146 8.52694C5.58611 8.69275 5.87617 8.68493 6.0606 8.50889Z" fill="#A3833F"/>
</svg>
