<svg width="83" height="62" viewBox="0 0 83 62" fill="none" xmlns="http://www.w3.org/2000/svg">
<path d="M81.0639 23.8042C81.0525 23.6292 81.0116 23.4571 80.9479 23.2955C79.614 16.1796 73.5308 11.7716 65.7 11.7716C62.8972 11.7716 58.9004 10.9015 55.7799 16.4655H41.5661C41.7764 13.6849 42.4852 12.3998 43.29 11.2466C44.4736 9.54942 45.8179 7.45538 45.8179 1.8244C45.8179 0.862479 45.0463 0 44.0892 0C43.1321 0 42.3605 0.73435 42.3605 1.6934C42.3605 6.22668 41.4805 7.80916 40.4568 9.275C39.4645 10.6988 38.3495 10.9043 38.0945 16.4655H27.2097C24.0891 10.9043 20.0914 11.7716 17.2896 11.7716C9.4939 11.7716 3.19476 16.8107 1.95796 24.4219C1.36905 32.1307 0 50.04 0 50.6204C0 56.7056 4.84637 62 10.3739 62C15.3173 62 18.534 60.1479 19.9392 56.5526C19.9592 56.5191 19.9782 56.4742 19.9925 56.4388L23.563 48.0397C25.0129 49.147 26.9937 50.5067 29.3922 50.5067C33.6544 50.5067 37.6131 47.0529 39.1325 44.2723H43.8761C45.365 47.0529 49.2372 50.0094 53.605 50.0094C55.9406 50.0094 57.852 49.386 59.398 48.4681L63.019 56.5354C63.0332 56.566 63.0494 56.5469 63.0637 56.5832C64.4689 60.1727 67.6855 61.9723 72.627 61.9723C78.245 61.9723 83 56.9552 83 51.0354C82.9895 50.4598 81.6452 31.797 81.0639 23.8042ZM20.7469 33.1462H16.5979V36.6219C16.5979 37.5867 16.1717 38.3602 15.2146 38.3602C14.2575 38.3602 13.8313 37.5867 13.8313 36.6219V33.1452H10.3739C9.41683 33.1452 8.64431 32.7207 8.64431 31.7549C8.64431 30.793 9.41683 30.3646 10.3739 30.3646H13.8313V26.1937C13.8313 25.2309 14.2575 24.4554 15.2146 24.4554C16.1717 24.4554 16.5979 25.2337 16.5979 26.1937V30.3646H20.7469C21.704 30.3646 22.4765 30.793 22.4765 31.7549C22.4765 32.7207 21.704 33.1452 20.7469 33.1452V33.1462ZM38.0365 33.1462H34.5791C33.622 33.1462 32.8495 32.7207 32.8495 31.7549C32.8495 30.793 33.622 30.3646 34.5791 30.3646H38.0365C38.9936 30.3646 39.7651 30.793 39.7651 31.7549C39.7651 32.7207 38.9936 33.1462 38.0365 33.1462ZM48.4104 33.1462H44.9521C43.995 33.1462 43.2234 32.7207 43.2234 31.7549C43.2234 30.793 43.995 30.3646 44.9521 30.3646H48.4104C49.3675 30.3646 50.1391 30.793 50.1391 31.7549C50.1391 32.7207 49.3675 33.1462 48.4104 33.1462ZM58.7843 40.0976C56.8778 40.0976 55.326 38.541 55.326 36.6219C55.326 34.7086 56.8778 33.1452 58.7843 33.1452C60.6928 33.1452 62.2417 34.7086 62.2417 36.6219C62.2417 38.5438 60.6928 40.0976 58.7843 40.0976ZM58.7843 29.6695C56.8778 29.6695 55.326 28.1147 55.326 26.1937C55.326 24.2775 56.8778 22.717 58.7843 22.717C60.6928 22.717 62.2417 24.2775 62.2417 26.1937C62.2417 28.1147 60.6928 29.6695 58.7843 29.6695ZM69.1573 40.0976C67.2517 40.0976 65.7 38.541 65.7 36.6219C65.7 34.7086 67.2517 33.1452 69.1573 33.1452C71.0667 33.1452 72.6156 34.7086 72.6156 36.6219C72.6156 38.5438 71.0667 40.0976 69.1573 40.0976ZM69.1573 29.6695C67.2517 29.6695 65.7 28.1147 65.7 26.1937C65.7 24.2775 67.2517 22.717 69.1573 22.717C71.0667 22.717 72.6156 24.2775 72.6156 26.1937C72.6156 28.1147 71.0667 29.6695 69.1573 29.6695Z" fill="url(#paint0_linear_7247_40825)" />
<defs>
<linearGradient id="paint0_linear_7247_40825" x1="16.5" y1="0" x2="16.5" y2="22" gradientUnits="userSpaceOnUse">
<stop stop-color="#4F440F"/>
<stop offset="0.767984" stop-color="#9A6204"/>
<stop offset="1" stop-color="#B16B01"/>
</linearGradient>
</defs>
</svg>
