<svg width="61" height="59" viewBox="0 0 61 59" fill="none" xmlns="http://www.w3.org/2000/svg">
<path d="M27.8341 45.1925C30.0123 42.6899 31.4038 39.4195 31.6362 35.8973L29.6191 34.8562L31.6362 33.8151C31.4038 30.2929 30.0123 27.0226 27.8341 24.5199L26.2844 24.6063L26.3707 23.0477C23.8835 20.8561 20.6333 19.4565 17.1329 19.2227L16.0981 21.2522L15.0634 19.2227C11.5629 19.4565 8.31274 20.8562 5.82544 23.0477L5.9118 24.6063L4.36207 24.5199C2.18395 27.0226 0.792467 30.2929 0.560059 33.8151L2.57716 34.8562L0.560059 35.8973C0.792467 39.4195 2.18395 42.6899 4.36214 45.1925L5.91187 45.1061L5.8255 46.6647C8.31274 48.8563 11.5629 50.2559 15.0634 50.4898L16.0981 48.4603L17.1329 50.4898C20.6333 50.2559 23.8835 48.8562 26.3708 46.6647L26.2844 45.1061L27.8341 45.1925Z" fill="url(#paint0_linear_1305_4785)"/>
<path d="M3.61187 33.8161H0.559997C0.537163 34.1617 0.507568 34.5058 0.507568 34.8572C0.507568 35.2086 0.537094 35.5527 0.559997 35.8983H3.61187C4.18382 35.8983 4.64664 35.4327 4.64664 34.8572C4.64664 34.2817 4.18382 33.8161 3.61187 33.8161ZM7.98134 26.6896C8.38552 26.2829 8.38552 25.624 7.98134 25.2173L5.82544 23.0487C5.30564 23.5066 4.8173 23.9979 4.36208 24.5209L6.51812 26.6896C6.9223 27.0963 7.5771 27.0963 7.98134 26.6896ZM16.0981 23.3354C16.67 23.3354 17.1328 22.8697 17.1328 22.2943V19.2236C16.7893 19.2007 16.4473 19.1709 16.0981 19.1709C15.7488 19.1709 15.4068 19.2006 15.0633 19.2236V22.2943C15.0633 22.8697 15.5261 23.3354 16.0981 23.3354ZM25.678 26.6896L27.834 24.5209C27.3788 23.9979 26.8905 23.5066 26.3707 23.0487L24.2148 25.2173C23.8106 25.624 23.8106 26.2829 24.2148 26.6896C24.6189 27.0962 25.2738 27.0963 25.678 26.6896ZM16.0981 25.4177C10.9626 25.4177 6.71617 29.6902 6.71617 34.8572C6.71617 40.0242 10.9626 44.2968 16.0981 44.2968C21.2335 44.2968 25.4799 40.0242 25.4799 34.8572C25.4799 29.6902 21.2335 25.4177 16.0981 25.4177ZM20.7565 34.3153L19.1781 35.8638L19.552 38.0508C19.6187 38.4412 19.459 38.8357 19.1397 39.0685C18.8321 39.2945 18.4102 39.3384 18.0503 39.1478L16.0981 38.1158L14.1457 39.1478C13.7981 39.3328 13.3757 39.3023 13.0564 39.0684C12.7371 38.8356 12.5774 38.4411 12.6441 38.0507L13.018 35.8637L11.4395 34.3152C11.1566 34.0387 11.0556 33.6249 11.1768 33.2487C11.298 32.8714 11.6234 32.5969 12.0115 32.54L14.1942 32.2207L15.1704 30.232C15.518 29.5203 16.678 29.5203 17.0257 30.232L18.0018 32.2207L20.1846 32.54C20.5726 32.5969 20.898 32.8714 21.0193 33.2487C21.1405 33.6249 21.0395 34.0387 20.7565 34.3153ZM24.2148 43.0248C23.8106 43.4315 23.8106 44.0904 24.2148 44.4971L26.3707 46.6657C26.8905 46.2078 27.3788 45.7165 27.834 45.1935L25.678 43.0248C25.2738 42.6181 24.619 42.6181 24.2148 43.0248ZM6.51812 43.0248L4.36208 45.1935C4.8173 45.7165 5.30564 46.2078 5.82544 46.6657L7.98134 44.4971C8.38552 44.0904 8.38552 43.4315 7.98134 43.0248C7.57717 42.6182 6.9223 42.6181 6.51812 43.0248ZM31.6361 33.8161H28.5842C28.0123 33.8161 27.5495 34.2817 27.5495 34.8572C27.5495 35.4327 28.0123 35.8983 28.5842 35.8983H31.6361C31.659 35.5527 31.6885 35.2086 31.6885 34.8572C31.6885 34.5058 31.659 34.1617 31.6361 33.8161ZM16.0981 46.379C15.5261 46.379 15.0633 46.8447 15.0633 47.4201V50.4908C15.4068 50.5137 15.7488 50.5435 16.0981 50.5435C16.4473 50.5435 16.7893 50.5138 17.1328 50.4908V47.4201C17.1328 46.8447 16.67 46.379 16.0981 46.379Z" fill="url(#paint1_linear_1305_4785)"/>
<path d="M23.1198 4.6729L16.6824 6.26851C20.2587 5.27813 29.0071 10.5602 29.4473 10.8353L35.8848 9.18463C35.4446 8.90953 26.6962 3.6275 23.1198 4.6729Z" fill="#D69B00"/>
<path d="M21.3039 9.51514C19.2681 7.20426 20.0384 4.61826 22.4594 3.95801C15.7468 5.66366 14.8114 5.60864 14.0411 7.14923C13.3809 8.52476 13.9311 10.0103 14.9215 11.1658C17.3424 13.9168 28.1816 11.771 28.7318 11.661L35.1142 10.0103C34.564 10.1204 23.7249 12.2662 21.3039 9.51514Z" fill="url(#paint2_linear_1305_4785)"/>
<path d="M22.4593 3.95803C23.2296 3.73795 24.1099 3.73795 25.1553 3.95803C29.447 4.89339 35.9945 9.01998 36.3246 9.24006H35.8844C35.4443 8.96496 26.6959 3.68293 23.1195 4.67331C22.9545 4.72833 22.7894 4.78335 22.6244 4.89339C19.3781 6.76411 21.689 10.0104 26.3108 10.3955C30.8775 10.7807 35.0041 10.0654 35.1692 10.0104C34.619 10.1204 23.7248 12.2662 21.3589 9.51517C19.2681 7.20428 20.0384 4.61829 22.4593 3.95803Z" fill="#FFC01A"/>
<path d="M44.9621 3.29398C44.9071 3.29398 44.8521 3.29398 44.797 3.34901C41.6608 4.17432 36.764 10.0066 34.7832 12.5375L42.3211 14.6834C44.1368 12.2624 50.1891 4.99964 53.2153 5.32977C53.4354 5.32977 53.6555 5.38479 53.8755 5.43981C45.7324 3.18394 45.8425 3.0739 44.9621 3.29398Z" fill="#D69B00"/>
<path d="M54.4264 4.5052L46.8885 2.35938C49.2544 3.01963 49.1994 6.54098 47.1636 8.30166C44.6877 10.4475 38.9105 12.1531 35.7192 12.9234L43.2571 15.0693C46.3933 14.354 54.3714 12.0981 55.7469 9.182C56.5172 7.47634 56.4072 5.05541 54.4264 4.5052Z" fill="url(#paint3_linear_1305_4785)"/>
<path d="M45.568 2.30444C47.9889 1.97432 49.4195 3.95508 48.264 6.8712C46.8885 10.3375 36.2694 12.7585 35.7192 12.9235C35.9393 12.8685 39.9008 11.8781 43.9724 9.67728C48.0989 7.47643 49.1994 3.56993 45.678 3.18478C45.5129 3.18478 45.3479 3.18478 45.1278 3.18478C41.4964 3.73499 35.114 12.0432 34.7838 12.4834L34.3987 12.6484C34.6738 12.3183 39.4056 5.93584 43.092 3.34985C43.9724 2.74461 44.7977 2.41449 45.568 2.30444Z" fill="#FDB400"/>
<g filter="url(#filter0_d_1305_4785)">
<path d="M36.0501 50.9994L18.3883 49.3487L14.7019 14.3003L36.4903 11.1641L36.0501 50.9994Z" fill="#555A5F"/>
</g>
<g filter="url(#filter1_d_1305_4785)">
<path d="M56.6825 13.9701L51.7306 49.2937L36.0496 50.9994L36.4897 11.1641L56.6825 13.9701Z" fill="#596169"/>
</g>
<path d="M29.4469 10.9445C23.7247 6.26771 26.2007 1.97606 27.081 1.42585C28.0714 0.820617 37.8101 -0.830017 41.1114 0.875639C44.4127 2.58129 39.956 10.3943 39.956 10.3943L29.4469 10.9445Z" fill="url(#paint4_linear_1305_4785)"/>
<path d="M35.2799 20.2978L14.702 23.6541L13.7666 13.4752L35.4449 9.51367L35.2799 20.2978Z" fill="#474F57"/>
<mask id="mask0_1305_4785" style="mask-type:alpha" maskUnits="userSpaceOnUse" x="13" y="9" width="23" height="15">
<path d="M35.2804 20.2978L14.7024 23.6541L13.7671 13.4752L35.4454 9.51367L35.2804 20.2978Z" fill="#FF4563"/>
</mask>
<g mask="url(#mask0_1305_4785)">
<path d="M22.5022 6.06909L21.5645 5.30371L3.5433 27.3834L4.48105 28.1488L22.5022 6.06909Z" fill="black" fill-opacity="0.2"/>
<path d="M25.8584 6.07116L24.9207 5.30566L6.89665 27.3854L7.8344 28.1508L25.8584 6.07116Z" fill="black" fill-opacity="0.2"/>
<path d="M29.2144 6.07006L28.2766 5.30469L10.2555 27.3844L11.1932 28.1498L29.2144 6.07006Z" fill="black" fill-opacity="0.2"/>
<path d="M32.5706 6.07006L31.6328 5.30469L13.6117 27.3844L14.5494 28.1498L32.5706 6.07006Z" fill="black" fill-opacity="0.2"/>
<path d="M35.9265 6.07312L34.9888 5.30762L16.9648 27.3873L17.9025 28.1528L35.9265 6.07312Z" fill="black" fill-opacity="0.2"/>
<path d="M39.2825 6.07104L38.3447 5.30566L20.3236 27.3854L21.2613 28.1507L39.2825 6.07104Z" fill="black" fill-opacity="0.2"/>
<path d="M42.6387 6.07409L41.7009 5.30859L23.6769 27.3883L24.6147 28.1538L42.6387 6.07409Z" fill="black" fill-opacity="0.2"/>
<path d="M45.9949 6.07202L45.0571 5.30664L27.036 27.3863L27.9737 28.1517L45.9949 6.07202Z" fill="black" fill-opacity="0.2"/>
</g>
<path d="M57.8385 13.3101L56.573 23.0489L35.2798 20.2978L35.4448 9.51367L57.8385 13.3101Z" fill="#525A63"/>
<mask id="mask1_1305_4785" style="mask-type:alpha" maskUnits="userSpaceOnUse" x="35" y="9" width="23" height="15">
<path d="M57.8377 13.3101L56.5722 23.0489L35.2791 20.2978L35.4441 9.51367L57.8377 13.3101Z" fill="#596169"/>
</mask>
<g mask="url(#mask1_1305_4785)">
<path d="M44.8374 3.37683L43.8997 2.61133L25.8757 24.691L26.8134 25.4565L44.8374 3.37683Z" fill="black" fill-opacity="0.2"/>
<path d="M43.9463 0.36706L43.0085 -0.398438L24.9845 21.6812L25.9223 22.4467L43.9463 0.36706Z" fill="black" fill-opacity="0.2"/>
<path d="M48.2335 3.30847L47.2959 2.54297L29.2719 24.6198L30.2095 25.3853L48.2335 3.30847Z" fill="black" fill-opacity="0.2"/>
<path d="M52.1532 3.3739L51.2156 2.6084L33.1916 24.6852L34.1292 25.4507L52.1532 3.3739Z" fill="black" fill-opacity="0.2"/>
<path d="M55.8344 3.3905L54.8967 2.625L36.8727 24.7018L37.8104 25.4673L55.8344 3.3905Z" fill="black" fill-opacity="0.2"/>
<path d="M59.4716 3.37292L58.5339 2.60742L40.5099 24.6843L41.4476 25.4498L59.4716 3.37292Z" fill="black" fill-opacity="0.2"/>
<path d="M63.1515 3.38952L62.2139 2.62402L44.1899 24.7009L45.1275 25.4664L63.1515 3.38952Z" fill="black" fill-opacity="0.2"/>
<path d="M66.7942 3.36999L65.8564 2.60449L47.8324 24.6842L48.7702 25.4497L66.7942 3.36999Z" fill="black" fill-opacity="0.2"/>
<path d="M70.4749 3.38757L69.5371 2.62207L51.5131 24.7018L52.4509 25.4673L70.4749 3.38757Z" fill="black" fill-opacity="0.2"/>
<path d="M74.1123 3.36902L73.1746 2.60352L55.1506 24.6832L56.0883 25.4487L74.1123 3.36902Z" fill="black" fill-opacity="0.2"/>
</g>
<path d="M52.5559 12.4305L47.384 49.7348L42.9272 50.23L46.1185 11.3301L52.5559 12.4305Z" fill="url(#paint5_linear_1305_4785)"/>
<path d="M19.6541 12.3755L25.6514 11.3301L28.0173 50.285L24.0557 49.9549L19.6541 12.3755Z" fill="url(#paint6_linear_1305_4785)"/>
<defs>
<filter id="filter0_d_1305_4785" x="10.7019" y="11.1641" width="29.7883" height="47.835" filterUnits="userSpaceOnUse" color-interpolation-filters="sRGB">
<feFlood flood-opacity="0" result="BackgroundImageFix"/>
<feColorMatrix in="SourceAlpha" type="matrix" values="0 0 0 0 0 0 0 0 0 0 0 0 0 0 0 0 0 0 127 0" result="hardAlpha"/>
<feOffset dy="4"/>
<feGaussianBlur stdDeviation="2"/>
<feComposite in2="hardAlpha" operator="out"/>
<feColorMatrix type="matrix" values="0 0 0 0 0 0 0 0 0 0 0 0 0 0 0 0 0 0 0.25 0"/>
<feBlend mode="normal" in2="BackgroundImageFix" result="effect1_dropShadow_1305_4785"/>
<feBlend mode="normal" in="SourceGraphic" in2="effect1_dropShadow_1305_4785" result="shape"/>
</filter>
<filter id="filter1_d_1305_4785" x="32.0496" y="11.1641" width="28.6328" height="47.835" filterUnits="userSpaceOnUse" color-interpolation-filters="sRGB">
<feFlood flood-opacity="0" result="BackgroundImageFix"/>
<feColorMatrix in="SourceAlpha" type="matrix" values="0 0 0 0 0 0 0 0 0 0 0 0 0 0 0 0 0 0 127 0" result="hardAlpha"/>
<feOffset dy="4"/>
<feGaussianBlur stdDeviation="2"/>
<feComposite in2="hardAlpha" operator="out"/>
<feColorMatrix type="matrix" values="0 0 0 0 0 0 0 0 0 0 0 0 0 0 0 0 0 0 0.25 0"/>
<feBlend mode="normal" in2="BackgroundImageFix" result="effect1_dropShadow_1305_4785"/>
<feBlend mode="normal" in="SourceGraphic" in2="effect1_dropShadow_1305_4785" result="shape"/>
</filter>
<linearGradient id="paint0_linear_1305_4785" x1="16.0981" y1="52.6248" x2="16.0981" y2="17.0877" gradientUnits="userSpaceOnUse">
<stop stop-color="#FD5900"/>
<stop offset="1" stop-color="#FFDE00"/>
</linearGradient>
<linearGradient id="paint1_linear_1305_4785" x1="16.0981" y1="50.5435" x2="16.0981" y2="19.1709" gradientUnits="userSpaceOnUse">
<stop stop-color="#FFE59A"/>
<stop offset="1" stop-color="#FFFFD5"/>
</linearGradient>
<linearGradient id="paint2_linear_1305_4785" x1="21.9169" y1="0.693218" x2="24.9139" y2="11.0945" gradientUnits="userSpaceOnUse">
<stop stop-color="#FDB400"/>
<stop offset="0.3089" stop-color="#FFFA85"/>
<stop offset="1" stop-color="#C79000"/>
</linearGradient>
<linearGradient id="paint3_linear_1305_4785" x1="49.9746" y1="-0.387006" x2="45.0308" y2="12.9379" gradientUnits="userSpaceOnUse">
<stop stop-color="#FDB400"/>
<stop offset="0.2777" stop-color="#FFFA85"/>
<stop offset="0.8859" stop-color="#C79000"/>
</linearGradient>
<linearGradient id="paint4_linear_1305_4785" x1="33.5091" y1="-1.37808" x2="34.7801" y2="10.9253" gradientUnits="userSpaceOnUse">
<stop stop-color="#FDB400"/>
<stop offset="0.2777" stop-color="#FFFA85"/>
<stop offset="0.845" stop-color="#C79000"/>
</linearGradient>
<linearGradient id="paint5_linear_1305_4785" x1="62.1131" y1="-3.4316" x2="32.6621" y2="61.6944" gradientUnits="userSpaceOnUse">
<stop stop-color="#FDB400"/>
<stop offset="0.2777" stop-color="#FFFA85"/>
<stop offset="0.8859" stop-color="#C79000"/>
</linearGradient>
<linearGradient id="paint6_linear_1305_4785" x1="27.1827" y1="6.2848" x2="20.1994" y2="58.5071" gradientUnits="userSpaceOnUse">
<stop stop-color="#FDB400"/>
<stop offset="0.0622507" stop-color="#F5BB19"/>
<stop offset="0.144" stop-color="#ECC333"/>
<stop offset="0.2175" stop-color="#E7C742"/>
<stop offset="0.2753" stop-color="#E5C948"/>
<stop offset="0.8388" stop-color="#C79000"/>
</linearGradient>
</defs>
</svg>
