<svg width="20" height="28" viewBox="0 0 20 28" fill="none" xmlns="http://www.w3.org/2000/svg">
<path d="M7.78801 0.0742188C4.24438 0.0742188 1.52542 3.2751 2.13312 6.79514C2.21004 7.24051 2.63353 7.53714 3.07592 7.46043C3.52002 7.38373 3.81792 6.96173 3.74122 6.51763C3.30668 3.99968 5.24901 1.70611 7.78801 1.70611C10.3193 1.70611 12.2653 3.98884 11.8367 6.50765C11.7611 6.95196 12.06 7.37331 12.5041 7.44896C12.9484 7.52482 13.3698 7.22564 13.4454 6.78133C14.0419 3.27553 11.3359 0.0742188 7.78801 0.0742188Z" fill="url(#paint0_linear_1406_4542)"/>
<path d="M16.4707 13.1641C15.8547 11.9555 14.3923 11.4901 13.2069 12.0762C12.648 10.9797 11.3714 10.4723 10.2238 10.8707V5.87436C10.2238 4.5425 9.15351 3.42971 7.83759 3.39359C6.45877 3.35449 5.31623 4.45878 5.31623 5.84057V18.4106L4.35771 17.4068C3.43764 16.4436 1.89712 16.3758 0.923302 17.2562C-0.104279 18.1849 -0.155488 19.7665 0.79071 20.7605L6.29961 26.6363C7.06796 27.4555 8.1527 27.9255 9.2759 27.9255H15.9201C18.1697 27.9255 19.9998 26.0953 19.9998 23.8458V15.3599C19.9998 13.5468 18.0873 12.3647 16.4707 13.1641Z" fill="url(#paint1_linear_1406_4542)"/>
<defs>
<linearGradient id="paint0_linear_1406_4542" x1="7.788" y1="0.0742188" x2="7.788" y2="7.47251" gradientUnits="userSpaceOnUse">
<stop stop-color="#B29100"/>
<stop offset="1" stop-color="#B04C00"/>
</linearGradient>
<linearGradient id="paint1_linear_1406_4542" x1="10.0575" y1="3.39258" x2="10.0575" y2="27.9255" gradientUnits="userSpaceOnUse">
<stop stop-color="#B29100"/>
<stop offset="1" stop-color="#B04C00"/>
</linearGradient>
</defs>
</svg>
