<svg width="90" height="90" viewBox="0 0 90 90" fill="none" xmlns="http://www.w3.org/2000/svg">
<path d="M45 15.4688H47.8125V18.2812H45V15.4688Z" fill="url(#paint0_linear_3995_23862)"/>
<path d="M35.1708 27.2056L32.3456 19.5374L29.5205 27.2056C29.421 27.4754 29.2412 27.7082 29.0054 27.8726C28.7695 28.0371 28.4889 28.1253 28.2014 28.1253H21.7327L26.58 31.1797C26.8373 31.3441 27.0342 31.5878 27.1407 31.874C27.2473 32.1602 27.2578 32.4733 27.1706 32.7659L25.0191 40.0419L31.523 35.3464C31.7625 35.1737 32.0503 35.0807 32.3456 35.0807C32.641 35.0807 32.9288 35.1737 33.1683 35.3464L39.6722 40.0419L37.5206 32.7659C37.4338 32.4723 37.4452 32.1584 37.5531 31.8719C37.661 31.5853 37.8594 31.3418 38.1183 31.1783L42.9544 28.1253H36.4856C36.1988 28.1244 35.9192 28.0358 35.6842 27.8714C35.4492 27.707 35.27 27.4747 35.1708 27.2056Z" fill="url(#paint1_linear_3995_23862)"/>
<path d="M32.3418 4.21885C28.3764 4.20825 24.4537 5.03628 20.8309 6.6486C17.2082 8.26091 13.9673 10.6211 11.321 13.5742C8.67466 16.5273 6.68271 20.0066 5.47586 23.7839C4.269 27.5611 3.87451 31.5508 4.31828 35.4913C4.76205 39.4317 6.03404 43.2338 8.05079 46.6479C10.0675 50.0621 12.7835 53.0113 16.0203 55.3018C19.2572 57.5924 22.9418 59.1726 26.8324 59.9388C30.7231 60.7049 34.7317 60.6397 38.5954 59.7474L29.6151 50.7657C29.158 50.3087 28.7954 49.7661 28.548 49.1689C28.3006 48.5717 28.1733 47.9316 28.1733 47.2853C28.1733 46.6389 28.3006 45.9988 28.548 45.4016C28.7954 44.8044 29.158 44.2618 29.6151 43.8048C30.5528 42.9099 31.7993 42.4106 33.0955 42.4106C34.3918 42.4106 35.6382 42.9099 36.576 43.8048L43.0447 50.2735L45.0332 48.2851C45.659 47.6894 46.4491 47.2948 47.3013 47.1525C48.1536 47.0101 49.0289 47.1264 49.8144 47.4864L51.9983 45.301C52.6158 44.6892 53.4071 44.283 54.2642 44.138C55.1213 43.993 56.0023 44.1163 56.7866 44.491L58.4305 42.8457C60.1558 38.5776 60.806 33.951 60.3238 29.3727C59.8416 24.7944 58.2418 20.4048 55.6652 16.5898C53.0885 12.7748 49.6139 9.6514 45.547 7.49426C41.4801 5.33712 36.9454 4.21235 32.3418 4.21885ZM43.5341 43.1945C43.6175 43.4758 43.6108 43.7762 43.5149 44.0536C43.4189 44.3309 43.2387 44.5713 42.9993 44.7411C42.7599 44.9108 42.4735 45.0015 42.18 45.0003C41.8865 44.999 41.6008 44.9061 41.3629 44.7343L32.3418 38.2234L23.3207 44.7343C23.0827 44.9061 22.797 44.999 22.5035 45.0003C22.2101 45.0015 21.9236 44.9108 21.6842 44.7411C21.4449 44.5713 21.2646 44.3309 21.1687 44.0536C21.0728 43.7762 21.066 43.4758 21.1494 43.1945L24.1686 32.9893L16.1221 27.9085C15.8641 27.7459 15.6659 27.5038 15.5575 27.2187C15.449 26.9337 15.4362 26.6211 15.521 26.3281C15.6058 26.0351 15.7835 25.7776 16.0273 25.5944C16.2712 25.4113 16.568 25.3124 16.873 25.3126H27.216L31.0227 14.9823C31.1223 14.7127 31.3022 14.4801 31.538 14.3158C31.7738 14.1516 32.0544 14.0635 32.3418 14.0635C32.6292 14.0635 32.9097 14.1516 33.1455 14.3158C33.3814 14.4801 33.5612 14.7127 33.6608 14.9823L37.4676 25.3126H47.8105C48.1155 25.3124 48.4123 25.4113 48.6562 25.5944C48.9001 25.7776 49.0778 26.0351 49.1625 26.3281C49.2473 26.6211 49.2345 26.9337 49.1261 27.2187C49.0176 27.5038 48.8195 27.7459 48.5615 27.9085L40.5149 32.9893L43.5341 43.1945Z" fill="url(#paint2_linear_3995_23862)"/>
<path d="M81.2647 70.5939C78.881 68.3071 77.3595 65.2677 76.9574 61.989C76.6926 59.363 75.5299 56.9088 73.6654 55.0407L62.9287 44.297C62.6649 44.0334 62.3073 43.8853 61.9344 43.8853C61.5615 43.8853 61.2039 44.0334 60.9402 44.297L59.9446 45.2912C59.8138 45.4218 59.7101 45.5769 59.6393 45.7476C59.5686 45.9183 59.5322 46.1013 59.5322 46.2861C59.5322 46.4709 59.5686 46.6539 59.6393 46.8246C59.7101 46.9953 59.8138 47.1504 59.9446 47.281L63.9229 51.2579C64.179 51.5231 64.3208 51.8784 64.3176 52.2471C64.3144 52.6158 64.1665 52.9685 63.9057 53.2292C63.645 53.49 63.2923 53.6378 62.9236 53.6411C62.5549 53.6443 62.1997 53.5025 61.9344 53.2464L55.9691 47.2853C55.7054 47.0216 55.3478 46.8735 54.9749 46.8735C54.602 46.8735 54.2444 47.0216 53.9807 47.2853L52.9851 48.2809C52.7214 48.5446 52.5733 48.9022 52.5733 49.2751C52.5733 49.648 52.7214 50.0056 52.9851 50.2693L56.9633 54.2476C57.227 54.5113 57.3751 54.8689 57.3751 55.2418C57.3751 55.6147 57.227 55.9723 56.9633 56.236C56.6996 56.4997 56.342 56.6478 55.9691 56.6478C55.5962 56.6478 55.2386 56.4997 54.9749 56.236L49.0082 50.2693C48.7445 50.0061 48.3872 49.8583 48.0147 49.8583C47.6421 49.8583 47.2848 50.0061 47.0212 50.2693L46.0255 51.2635C45.7619 51.5273 45.6138 51.8849 45.6138 52.2578C45.6138 52.6307 45.7619 52.9883 46.0255 53.252L50.001 57.2345C50.2646 57.4982 50.4127 57.8558 50.4127 58.2287C50.4127 58.6016 50.2646 58.9592 50.001 59.2229C49.7373 59.4865 49.3797 59.6347 49.0068 59.6347C48.6339 59.6347 48.2763 59.4865 48.0126 59.2229L34.5941 45.7946C34.1923 45.4111 33.6582 45.1972 33.1028 45.1972C32.5474 45.1972 32.0133 45.4111 31.6115 45.7946C31.4154 45.9905 31.26 46.2231 31.1539 46.4791C31.0478 46.7351 30.9932 47.0095 30.9932 47.2867C30.9932 47.5638 31.0478 47.8382 31.1539 48.0942C31.26 48.3502 31.4154 48.5828 31.6115 48.7787L50.9952 68.1681C51.2081 68.3812 51.347 68.6572 51.3913 68.9552C51.4355 69.2532 51.3829 69.5576 51.2412 69.8235C51.0994 70.0894 50.876 70.3027 50.6039 70.432C50.3317 70.5613 50.0253 70.5998 49.7296 70.5418L38.9774 68.3903C38.3139 68.2418 37.6197 68.3234 37.0087 68.6216C36.3977 68.9198 35.9062 69.417 35.6151 70.0314C35.4492 70.4065 35.3651 70.8126 35.3683 71.2227C35.3715 71.6328 35.462 72.0376 35.6337 72.41C35.8054 72.7825 36.0545 73.1141 36.3643 73.3829C36.6741 73.6517 37.0376 73.8514 37.4305 73.9689L51.5844 78.2143C52.6497 78.5339 53.7559 78.6964 54.868 78.6967H59.6001C61.4702 78.6966 63.3221 79.0649 65.05 79.7806C66.7778 80.4962 68.3478 81.5452 69.6702 82.8676L72.9988 86.1962L84.9379 74.2614L81.2647 70.5939Z" fill="url(#paint3_linear_3995_23862)"/>
<defs>
<linearGradient id="paint0_linear_3995_23862" x1="46.4063" y1="15.4687" x2="47.1437" y2="19.173" gradientUnits="userSpaceOnUse">
<stop stop-color="#CCA500"/>
<stop offset="1" stop-color="#C95700"/>
</linearGradient>
<linearGradient id="paint1_linear_3995_23862" x1="32.3435" y1="19.5374" x2="37.5512" y2="46.6118" gradientUnits="userSpaceOnUse">
<stop stop-color="#CCA500"/>
<stop offset="1" stop-color="#C95700"/>
</linearGradient>
<linearGradient id="paint2_linear_3995_23862" x1="32.31" y1="4.21875" x2="47.0374" y2="78.3125" gradientUnits="userSpaceOnUse">
<stop stop-color="#CCA500"/>
<stop offset="1" stop-color="#C95700"/>
</linearGradient>
<linearGradient id="paint3_linear_3995_23862" x1="57.9655" y1="43.8853" x2="66.7963" y2="100.441" gradientUnits="userSpaceOnUse">
<stop stop-color="#CCA500"/>
<stop offset="1" stop-color="#C95700"/>
</linearGradient>
</defs>
</svg>
