<svg width="32" height="30" viewBox="0 0 32 30" fill="none" xmlns="http://www.w3.org/2000/svg">
<path d="M0.937429 28.9122H2.81229C3.33 28.9122 3.74972 28.4925 3.74972 27.9748V17.6631H0.937429C0.419718 17.6631 0 18.0828 0 18.6005V27.9748C0 28.4925 0.419718 28.9122 0.937429 28.9122Z" fill="url(#paint0_linear_1406_4538)"/>
<path d="M24.498 0.788086C20.3561 0.788086 16.9985 4.14564 16.9985 8.28752C16.9985 12.4293 20.3561 15.787 24.498 15.787C28.6398 15.787 31.9974 12.4293 31.9974 8.28752C31.9974 4.14564 28.6398 0.788086 24.498 0.788086Z" fill="url(#paint1_linear_1406_4538)"/>
<path d="M16.924 29.411H17.1302C20.28 29.3735 23.2984 28.4799 25.9608 26.8674L31.1916 23.2115C32.0728 22.5927 32.2416 21.4304 31.6604 20.6054C31.0604 19.7429 29.898 19.5368 29.0543 20.1367L24.0297 23.6615C22.4173 24.5989 20.4488 24.8051 18.6676 24.2051L12.8868 22.2927C12.3993 22.1428 12.1368 21.599 12.3056 21.1116C12.4555 20.6429 12.943 20.3805 13.4304 20.5117C13.4492 20.5117 19.9237 22.6115 19.9237 22.6115C21.014 22.9383 21.9826 22.3214 22.286 21.4116C22.6047 20.4179 22.061 19.368 21.0861 19.0493L12.268 16.162C10.3393 15.4599 7.74016 15.6049 5.62476 16.7878V27.2822L12.9804 28.9486C14.3279 29.245 15.6501 29.411 16.924 29.411Z" fill="url(#paint2_linear_1406_4538)"/>
<defs>
<linearGradient id="paint0_linear_1406_4538" x1="1.87486" y1="17.6631" x2="1.87486" y2="28.9122" gradientUnits="userSpaceOnUse">
<stop stop-color="#B29100"/>
<stop offset="1" stop-color="#B04C00"/>
</linearGradient>
<linearGradient id="paint1_linear_1406_4538" x1="24.498" y1="0.788086" x2="24.498" y2="15.7869" gradientUnits="userSpaceOnUse">
<stop stop-color="#B29100"/>
<stop offset="1" stop-color="#B04C00"/>
</linearGradient>
<linearGradient id="paint2_linear_1406_4538" x1="18.8126" y1="15.7383" x2="18.8126" y2="29.411" gradientUnits="userSpaceOnUse">
<stop stop-color="#B29100"/>
<stop offset="1" stop-color="#B04C00"/>
</linearGradient>
</defs>
</svg>
