<svg width="100" height="77" viewBox="0 0 100 77" fill="none" xmlns="http://www.w3.org/2000/svg">
<path opacity="0.2" fill-rule="evenodd" clip-rule="evenodd" d="M90.1057 43.4917L100 51.3621L79.3145 77L69.4201 69.1296L90.1057 43.4917ZM74.8805 33.0902C74.5972 32.2789 74.0855 31.5651 73.4059 31.0335L64.8166 24.1322C64.1853 23.6083 63.4193 23.2693 62.6047 23.1533L54.7727 21.8778C52.3414 21.4823 51.1357 21.7592 50.757 21.9371C50.8168 22.1251 51.0062 22.5403 51.5742 23.2027C52.0305 23.7572 52.6198 24.189 53.2881 24.4586L59.1475 26.9996C60.5845 27.6078 61.8108 28.62 62.675 29.9115C63.5392 31.2029 64.0035 32.7172 64.0107 34.2674C64.0369 36.3298 64.6131 38.3485 65.6807 40.1182C66.7483 41.8879 68.2693 43.3455 70.0889 44.3425C70.4166 44.5225 70.6748 44.8054 70.8229 45.1468C70.971 45.4881 71.0006 45.8687 70.9071 46.2286C70.8136 46.5885 70.6022 46.9073 70.3062 47.1351C70.0103 47.3628 69.6464 47.4866 69.2719 47.4869C68.9857 47.4908 68.7037 47.4191 68.4547 47.2791C66.515 46.2158 64.8341 44.7428 63.5308 42.9644C62.2275 41.1859 61.3335 39.1452 60.9119 36.9864C59.1682 39.4582 57.5641 41.7916 56.0486 44.0559C56.0096 44.1053 55.9789 44.1547 55.9391 44.2042C53.0484 47.6346 50.0004 49.9785 46.8219 51.2243L51.1662 55.021C56.0295 58.4024 60.5021 59.579 64.4684 58.5113C64.7264 58.443 64.9971 58.4361 65.2584 58.491C65.5197 58.546 65.7643 58.6613 65.9723 58.8276L70.4861 62.4464L83.9676 45.7368L79.6033 42.7211C78.158 41.7224 77.5107 40.3284 77.1121 39.2407L74.8803 33.0908L74.8805 33.0902ZM40.4145 0.689171C40.748 0.296926 41.2246 0.0517567 41.7399 0.00730002C42.2552 -0.0371567 42.7673 0.122719 43.1641 0.45195L47.25 3.87286L44.8586 6.91817L40.6537 3.4083C40.458 3.24542 40.2965 3.04585 40.1785 2.82101C40.0606 2.59617 39.9884 2.35046 39.9662 2.09794C39.944 1.84541 39.9721 1.59101 40.049 1.34929C40.126 1.10757 40.2501 0.883252 40.4145 0.689171V0.689171ZM35.7314 6.20631C35.3995 6.60011 35.2383 7.10835 35.2831 7.6198C35.3279 8.13125 35.5751 8.60426 35.9705 8.93532L40.3746 12.6134L42.766 9.56811L38.4715 5.97897C38.0765 5.65143 37.5674 5.4916 37.0544 5.53416C36.5415 5.57672 36.0661 5.81823 35.7314 6.20631V6.20631ZM31.0482 11.7333C31.2124 11.539 31.4136 11.3788 31.6402 11.2617C31.8669 11.1446 32.1145 11.073 32.3691 11.0509C32.6237 11.0289 32.8801 11.0569 33.1237 11.1333C33.3674 11.2097 33.5935 11.333 33.7891 11.4961L38.2928 15.2533L35.8904 18.2986L31.2773 14.4525C31.0822 14.2889 30.9215 14.0889 30.8044 13.8637C30.6873 13.6385 30.616 13.3926 30.5948 13.14C30.5735 12.8875 30.6026 12.6333 30.6804 12.3919C30.7582 12.1505 30.8832 11.9267 31.0482 11.7333V11.7333ZM22.8777 36.3431L14.6273 46.4678L30.8092 60.33L40.0459 49.5132C40.2035 49.3271 40.4002 49.1776 40.6223 49.0751C40.8444 48.9726 41.0863 48.9197 41.3312 48.9199H41.3703C45.4756 48.9199 49.4811 46.6359 53.2775 42.1273C55.36 39.0227 57.602 35.7898 60.1428 32.2497C59.649 31.2704 58.8184 30.4989 57.8012 30.0746L51.9336 27.5336C50.7973 27.0581 49.7925 26.3188 49.0039 25.378C46.9414 22.9655 47.1705 21.2846 47.7385 20.296C49.0139 18.0614 52.5611 18.1207 55.3213 18.5657L63.1533 19.8411C64.5467 20.0532 65.8556 20.6377 66.9396 21.5319L67.5873 22.0459C68.1254 21.3142 68.6635 20.5923 69.2016 19.8609C69.2068 19.8556 69.2102 19.8488 69.2113 19.8415C69.6593 19.2455 69.8523 18.4983 69.7487 17.762C69.6451 17.0257 69.2532 16.3595 68.6578 15.9081C68.0625 15.4567 67.3119 15.2563 66.5687 15.3504C65.8254 15.4446 65.1496 15.8257 64.6877 16.4111V16.421C64.5529 16.5956 64.3848 16.7422 64.1929 16.8524C64.0011 16.9625 63.7892 17.0341 63.5695 17.063C63.3498 17.0919 63.1264 17.0776 62.9123 17.0209C62.6981 16.9642 62.4973 16.8662 62.3213 16.7324C62.1453 16.5987 61.9976 16.4319 61.8866 16.2415C61.7755 16.0511 61.7034 15.8409 61.6743 15.6228C61.6451 15.4048 61.6595 15.1832 61.7167 14.9707C61.7739 14.7581 61.8726 14.5589 62.0074 14.3842C62.4592 13.787 62.6561 13.0373 62.5554 12.2973C62.4547 11.5572 62.0646 10.8862 61.4693 10.4292C60.8698 9.97606 60.1139 9.77697 59.3668 9.87549C58.9967 9.9226 58.6396 10.0421 58.3164 10.2271C57.9931 10.4121 57.7101 10.6589 57.4836 10.9533H57.4736C57.2026 11.306 56.8014 11.5375 56.3583 11.5967C55.9153 11.656 55.4666 11.5381 55.1111 11.2692C54.7556 11.0002 54.5224 10.6021 54.4627 10.1624C54.403 9.7228 54.5217 9.27763 54.7928 8.92486C55.2479 8.32705 55.4468 7.57506 55.346 6.83252C55.2452 6.08998 54.853 5.41697 54.2547 4.95993C53.6464 4.51486 52.8867 4.32363 52.1381 4.42714C51.3896 4.53065 50.7115 4.92069 50.249 5.51383L35.3627 24.4185C35.226 24.5918 35.0562 24.7367 34.863 24.845C34.6698 24.9532 34.457 25.0226 34.2368 25.0493C34.0166 25.0759 33.7933 25.0592 33.5795 25.0002C33.3658 24.9412 33.1659 24.841 32.9912 24.7053C32.6384 24.4313 32.4097 24.0294 32.3555 23.5881C32.3013 23.1468 32.426 22.7022 32.7021 22.3521L33.8084 20.9479L30.0918 17.8437L26.7139 21.6406C23.3061 26.4664 22.1203 30.9149 23.1965 34.85C23.2653 35.1061 23.2723 35.3747 23.2169 35.634C23.1615 35.8933 23.0453 36.1359 22.8777 36.3423V36.3431ZM8.29023 45.4593L33.3398 66.9249L25.0496 76.4463L0 54.9809L8.29023 45.4593Z" fill="url(#paint0_linear_3963_13731)"/>
<defs>
<linearGradient id="paint0_linear_3963_13731" x1="50" y1="-6.01678e-07" x2="65.7906" y2="103.013" gradientUnits="userSpaceOnUse">
<stop stop-color="#B39100"/>
<stop offset="1" stop-color="#B04C00"/>
</linearGradient>
</defs>
</svg>
