<svg width="42" height="42" viewBox="0 0 42 42" fill="none" xmlns="http://www.w3.org/2000/svg">
<path d="M22.4005 19.0849L19.8064 14.7615H16.0744C15.1192 14.7615 14.5283 13.7172 15.0196 12.8984L16.8542 9.8408L15.0196 6.78324C14.5281 5.96411 15.1196 4.9201 16.0744 4.9201H19.8065L22.4006 0.596697C22.8764 -0.196355 24.0314 -0.201439 24.5103 0.596697L27.1045 4.9201H30.8365C31.7916 4.9201 32.3826 5.96435 31.8913 6.78324L30.0567 9.8408L31.8913 12.8984C32.3827 13.7175 31.7913 14.7615 30.8365 14.7615H27.1044L24.5103 19.0849C24.0344 19.8779 22.8795 19.883 22.4005 19.0849Z" fill="url(#paint0_linear_3606_11310)"/>
<path d="M15.1172 19.4101C14.6367 18.9296 14.6367 18.1508 15.1172 17.6703L16.8569 15.9306C17.3372 15.4502 18.1162 15.4502 18.5966 15.9306C19.077 16.4111 19.077 17.1899 18.5966 17.6703L16.8569 19.4101C16.3766 19.8905 15.5976 19.8906 15.1172 19.4101Z" fill="url(#paint1_linear_3606_11310)"/>
<path d="M28.3144 3.83982C27.834 3.3594 27.834 2.58054 28.3144 2.10011L30.0541 0.360318C30.5346 -0.120106 31.3135 -0.120106 31.7938 0.360318C32.2743 0.840742 32.2743 1.61961 31.7938 2.10003L30.0542 3.83982C29.5739 4.32017 28.7949 4.32033 28.3144 3.83982Z" fill="url(#paint2_linear_3606_11310)"/>
<path d="M16.8568 3.83968L15.1171 2.09997C14.6368 1.61954 14.6368 0.84068 15.1171 0.360256C15.5975 -0.120085 16.3763 -0.120085 16.8568 0.360256L18.5965 2.09997C19.0769 2.58039 19.0769 3.35926 18.5965 3.83968C18.1161 4.32002 17.3373 4.3201 16.8568 3.83968Z" fill="url(#paint3_linear_3606_11310)"/>
<path d="M30.0541 19.4101L28.3144 17.6703C27.834 17.1899 27.834 16.4111 28.3144 15.9306C28.7948 15.4502 29.5737 15.4502 30.0541 15.9306L31.7938 17.6703C32.2743 18.1508 32.2743 18.9296 31.7938 19.4101C31.3135 19.8905 30.5346 19.8906 30.0541 19.4101Z" fill="url(#paint4_linear_3606_11310)"/>
<path d="M13.6124 11.0736H11.152C10.4727 11.0736 9.92188 10.5228 9.92188 9.84345C9.92188 9.16407 10.4727 8.61328 11.152 8.61328H13.6124C14.2918 8.61328 14.8426 9.16407 14.8426 9.84345C14.8426 10.5228 14.2918 11.0736 13.6124 11.0736Z" fill="url(#paint5_linear_3606_11310)"/>
<path d="M35.756 11.0736H33.2956C32.6162 11.0736 32.0654 10.5228 32.0654 9.84345C32.0654 9.16407 32.6162 8.61328 33.2956 8.61328H35.756C36.4353 8.61328 36.9861 9.16407 36.9861 9.84345C36.9861 10.5228 36.4353 11.0736 35.756 11.0736Z" fill="url(#paint6_linear_3606_11310)"/>
<path d="M4.03715 29.0625L12.194 38.1248L8.62406 41.6455C8.12707 42.1261 7.32992 42.104 6.86163 41.5931L0.323669 34.4654C-0.121654 33.9799 -0.106072 33.2303 0.359754 32.7645L4.03715 29.0625Z" fill="url(#paint7_linear_3606_11310)"/>
<path d="M41.6757 21.7193L29.8775 34.5002C28.4792 36.033 26.4994 36.9064 24.4245 36.9064C24.4245 36.9064 14.4175 36.9064 14.4076 36.9072L5.77344 27.3135L9.47462 23.5877C10.3972 22.6651 11.6487 22.1468 12.9536 22.1468H25.7055C26.5511 22.1468 27.1489 22.9849 26.8652 23.787C26.1919 25.6921 24.3835 27.0486 22.2651 27.065H17.3034C16.6255 27.065 16.0733 27.6161 16.0733 28.2952C16.0733 28.9742 16.6244 29.5253 17.3034 29.5253L24.8329 29.5262C26.1386 29.527 27.3909 29.0087 28.3143 28.0852L35.6439 20.7106C37.1791 19.1753 39.4771 18.867 41.3191 19.7847C42.0513 20.1504 42.2285 21.1174 41.6757 21.7193Z" fill="url(#paint8_linear_3606_11310)"/>
<defs>
<linearGradient id="paint0_linear_3606_11310" x1="23.4554" y1="-1.53792e-07" x2="29.2838" y2="25.6236" gradientUnits="userSpaceOnUse">
<stop stop-color="#B39100"/>
<stop offset="1" stop-color="#B04C00"/>
</linearGradient>
<linearGradient id="paint1_linear_3606_11310" x1="16.8569" y1="15.5703" x2="17.9581" y2="21.1021" gradientUnits="userSpaceOnUse">
<stop stop-color="#B39100"/>
<stop offset="1" stop-color="#B04C00"/>
</linearGradient>
<linearGradient id="paint2_linear_3606_11310" x1="30.0541" y1="-3.28199e-08" x2="31.1554" y2="5.53186" gradientUnits="userSpaceOnUse">
<stop stop-color="#B39100"/>
<stop offset="1" stop-color="#B04C00"/>
</linearGradient>
<linearGradient id="paint3_linear_3606_11310" x1="16.8568" y1="-3.28185e-08" x2="17.958" y2="5.53164" gradientUnits="userSpaceOnUse">
<stop stop-color="#B39100"/>
<stop offset="1" stop-color="#B04C00"/>
</linearGradient>
<linearGradient id="paint4_linear_3606_11310" x1="30.0541" y1="15.5703" x2="31.1554" y2="21.1021" gradientUnits="userSpaceOnUse">
<stop stop-color="#B39100"/>
<stop offset="1" stop-color="#B04C00"/>
</linearGradient>
<linearGradient id="paint5_linear_3606_11310" x1="12.3822" y1="8.61328" x2="12.7143" y2="11.9491" gradientUnits="userSpaceOnUse">
<stop stop-color="#B39100"/>
<stop offset="1" stop-color="#B04C00"/>
</linearGradient>
<linearGradient id="paint6_linear_3606_11310" x1="34.5258" y1="8.61328" x2="34.8578" y2="11.9491" gradientUnits="userSpaceOnUse">
<stop stop-color="#B39100"/>
<stop offset="1" stop-color="#B04C00"/>
</linearGradient>
<linearGradient id="paint7_linear_3606_11310" x1="6.09689" y1="29.0625" x2="9.6742" y2="46.0108" gradientUnits="userSpaceOnUse">
<stop stop-color="#B39100"/>
<stop offset="1" stop-color="#B04C00"/>
</linearGradient>
<linearGradient id="paint8_linear_3606_11310" x1="23.8867" y1="19.2695" x2="26.2056" y2="43.1954" gradientUnits="userSpaceOnUse">
<stop stop-color="#B39100"/>
<stop offset="1" stop-color="#B04C00"/>
</linearGradient>
</defs>
</svg>
