<svg width="41" height="42" viewBox="0 0 41 42" fill="none" xmlns="http://www.w3.org/2000/svg">
<path d="M20.2802 6.62781C19.5876 6.62781 19.0254 6.06563 19.0254 5.37295V2.09861C19.0254 1.40593 19.5876 0.84375 20.2802 0.84375C20.9729 0.84375 21.5351 1.40593 21.5351 2.09861V5.37295C21.5351 6.06563 20.9729 6.62781 20.2802 6.62781Z" fill="url(#paint0_linear_4090_28833)"/>
<path d="M31.274 11.186C30.9527 11.186 30.6315 11.0638 30.3872 10.8179C29.897 10.3277 29.897 9.53291 30.3872 9.04268L32.7028 6.72705C33.1931 6.23682 33.9878 6.23682 34.478 6.72705C34.9683 7.21728 34.9683 8.01202 34.478 8.50225L32.1624 10.8179C31.9165 11.0622 31.5952 11.186 31.274 11.186Z" fill="url(#paint1_linear_4090_28833)"/>
<path d="M39.1034 22.1777H35.8291C35.1364 22.1777 34.5742 21.6155 34.5742 20.9228C34.5742 20.2301 35.1364 19.668 35.8291 19.668H39.1034C39.7961 19.668 40.3583 20.2301 40.3583 20.9228C40.3583 21.6155 39.7961 22.1777 39.1034 22.1777Z" fill="url(#paint2_linear_4090_28833)"/>
<path d="M33.5896 35.4829C33.2684 35.4829 32.9471 35.3607 32.7028 35.1148L30.3872 32.7991C29.897 32.3089 29.897 31.5142 30.3872 31.0239C30.8774 30.5337 31.6722 30.5337 32.1624 31.0239L34.478 33.3396C34.9683 33.8298 34.9683 34.6245 34.478 35.1148C34.2321 35.3607 33.9108 35.4829 33.5896 35.4829Z" fill="url(#paint3_linear_4090_28833)"/>
<path d="M6.96928 35.4829C6.64804 35.4829 6.3268 35.3607 6.08252 35.1148C5.59229 34.6245 5.59229 33.8298 6.08252 33.3396L8.39815 31.0239C8.88838 30.5337 9.68312 30.5337 10.1734 31.0239C10.6636 31.5142 10.6636 32.3089 10.1734 32.7991L7.85772 35.1148C7.61177 35.3607 7.29053 35.4829 6.96928 35.4829Z" fill="url(#paint4_linear_4090_28833)"/>
<path d="M4.73037 22.1777H1.45603C0.763348 22.1777 0.201172 21.6155 0.201172 20.9228C0.201172 20.2301 0.763348 19.668 1.45603 19.668H4.73037C5.42306 19.668 5.98523 20.2301 5.98523 20.9228C5.98523 21.6155 5.42306 22.1777 4.73037 22.1777Z" fill="url(#paint5_linear_4090_28833)"/>
<path d="M9.28492 11.186C8.96367 11.186 8.64243 11.0638 8.39815 10.8179L6.08252 8.50225C5.59229 8.01202 5.59229 7.21728 6.08252 6.72705C6.57275 6.23682 7.36749 6.23682 7.85772 6.72705L10.1734 9.04268C10.6636 9.53291 10.6636 10.3277 10.1734 10.8179C9.92573 11.0622 9.60616 11.186 9.28492 11.186Z" fill="url(#paint6_linear_4090_28833)"/>
<path d="M25.2986 35.9844V38.0758C25.2986 39.682 23.9769 41.0038 22.3706 41.0038H18.1878C16.7823 41.0038 15.2598 39.933 15.2598 37.5906V35.9844H25.2986Z" fill="url(#paint7_linear_4090_28833)"/>
<path d="M27.6572 11.8227C24.9132 9.59737 21.2992 8.72734 17.7689 9.48025C13.3351 10.4005 9.7378 14.0145 8.81757 18.4483C7.88061 22.9993 9.58722 27.5168 13.2347 30.2774C14.2218 31.0136 14.9078 32.1514 15.1421 33.4731V33.4899C15.1755 33.4731 15.2257 33.4731 15.2592 33.4731H25.2981C25.3315 33.4731 25.3482 33.4731 25.3817 33.4899V33.4731C25.6159 32.2016 26.3689 31.0304 27.5233 30.1269C30.351 27.8848 31.9906 24.5386 31.9906 20.9246C31.9906 17.3775 30.4179 14.0647 27.6572 11.8227ZM26.5529 21.7611C25.8669 21.7611 25.2981 21.1923 25.2981 20.5063C25.2981 17.9631 23.2401 15.9051 20.6969 15.9051C20.0109 15.9051 19.442 15.3363 19.442 14.6503C19.442 13.9643 20.0109 13.3954 20.6969 13.3954C24.6121 13.3954 27.8078 16.5911 27.8078 20.5063C27.8078 21.1923 27.2389 21.7611 26.5529 21.7611Z" fill="url(#paint8_linear_4090_28833)"/>
<path d="M15.1426 33.4727H15.2597C15.2262 33.4727 15.176 33.4727 15.1426 33.4894V33.4727Z" fill="url(#paint9_linear_4090_28833)"/>
<path d="M25.3835 33.4727V33.4896C25.3496 33.4727 25.3327 33.4727 25.2988 33.4727H25.3835Z" fill="url(#paint10_linear_4090_28833)"/>
<defs>
<linearGradient id="paint0_linear_4090_28833" x1="20.4172" y1="2.16776" x2="23.0477" y2="4.243" gradientUnits="userSpaceOnUse">
<stop stop-color="#B29100"/>
<stop offset="1" stop-color="#B04C00"/>
</linearGradient>
<linearGradient id="paint1_linear_4090_28833" x1="32.696" y1="7.46421" x2="34.6022" y2="10.9298" gradientUnits="userSpaceOnUse">
<stop stop-color="#B29100"/>
<stop offset="1" stop-color="#B04C00"/>
</linearGradient>
<linearGradient id="paint2_linear_4090_28833" x1="37.7819" y1="20.2425" x2="38.3119" y2="22.4632" gradientUnits="userSpaceOnUse">
<stop stop-color="#B29100"/>
<stop offset="1" stop-color="#B04C00"/>
</linearGradient>
<linearGradient id="paint3_linear_4090_28833" x1="32.696" y1="31.7611" x2="34.6022" y2="35.2267" gradientUnits="userSpaceOnUse">
<stop stop-color="#B29100"/>
<stop offset="1" stop-color="#B04C00"/>
</linearGradient>
<linearGradient id="paint4_linear_4090_28833" x1="8.3913" y1="31.7611" x2="10.2975" y2="35.2267" gradientUnits="userSpaceOnUse">
<stop stop-color="#B29100"/>
<stop offset="1" stop-color="#B04C00"/>
</linearGradient>
<linearGradient id="paint5_linear_4090_28833" x1="3.40884" y1="20.2425" x2="3.93881" y2="22.4632" gradientUnits="userSpaceOnUse">
<stop stop-color="#B29100"/>
<stop offset="1" stop-color="#B04C00"/>
</linearGradient>
<linearGradient id="paint6_linear_4090_28833" x1="8.3913" y1="7.46421" x2="10.2975" y2="10.9298" gradientUnits="userSpaceOnUse">
<stop stop-color="#B29100"/>
<stop offset="1" stop-color="#B04C00"/>
</linearGradient>
<linearGradient id="paint7_linear_4090_28833" x1="20.827" y1="37.1334" x2="22.0272" y2="41.4978" gradientUnits="userSpaceOnUse">
<stop stop-color="#B29100"/>
<stop offset="1" stop-color="#B04C00"/>
</linearGradient>
<linearGradient id="paint8_linear_4090_28833" x1="21.5559" y1="14.7715" x2="31.3228" y2="31.9085" gradientUnits="userSpaceOnUse">
<stop stop-color="#B29100"/>
<stop offset="1" stop-color="#B04C00"/>
</linearGradient>
<linearGradient id="paint9_linear_4090_28833" x1="15.2075" y1="33.4765" x2="15.2088" y2="33.492" gradientUnits="userSpaceOnUse">
<stop stop-color="#B29100"/>
<stop offset="1" stop-color="#B04C00"/>
</linearGradient>
<linearGradient id="paint10_linear_4090_28833" x1="25.3458" y1="33.4765" x2="25.3475" y2="33.4922" gradientUnits="userSpaceOnUse">
<stop stop-color="#B29100"/>
<stop offset="1" stop-color="#B04C00"/>
</linearGradient>
</defs>
</svg>
