<svg width="71" height="71" viewBox="0 0 71 71" fill="none" xmlns="http://www.w3.org/2000/svg">
<g clip-path="url(#clip0_4246_29967)">
<path d="M66.7012 45.7109C66.7012 43.4551 64.8555 41.6094 62.5996 41.6094C64.8555 41.6094 66.7012 39.7637 66.7012 37.5078C66.7012 35.252 64.8555 33.4062 62.5996 33.4062H45.7833C48.2852 25.9003 48.2441 23.5078 48.2441 18.9141C48.2441 15.5014 45.4461 12.7617 42.0918 12.7617H40.8613C40.082 12.7617 39.0977 13.3771 38.8924 14.3203C36.8634 22.2201 33.6911 31.2849 25.6855 33.1211V62.7975L32.7811 65.1522C34.8729 65.8493 37.0469 66.2186 39.2617 66.2186H58.498C60.7633 66.2188 62.5996 64.3822 62.5996 62.1172C62.5996 59.8519 60.7633 58.0156 58.498 58.0156H62.5996C64.8555 58.0156 66.7012 56.1699 66.7012 53.9141C66.7012 51.6582 64.8555 49.8125 62.5996 49.8125C64.8555 49.8125 66.7012 47.9668 66.7012 45.7109Z" fill="url(#paint0_linear_4246_29967)"/>
<path d="M15.4316 29.3047H7.22852C6.09498 29.3047 5.17773 30.2219 5.17773 31.3555V68.2695C5.17773 69.4031 6.09498 70.3203 7.22852 70.3203H15.4316C18.8242 70.3203 21.584 67.5605 21.584 64.168V35.457C21.584 32.0645 18.8242 29.3047 15.4316 29.3047ZM15.4316 62.1172C14.2991 62.1172 13.3809 61.199 13.3809 60.0664C13.3809 58.9336 14.2991 58.0156 15.4316 58.0156C16.5642 58.0156 17.4824 58.9336 17.4824 60.0664C17.4824 61.199 16.5642 62.1172 15.4316 62.1172Z" fill="url(#paint1_linear_4246_29967)"/>
<path d="M33.3899 9.36302L30.49 6.46308C29.6889 5.66205 28.3911 5.66205 27.59 6.46308C26.789 7.26412 26.789 8.56199 27.59 9.36302L30.49 12.263C31.291 13.064 32.5887 13.064 33.3899 12.263C34.191 11.4619 34.191 10.1641 33.3899 9.36302Z" fill="url(#paint2_linear_4246_29967)"/>
<path d="M56.593 6.46308C55.792 5.66205 54.4941 5.66205 53.6931 6.46308L50.7932 9.36302C49.9921 10.1641 49.9921 11.4619 50.7932 12.263C51.5942 13.064 52.8921 13.064 53.6931 12.263L56.593 9.36302C57.3941 8.56199 57.3941 7.26412 56.593 6.46308Z" fill="url(#paint3_linear_4246_29967)"/>
<path d="M42.0918 0.320312C40.9432 0.320312 40.041 1.22252 40.041 2.37109V6.60938C40.041 7.75795 40.9432 8.66016 42.0918 8.66016C43.2404 8.66016 44.1426 7.75795 44.1426 6.60938V2.37109C44.1426 1.22252 43.2404 0.320312 42.0918 0.320312Z" fill="url(#paint4_linear_4246_29967)"/>
</g>
<defs>
<linearGradient id="paint0_linear_4246_29967" x1="33.9649" y1="17.0747" x2="62.7545" y2="66.3293" gradientUnits="userSpaceOnUse">
<stop offset="0.00487589" stop-color="#FEC900"/>
<stop offset="1" stop-color="#FD8900"/>
</linearGradient>
<linearGradient id="paint1_linear_4246_29967" x1="13.3809" y1="29.3047" x2="13.3809" y2="70.3203" gradientUnits="userSpaceOnUse">
<stop stop-color="#FEC900"/>
<stop offset="1" stop-color="#FD8900"/>
</linearGradient>
<linearGradient id="paint2_linear_4246_29967" x1="30.49" y1="5.8623" x2="30.49" y2="12.8637" gradientUnits="userSpaceOnUse">
<stop stop-color="#FEC900"/>
<stop offset="1" stop-color="#FD8900"/>
</linearGradient>
<linearGradient id="paint3_linear_4246_29967" x1="53.6931" y1="5.8623" x2="53.6931" y2="12.8637" gradientUnits="userSpaceOnUse">
<stop stop-color="#FEC900"/>
<stop offset="1" stop-color="#FD8900"/>
</linearGradient>
<linearGradient id="paint4_linear_4246_29967" x1="42.0918" y1="0.320312" x2="42.0918" y2="8.66016" gradientUnits="userSpaceOnUse">
<stop stop-color="#FEC900"/>
<stop offset="1" stop-color="#FD8900"/>
</linearGradient>
<clipPath id="clip0_4246_29967">
<rect width="70" height="70" fill="white" transform="translate(0.939453 0.320312)"/>
</clipPath>
</defs>
</svg>
