<svg width="42" height="42" viewBox="0 0 42 42" fill="none" xmlns="http://www.w3.org/2000/svg">
<path d="M41.8707 10.6053C41.5667 9.99731 40.8265 9.75334 40.2196 10.055L35.2978 12.5159C34.6898 12.82 34.4434 13.559 34.7474 14.167C35.051 14.7726 35.7864 15.0214 36.3985 14.7174L41.3204 12.2564C41.9284 11.9524 42.1747 11.2134 41.8707 10.6053Z" fill="url(#paint0_linear_6961_35595)"/>
<path d="M41.3204 24.8223L36.3985 22.3614C35.7905 22.0586 35.0527 22.3025 34.7474 22.9117C34.4434 23.5197 34.6898 24.2588 35.2978 24.5628L40.2196 27.0238C40.8336 27.3287 41.5681 27.077 41.8707 26.4734C42.1747 25.8654 41.9284 25.1263 41.3204 24.8223Z" fill="url(#paint1_linear_6961_35595)"/>
<path d="M28.3008 19.8516H9.8438V13.5352C9.8438 10.1429 12.6039 7.38283 15.9961 7.38283C19.3884 7.38283 22.1485 10.143 22.1485 13.5352V15.9961C22.1485 16.6763 22.6989 17.2266 23.379 17.2266H28.3008C28.981 17.2266 29.5313 16.6763 29.5313 15.9961V13.5352C29.5313 6.07187 23.4595 0 15.9961 0C8.53284 0 2.46097 6.07187 2.46097 13.5352V20.0782C1.0318 20.5879 0 21.941 0 23.543V38.3086C0 40.3442 1.65591 42 3.69137 42H28.3008C30.3364 42 31.9922 40.3441 31.9922 38.3086V23.543C31.9922 21.5074 30.3364 19.8516 28.3008 19.8516ZM17.2266 31.9296V35.8477C17.2266 36.5278 16.6763 37.0781 15.9961 37.0781C15.316 37.0781 14.7657 36.5278 14.7657 35.8477V31.9296C13.3365 31.42 12.3047 30.0669 12.3047 28.4649C12.3047 26.4294 13.9606 24.7734 15.9961 24.7734C18.0317 24.7734 19.6875 26.4294 19.6875 28.4649C19.6875 30.067 18.6557 31.42 17.2266 31.9296Z" fill="url(#paint2_linear_6961_35595)"/>
<path d="M40.7695 17.3086H35.8477C35.1675 17.3086 34.6172 17.8589 34.6172 18.5391C34.6172 19.2192 35.1675 19.7696 35.8477 19.7696H40.7695C41.4497 19.7696 42 19.2192 42 18.5391C42 17.8589 41.4497 17.3086 40.7695 17.3086Z" fill="url(#paint3_linear_6961_35595)"/>
<defs>
<linearGradient id="paint0_linear_6961_35595" x1="38.3091" y1="9.92578" x2="38.3091" y2="14.8472" gradientUnits="userSpaceOnUse">
<stop stop-color="white"/>
<stop offset="1" stop-color="#FFD745"/>
</linearGradient>
<linearGradient id="paint1_linear_6961_35595" x1="38.3091" y1="22.2314" x2="38.3091" y2="27.1536" gradientUnits="userSpaceOnUse">
<stop stop-color="white"/>
<stop offset="1" stop-color="#FFD745"/>
</linearGradient>
<linearGradient id="paint2_linear_6961_35595" x1="15.9961" y1="0" x2="15.9961" y2="42" gradientUnits="userSpaceOnUse">
<stop stop-color="white"/>
<stop offset="1" stop-color="#FFD745"/>
</linearGradient>
<linearGradient id="paint3_linear_6961_35595" x1="38.3086" y1="17.3086" x2="38.3086" y2="19.7696" gradientUnits="userSpaceOnUse">
<stop stop-color="white"/>
<stop offset="1" stop-color="#FFD745"/>
</linearGradient>
</defs>
</svg>
