<svg width="55" height="54" viewBox="0 0 55 54" fill="none" xmlns="http://www.w3.org/2000/svg">
<path d="M35.9402 23.9742L35.9006 4.73618C35.8952 2.12467 33.7661 0 31.1545 0H5.72998C3.11298 0 0.983887 2.1291 0.983887 4.74599V23.9408C0.983887 26.5577 3.11298 28.6868 5.72998 28.6868H8.99951V31.8507C8.99951 33.1515 10.489 33.8976 11.5308 33.1163L17.4349 28.6883L31.1798 28.7299C33.8486 28.7299 35.9456 26.5798 35.9402 23.9742ZM18.3862 22.2534C17.5125 22.2534 16.8042 21.545 16.8042 20.6713C16.8042 19.7976 17.5125 19.0893 18.3862 19.0893C19.2599 19.0893 19.9683 19.7976 19.9683 20.6713C19.9683 21.545 19.2599 22.2534 18.3862 22.2534ZM20.0737 15.654V15.8199C20.0737 16.6936 19.3654 17.4019 18.4917 17.4019C17.618 17.4019 16.9097 16.6936 16.9097 15.8199V14.8328C16.9097 13.7879 17.6862 12.8907 18.716 12.7457C19.4901 12.6367 20.0737 11.9634 20.0737 11.1793C20.0737 10.0264 18.8033 9.03783 17.3497 9.96796C16.6135 10.4388 15.6353 10.2237 15.1645 9.48786C14.6937 8.7519 14.9086 7.77357 15.6446 7.30266C17.2762 6.25894 19.1915 6.15125 20.7685 7.0143C22.2915 7.84825 23.2378 9.44409 23.2378 11.1794C23.2378 13.2106 21.9292 14.9945 20.0737 15.654Z" fill="url(#paint0_linear_4244_29105)"/>
<path d="M50.2378 22.2534H39.1007L39.1043 23.9677C39.1123 27.8738 36.3149 31.0436 32.7304 31.7454H46.9683C47.842 31.7454 48.5503 32.4537 48.5503 33.3274C48.5503 34.2011 47.842 34.9094 46.9683 34.9094H27.9839C27.1102 34.9094 26.4019 34.2011 26.4019 33.3274C26.4019 32.6825 26.7884 32.1286 27.3419 31.8824L20.0737 31.8603V46.0887C20.0737 48.7056 22.2028 50.8347 24.8198 50.8347H35.5206L41.5147 53.8317C42.5635 54.3561 43.8042 53.5923 43.8042 52.4167V50.8347H50.2378C52.8548 50.8347 54.9839 48.7057 54.9839 46.0887V26.9994C54.9839 24.3824 52.8548 22.2534 50.2378 22.2534ZM46.9683 41.2372H27.9839C27.1102 41.2372 26.4019 40.5289 26.4019 39.6552C26.4019 38.7815 27.1102 38.0732 27.9839 38.0732H46.9683C47.842 38.0732 48.5503 38.7815 48.5503 39.6552C48.5503 40.5289 47.842 41.2372 46.9683 41.2372Z" fill="url(#paint1_linear_4244_29105)"/>
<defs>
<linearGradient id="paint0_linear_4244_29105" x1="18.4621" y1="-2.61259e-07" x2="26.8742" y2="44.1792" gradientUnits="userSpaceOnUse">
<stop stop-color="#B39100"/>
<stop offset="1" stop-color="#B04C00"/>
</linearGradient>
<linearGradient id="paint1_linear_4244_29105" x1="37.5288" y1="22.2534" x2="45.1486" y2="64.3435" gradientUnits="userSpaceOnUse">
<stop stop-color="#B39100"/>
<stop offset="1" stop-color="#B04C00"/>
</linearGradient>
</defs>
</svg>
