<svg width="20" height="28" viewBox="0 0 20 28" fill="none" xmlns="http://www.w3.org/2000/svg">
<path d="M19.3263 3.11794C18.891 2.68171 18.312 2.44141 17.6961 2.44141H16.6737V3.46661C16.6737 4.5972 15.7549 5.51701 14.6256 5.51701H5.40899C4.27963 5.51701 3.36084 4.5972 3.36084 3.46661V2.44141H2.33508C1.06598 2.44141 0.0323703 3.47501 0.030935 4.74555L0.00879067 24.8395C0.00807303 25.4561 0.247458 26.036 0.682707 26.4722C1.11806 26.9085 1.69699 27.1488 2.31293 27.1488H17.6739C18.943 27.1488 19.9766 26.1152 19.978 24.8446L20.0002 4.75067C20.0009 4.13407 19.7616 3.55421 19.3263 3.11794V3.11794ZM10.2656 10.1304H15.7224C16.1466 10.1304 16.4904 10.4747 16.4904 10.8993C16.4904 11.324 16.1466 11.6682 15.7224 11.6682H10.2656C9.84145 11.6682 9.4976 11.324 9.4976 10.8993C9.4976 10.4747 9.84145 10.1304 10.2656 10.1304ZM10.2656 15.2564H15.7224C16.1466 15.2564 16.4904 15.6007 16.4904 16.0253C16.4904 16.45 16.1466 16.7942 15.7224 16.7942H10.2656C9.84145 16.7942 9.4976 16.45 9.4976 16.0253C9.4976 15.6007 9.84145 15.2564 10.2656 15.2564ZM10.2656 20.3824H15.7444C16.1685 20.3824 16.5124 20.7267 16.5124 21.1513C16.5124 21.576 16.1685 21.9202 15.7444 21.9202H10.2656C9.84145 21.9202 9.4976 21.576 9.4976 21.1513C9.4976 20.7267 9.84145 20.3824 10.2656 20.3824ZM3.72161 10.1608C4.02158 9.86048 4.50784 9.86048 4.80781 10.1608L5.22543 10.5789L6.99667 8.8057C7.29664 8.50547 7.7829 8.50537 8.08282 8.8057C8.38274 9.10594 8.38274 9.5928 8.08282 9.89308L5.76848 12.2099C5.62444 12.3541 5.42908 12.4352 5.22538 12.4352C5.02167 12.4352 4.82632 12.3542 4.68227 12.2099L3.72156 11.2481C3.42164 10.9479 3.42164 10.461 3.72161 10.1608V10.1608ZM3.72161 15.6782C4.02158 15.378 4.50784 15.378 4.80781 15.6782L5.22543 16.0963L6.99667 14.3231C7.29659 14.0229 7.7829 14.0229 8.08282 14.3231C8.38274 14.6234 8.38274 15.1102 8.08282 15.4105L5.76848 17.7274C5.62449 17.8716 5.42908 17.9527 5.22538 17.9527C5.02167 17.9527 4.82632 17.8717 4.68227 17.7274L3.72156 16.7656C3.42164 16.4653 3.42164 15.9785 3.72161 15.6782V15.6782ZM3.72161 20.8043C4.02158 20.504 4.50784 20.504 4.80781 20.8043L5.22543 21.2223L6.99667 19.4491C7.29659 19.1489 7.7829 19.1489 8.08282 19.4491C8.38274 19.7494 8.38274 20.2362 8.08282 20.5365L5.76848 22.8534C5.62449 22.9976 5.42908 23.0787 5.22538 23.0787C5.02167 23.0787 4.82632 22.9977 4.68227 22.8534L3.72156 21.8916C3.42164 21.5914 3.42164 21.1045 3.72161 20.8043V20.8043Z" fill="url(#paint0_linear_3977_17494)"/>
<path d="M4.89551 3.46535C4.89551 3.74846 5.12474 3.97795 5.40755 3.97795H14.6241C14.9069 3.97795 15.1361 3.74846 15.1361 3.46535V1.41494C15.1361 1.13184 14.9069 0.902344 14.6241 0.902344H5.40755C5.12474 0.902344 4.89551 1.13184 4.89551 1.41494V3.46535Z" fill="url(#paint1_linear_3977_17494)"/>
<defs>
<linearGradient id="paint0_linear_3977_17494" x1="10.0045" y1="2.44141" x2="17.853" y2="34.3413" gradientUnits="userSpaceOnUse">
<stop stop-color="#B39100"/>
<stop offset="1" stop-color="#B04C00"/>
</linearGradient>
<linearGradient id="paint1_linear_3977_17494" x1="10.0158" y1="0.902344" x2="10.2667" y2="5.09866" gradientUnits="userSpaceOnUse">
<stop stop-color="#B39100"/>
<stop offset="1" stop-color="#B04C00"/>
</linearGradient>
</defs>
</svg>
