<svg width="20" height="20" viewBox="0 0 20 20" fill="none" xmlns="http://www.w3.org/2000/svg">
<path d="M19.9379 5.05015C19.7931 4.76062 19.4407 4.64445 19.1517 4.78808L16.808 5.95996C16.5184 6.10472 16.4011 6.45664 16.5459 6.74617C16.6905 7.03453 17.0406 7.153 17.3321 7.00824L19.6758 5.83636C19.9654 5.6916 20.0827 5.33968 19.9379 5.05015Z" fill="url(#paint0_linear_1287_8690)"/>
<path d="M19.6758 11.8197L17.3321 10.6478C17.0426 10.5036 16.6913 10.6198 16.5459 10.9099C16.4011 11.1994 16.5184 11.5513 16.808 11.6961L19.1517 12.868C19.444 13.0132 19.7938 12.8933 19.9379 12.6059C20.0827 12.3164 19.9654 11.9644 19.6758 11.8197Z" fill="url(#paint1_linear_1287_8690)"/>
<path d="M13.4764 9.45301H4.68746V6.44523C4.68746 4.82988 6.0018 3.51559 7.61711 3.51559C9.23242 3.51559 10.5468 4.82992 10.5468 6.44523V7.61711C10.5468 7.94098 10.8088 8.20305 11.1327 8.20305H13.4764C13.8003 8.20305 14.0623 7.94098 14.0623 7.61711V6.44523C14.0623 2.89133 11.171 0 7.61711 0C4.0632 0 1.17188 2.89133 1.17188 6.44523V9.56094C0.491328 9.80363 0 10.4479 0 11.2108V18.242C0 19.2113 0.788516 19.9997 1.75777 19.9997H13.4764C14.4457 19.9997 15.2342 19.2112 15.2342 18.242V11.2108C15.2342 10.2415 14.4457 9.45301 13.4764 9.45301ZM8.20305 15.2044V17.0701C8.20305 17.3939 7.94098 17.656 7.61711 17.656C7.29324 17.656 7.03117 17.3939 7.03117 17.0701V15.2044C6.35063 14.9617 5.8593 14.3174 5.8593 13.5545C5.8593 12.5852 6.64781 11.7967 7.61711 11.7967C8.58641 11.7967 9.37488 12.5852 9.37488 13.5545C9.37488 14.3174 8.88356 14.9617 8.20305 15.2044Z" fill="url(#paint2_linear_1287_8690)"/>
<path d="M19.4138 8.24219H17.0701C16.7462 8.24219 16.4841 8.50426 16.4841 8.82812C16.4841 9.15199 16.7462 9.41406 17.0701 9.41406H19.4138C19.7376 9.41406 19.9997 9.15199 19.9997 8.82812C19.9997 8.50426 19.7376 8.24219 19.4138 8.24219Z" fill="url(#paint3_linear_1287_8690)"/>
<defs>
<linearGradient id="paint0_linear_1287_8690" x1="18.2419" y1="4.72656" x2="18.2419" y2="7.07005" gradientUnits="userSpaceOnUse">
<stop stop-color="white"/>
<stop offset="1" stop-color="#FFD745"/>
</linearGradient>
<linearGradient id="paint1_linear_1287_8690" x1="18.2419" y1="10.5859" x2="18.2419" y2="12.9298" gradientUnits="userSpaceOnUse">
<stop stop-color="white"/>
<stop offset="1" stop-color="#FFD745"/>
</linearGradient>
<linearGradient id="paint2_linear_1287_8690" x1="7.61709" y1="0" x2="7.61709" y2="19.9997" gradientUnits="userSpaceOnUse">
<stop stop-color="white"/>
<stop offset="1" stop-color="#FFD745"/>
</linearGradient>
<linearGradient id="paint3_linear_1287_8690" x1="18.2419" y1="8.24219" x2="18.2419" y2="9.41406" gradientUnits="userSpaceOnUse">
<stop stop-color="white"/>
<stop offset="1" stop-color="#FFD745"/>
</linearGradient>
</defs>
</svg>
