<svg width="60" height="60" viewBox="0 0 60 60" fill="none" xmlns="http://www.w3.org/2000/svg">
<g clip-path="url(#clip0_1073_2691)">
<path d="M56.0103 30.7771C55.7689 30.2832 55.7689 29.7167 56.0103 29.2229L58.2481 24.645C59.494 22.096 58.5069 19.058 56.0007 17.7283L51.4995 15.34C51.0139 15.0824 50.681 14.624 50.586 14.0827L49.7057 9.0637C49.2155 6.26927 46.6306 4.39147 43.8219 4.78885L38.7767 5.50251C38.2321 5.57939 37.6937 5.40431 37.2986 5.02216L33.6364 1.47937C31.5972 -0.49335 28.4027 -0.493468 26.3637 1.47937L22.7014 5.02252C22.3062 5.40478 21.7677 5.5795 21.2233 5.50286L16.178 4.7892C13.3685 4.39158 10.7845 6.26962 10.2943 9.06405L9.41401 14.0828C9.31898 14.6242 8.98605 15.0825 8.50054 15.3402L3.9994 17.7285C1.49324 19.0581 0.50606 22.0964 1.75199 24.6453L3.98967 29.2231C4.23108 29.7171 4.23108 30.2835 3.98967 30.7774L1.75187 35.3551C0.505942 37.9041 1.49312 40.9421 3.99928 42.2719L8.50043 44.6601C8.98605 44.9177 9.31898 45.3761 9.41401 45.9174L10.2943 50.9364C10.7406 53.4803 12.9219 55.2644 15.4289 55.2641C15.6758 55.2641 15.9263 55.2468 16.1782 55.2112L21.2234 54.4975C21.7675 54.4203 22.3063 54.5957 22.7015 54.9778L26.3637 58.5206C27.3834 59.5071 28.6915 60.0002 30 60.0001C31.3081 60 32.617 59.5069 33.6363 58.5206L37.2986 54.9778C37.6938 54.5957 38.2324 54.4211 38.7767 54.4975L43.8219 55.2112C46.6318 55.6087 49.2155 53.7307 49.7057 50.9363L50.5861 45.9175C50.6811 45.3761 51.014 44.9178 51.4995 44.6601L56.0007 42.2719C58.5069 40.9423 59.494 37.904 58.2481 35.355L56.0103 30.7771ZM23.0788 14.4276C26.5771 14.4276 29.4232 17.2737 29.4232 20.772C29.4232 24.2702 26.5771 27.1163 23.0788 27.1163C19.5806 27.1163 16.7344 24.2702 16.7344 20.772C16.7344 17.2737 19.5806 14.4276 23.0788 14.4276ZM19.8041 42.6426C19.4663 42.9805 19.0235 43.1495 18.5807 43.1495C18.138 43.1495 17.695 42.9806 17.3573 42.6426C16.6816 41.9669 16.6816 40.8714 17.3573 40.1957L40.1957 17.3572C40.8713 16.6815 41.967 16.6815 42.6427 17.3572C43.3184 18.0329 43.3184 19.1285 42.6427 19.8042L19.8041 42.6426ZM36.9209 45.5726C33.4227 45.5726 30.5765 42.7264 30.5765 39.2282C30.5765 35.7299 33.4227 32.8838 36.9209 32.8838C40.4192 32.8838 43.2653 35.7299 43.2653 39.2282C43.2653 42.7264 40.4192 45.5726 36.9209 45.5726Z" fill="url(#paint0_linear_1073_2691)"/>
<path d="M36.921 36.3444C35.3309 36.3444 34.0371 37.6381 34.0371 39.2282C34.0371 40.8183 35.3307 42.1119 36.921 42.1119C38.5111 42.1119 39.8047 40.8183 39.8047 39.2282C39.8047 37.6381 38.5111 36.3444 36.921 36.3444Z" fill="url(#paint1_linear_1073_2691)"/>
<path d="M23.079 17.8881C21.4889 17.8881 20.1953 19.1817 20.1953 20.7718C20.1953 22.3619 21.4889 23.6557 23.079 23.6557C24.6692 23.6557 25.9629 22.3621 25.9629 20.7718C25.9628 19.1818 24.6692 17.8881 23.079 17.8881Z" fill="url(#paint2_linear_1073_2691)"/>
</g>
<defs>
<linearGradient id="paint0_linear_1073_2691" x1="30" y1="-0.000214092" x2="46.3416" y2="78.7657" gradientUnits="userSpaceOnUse">
<stop stop-color="#B39100"/>
<stop offset="1" stop-color="#B04C00"/>
</linearGradient>
<linearGradient id="paint1_linear_1073_2691" x1="36.9209" y1="36.3444" x2="38.4331" y2="43.9406" gradientUnits="userSpaceOnUse">
<stop stop-color="#B39100"/>
<stop offset="1" stop-color="#B04C00"/>
</linearGradient>
<linearGradient id="paint2_linear_1073_2691" x1="23.0791" y1="17.8881" x2="24.5913" y2="25.4844" gradientUnits="userSpaceOnUse">
<stop stop-color="#B39100"/>
<stop offset="1" stop-color="#B04C00"/>
</linearGradient>
<clipPath id="clip0_1073_2691">
<rect width="60" height="60" fill="white"/>
</clipPath>
</defs>
</svg>
