<svg width="75" height="75" viewBox="0 0 75 75" fill="none" xmlns="http://www.w3.org/2000/svg">
<path d="M38.7685 49.3414C38.7092 47.8398 39.2506 46.4655 40.1708 45.4375H29.5637V56.0446C28.5357 55.1243 27.1613 54.5829 25.6598 54.6423C22.8017 54.7554 20.4753 57.0858 20.3673 59.9441C20.2484 63.0904 22.7638 65.6783 25.8836 65.6783C27.2977 65.6783 28.5871 65.146 29.5638 64.2717V75.0015H55.4476C57.48 75.0015 59.1278 73.3539 59.1278 71.3213V45.4375H48.398C49.2723 46.4142 49.8046 47.7036 49.8046 49.1177C49.8046 52.2375 47.2166 54.7528 44.0704 54.634C41.212 54.5259 38.8814 52.1996 38.7685 49.3414Z" fill="url(#paint0_linear_3702_10829)"/>
<path d="M33.2441 25.1941C31.83 25.1941 30.5406 25.7265 29.5639 26.601V15.8711H3.68023C1.64764 15.8711 0 17.5187 0 19.5512V41.0405H4.95405C5.31263 36.0481 9.43041 32.0375 14.4633 31.8474C14.5906 31.8425 14.717 31.8402 14.8434 31.8402C20.0702 31.8402 24.3652 35.9057 24.7326 41.0405H29.564V34.8279C30.592 35.7482 31.9663 36.2896 33.4679 36.2301C36.326 36.1171 38.6524 33.7867 38.7603 30.9283C38.8793 27.7822 36.3639 25.1941 33.2441 25.1941Z" fill="url(#paint1_linear_3702_10829)"/>
<path d="M18.7413 67.032C16.8553 65.0734 15.8733 62.4962 15.9763 59.7754C16.1664 54.7427 20.1771 50.6249 25.1695 50.2663V45.4349H18.9568C19.8311 44.4581 20.3636 43.1688 20.3636 41.7547C20.3636 38.6349 17.7755 36.1196 14.6294 36.2384C11.7711 36.3465 9.44066 38.6728 9.32758 41.5308C9.26825 43.0324 9.80965 44.4067 10.7299 45.4347H0V71.3185C0 73.3513 1.64764 74.9989 3.68023 74.9989H25.1697V70.0441C22.7455 69.8665 20.4348 68.7908 18.7413 67.032Z" fill="url(#paint2_linear_3702_10829)"/>
<path fill-rule="evenodd" clip-rule="evenodd" d="M45.4347 13.2315V10.7299V0H71.3185C73.351 0 74.9987 1.64764 74.9984 3.68023V29.564H64.2686C65.1431 30.5408 65.6754 31.8301 65.6754 33.2443C65.6754 36.364 63.0875 38.8794 59.9412 38.7605C57.0829 38.6525 54.7525 36.3261 54.6394 33.4681C54.5799 31.9665 55.1213 30.5922 56.0417 29.5642H45.4346V18.9571L45.4347 17V14.6294V13.2315ZM65.6381 7.80445L60.8741 12.577L56.1406 7.81986C55.9819 7.65887 55.7928 7.53107 55.5844 7.44386C55.376 7.35664 55.1524 7.31178 54.9265 7.31184C54.7001 7.30823 54.4754 7.35145 54.2665 7.43888C54.0576 7.5263 53.8691 7.65601 53.7126 7.81986C53.3949 8.14565 53.2133 8.58073 53.2053 9.03609C53.2035 9.26261 53.2476 9.48712 53.3347 9.69614C53.4219 9.90516 53.5504 10.0943 53.7126 10.2523L58.4612 15.0094L53.7126 19.7665C53.549 19.9233 53.4196 20.1123 53.3323 20.3216C53.245 20.5309 53.2017 20.7559 53.2053 20.9827C53.2081 21.2099 53.2557 21.4344 53.3454 21.6431C53.4351 21.8518 53.5651 22.0407 53.7279 22.1989C53.8799 22.3635 54.0659 22.4929 54.2729 22.578C54.48 22.6631 54.7029 22.7019 54.9265 22.6916C55.1524 22.6916 55.376 22.6467 55.5844 22.5595C55.7928 22.4723 55.9819 22.3445 56.1406 22.1835L60.9047 17.4111L65.6228 22.1835C65.7804 22.3459 65.9692 22.4747 66.1779 22.562C66.3865 22.6493 66.6106 22.6934 66.8367 22.6916C67.2913 22.6835 67.7256 22.5018 68.0508 22.1835C68.2104 22.0277 68.3364 21.8408 68.421 21.6342C68.5056 21.4277 68.5471 21.2059 68.5427 20.9827C68.5553 20.7562 68.5176 20.5298 68.4326 20.3195C68.3476 20.1093 68.2172 19.9204 68.0508 19.7665L63.3022 15.0094L68.0662 10.2369C68.3913 9.92108 68.579 9.48963 68.5887 9.03609C68.5967 8.81468 68.5569 8.59415 68.472 8.38956C68.3871 8.18498 68.2593 8.00114 68.097 7.85063C67.9402 7.68077 67.7501 7.54523 67.5385 7.4525C67.3269 7.35977 67.0984 7.3119 66.8675 7.31184C66.6388 7.29695 66.4099 7.33343 66.1972 7.41867C65.9845 7.50391 65.7935 7.63572 65.6381 7.80445Z" fill="url(#paint3_linear_3702_10829)"/>
<defs>
<linearGradient id="paint0_linear_3702_10829" x1="39.7456" y1="45.4375" x2="45.7531" y2="85.0063" gradientUnits="userSpaceOnUse">
<stop stop-color="#B39100"/>
<stop offset="1" stop-color="#B04C00"/>
</linearGradient>
<linearGradient id="paint1_linear_3702_10829" x1="19.3822" y1="15.8711" x2="23.7637" y2="49.7683" gradientUnits="userSpaceOnUse">
<stop stop-color="#B39100"/>
<stop offset="1" stop-color="#B04C00"/>
</linearGradient>
<linearGradient id="paint2_linear_3702_10829" x1="12.5848" y1="36.2344" x2="27.4605" y2="84.7524" gradientUnits="userSpaceOnUse">
<stop stop-color="#B39100"/>
<stop offset="1" stop-color="#B04C00"/>
</linearGradient>
<linearGradient id="paint3_linear_3702_10829" x1="60.2165" y1="-7.74869e-08" x2="73.1878" y2="49.693" gradientUnits="userSpaceOnUse">
<stop stop-color="#B39100"/>
<stop offset="1" stop-color="#B04C00"/>
</linearGradient>
</defs>
</svg>
