<svg width="68" height="68" viewBox="0 0 68 68" fill="none" xmlns="http://www.w3.org/2000/svg">
<path d="M55.3592 19.6002C55.7286 17.6898 55.671 15.7213 55.1906 13.8357C54.7102 11.9501 53.8189 10.194 52.5805 8.69319C51.342 7.19236 49.7871 5.9839 48.0269 5.15431C46.2668 4.32472 44.345 3.89453 42.3992 3.89453C40.4534 3.89453 38.5316 4.32472 36.7715 5.15431C35.0114 5.9839 33.4564 7.19236 32.218 8.69319C30.9795 10.194 30.0882 11.9501 29.6078 13.8357C29.1274 15.7213 29.0699 17.6898 29.4392 19.6002H55.3592Z" fill="url(#paint0_linear_4154_29587)"/>
<path d="M67.6004 48.4V41.2C67.6004 40.8817 67.474 40.5765 67.2489 40.3515C67.0239 40.1264 66.7187 40 66.4004 40H59.2004C57.9274 40 56.7065 40.5057 55.8063 41.4059C54.9061 42.3061 54.4004 43.527 54.4004 44.8C54.4004 46.073 54.9061 47.2939 55.8063 48.1941C56.7065 49.0943 57.9274 49.6 59.2004 49.6H66.4004C66.7187 49.6 67.0239 49.4736 67.2489 49.2485C67.474 49.0235 67.6004 48.7183 67.6004 48.4Z" fill="url(#paint1_linear_4154_29587)"/>
<path d="M33.7164 4.24522C31.4937 2.02055 28.549 0.663493 25.4137 0.418877C22.2784 0.174262 19.1589 1.05819 16.618 2.9112C14.0771 4.76421 12.282 7.4643 11.5567 10.5243C10.8314 13.5844 11.2236 16.8029 12.6624 19.5992H27.0048C26.875 18.8057 26.8064 18.0033 26.7996 17.1992C26.7952 14.6371 27.4244 12.1137 28.6312 9.85359C29.838 7.59348 31.5849 5.66685 33.7164 4.24522Z" fill="url(#paint2_linear_4154_29587)"/>
<path d="M64.0006 19.6V11.2C64.0006 10.8817 63.8742 10.5765 63.6492 10.3515C63.4241 10.1264 63.1189 10 62.8006 10H56.2402C57.4007 12.2223 58.0047 14.693 58.0006 17.2C57.9939 18.0041 57.9253 18.8064 57.7954 19.6H64.0006Z" fill="url(#paint3_linear_4154_29587)"/>
<path d="M15.9996 32.8C17.3251 32.8 18.3996 31.7255 18.3996 30.4C18.3996 29.0745 17.3251 28 15.9996 28C14.6741 28 13.5996 29.0745 13.5996 30.4C13.5996 31.7255 14.6741 32.8 15.9996 32.8Z" fill="url(#paint4_linear_4154_29587)"/>
<path d="M25.5992 47.1984C26.9247 47.1984 27.9992 46.1239 27.9992 44.7984C27.9992 43.473 26.9247 42.3984 25.5992 42.3984C24.2737 42.3984 23.1992 43.473 23.1992 44.7984C23.1992 46.1239 24.2737 47.1984 25.5992 47.1984Z" fill="url(#paint5_linear_4154_29587)"/>
<path d="M10.1588 54.0621C9.93217 53.7917 9.64907 53.5742 9.32938 53.425C9.0097 53.2757 8.6612 53.1983 8.30839 53.1981H0.400391V62.7981C0.400391 64.0712 0.906104 65.2921 1.80628 66.1922C2.70645 67.0924 3.92735 67.5981 5.20039 67.5981H64.0004C64.3187 67.5981 64.6239 67.4717 64.8489 67.2467C65.074 67.0216 65.2004 66.7164 65.2004 66.3981V51.9981H59.2004C57.2908 51.9981 55.4595 51.2396 54.1092 49.8893C52.759 48.539 52.0004 46.7077 52.0004 44.7981C52.0004 42.8886 52.759 41.0572 54.1092 39.707C55.4595 38.3567 57.2908 37.5981 59.2004 37.5981H65.2004V23.1981C65.2004 22.8799 65.074 22.5746 64.8489 22.3496C64.6239 22.1246 64.3187 21.9981 64.0004 21.9981H5.45239C3.5902 21.9978 1.79277 21.3147 0.400391 20.0781V36.3981H8.30839C8.66205 36.3978 9.01135 36.32 9.33167 36.1701C9.652 36.0202 9.93556 35.8019 10.1624 35.5305L12.11 33.1881C11.4091 32.2289 11.0826 31.0468 11.1919 29.8638C11.3012 28.6808 11.8388 27.5785 12.7036 26.764C13.5684 25.9494 14.7009 25.4788 15.8883 25.4404C17.0757 25.4021 18.2362 25.7987 19.1517 26.5557C20.0673 27.3127 20.6749 28.3781 20.8603 29.5515C21.0457 30.725 20.7962 31.9257 20.1586 32.9282C19.5211 33.9306 18.5394 34.6657 17.398 34.9953C16.2566 35.3249 15.0342 35.2263 13.9604 34.7181L12.0032 37.0701C11.5515 37.6112 10.9865 38.0465 10.348 38.3451C9.70952 38.6437 9.01324 38.7984 8.30839 38.7981H0.400391V43.5981H20.9708C21.2629 42.4669 21.9575 41.4811 22.9244 40.8254C23.8913 40.1697 25.0642 39.8892 26.2232 40.0364C27.3822 40.1836 28.4477 40.7484 29.22 41.625C29.9923 42.5017 30.4184 43.6298 30.4184 44.7981C30.4184 45.9664 29.9923 47.0946 29.22 47.9712C28.4477 48.8478 27.3822 49.4127 26.2232 49.5599C25.0642 49.7071 23.8913 49.4265 22.9244 48.7708C21.9575 48.1152 21.2629 47.1293 20.9708 45.9981H0.400391V50.7981H8.30839C9.01256 50.7974 9.70827 50.9516 10.3462 51.2498C10.9841 51.548 11.5486 51.983 11.9996 52.5237L13.9604 54.8781C14.5961 54.568 15.2931 54.404 16.0004 54.3981C17.0862 54.3909 18.1429 54.7496 18.9999 55.4164C19.857 56.0831 20.4645 57.0191 20.7244 58.0734C20.9844 59.1277 20.8817 60.2388 20.433 61.2276C19.9842 62.2164 19.2154 63.0252 18.2507 63.5237C17.286 64.0221 16.1815 64.1811 15.1154 63.975C14.0493 63.7689 13.0836 63.2097 12.3742 62.3877C11.6647 61.5656 11.2528 60.5285 11.2049 59.4437C11.157 58.3589 11.4758 57.2896 12.11 56.4081L10.1588 54.0621Z" fill="url(#paint6_linear_4154_29587)"/>
<path d="M15.9996 61.6008C17.3251 61.6008 18.3996 60.5263 18.3996 59.2008C18.3996 57.8753 17.3251 56.8008 15.9996 56.8008C14.6741 56.8008 13.5996 57.8753 13.5996 59.2008C13.5996 60.5263 14.6741 61.6008 15.9996 61.6008Z" fill="url(#paint7_linear_4154_29587)"/>
<path d="M0.399592 14.812C0.395996 14.9558 0.400804 15.0996 0.413992 15.2428C0.569329 16.4621 1.16939 17.5812 2.09907 18.3853C3.02876 19.1894 4.2226 19.622 5.45159 19.6H9.99239C8.72453 16.5622 8.45926 13.199 9.23519 10H5.19959C3.92811 10.0051 2.71015 10.5124 1.81106 11.4115C0.911983 12.3106 0.404647 13.5285 0.399592 14.8V14.812Z" fill="url(#paint8_linear_4154_29587)"/>
<defs>
<linearGradient id="paint0_linear_4154_29587" x1="42.3992" y1="3.89453" x2="44.9109" y2="25.1023" gradientUnits="userSpaceOnUse">
<stop stop-color="#B39100"/>
<stop offset="1" stop-color="#B04C00"/>
</linearGradient>
<linearGradient id="paint1_linear_4154_29587" x1="61.0004" y1="40" x2="62.8645" y2="52.875" gradientUnits="userSpaceOnUse">
<stop stop-color="#B39100"/>
<stop offset="1" stop-color="#B04C00"/>
</linearGradient>
<linearGradient id="paint2_linear_4154_29587" x1="22.4588" y1="0.378906" x2="26.8057" y2="25.9579" gradientUnits="userSpaceOnUse">
<stop stop-color="#B39100"/>
<stop offset="1" stop-color="#B04C00"/>
</linearGradient>
<linearGradient id="paint3_linear_4154_29587" x1="60.1204" y1="10" x2="63.1725" y2="22.3933" gradientUnits="userSpaceOnUse">
<stop stop-color="#B39100"/>
<stop offset="1" stop-color="#B04C00"/>
</linearGradient>
<linearGradient id="paint4_linear_4154_29587" x1="15.9996" y1="28" x2="17.2581" y2="34.3219" gradientUnits="userSpaceOnUse">
<stop stop-color="#B39100"/>
<stop offset="1" stop-color="#B04C00"/>
</linearGradient>
<linearGradient id="paint5_linear_4154_29587" x1="25.5992" y1="42.3984" x2="26.8578" y2="48.7204" gradientUnits="userSpaceOnUse">
<stop stop-color="#B39100"/>
<stop offset="1" stop-color="#B04C00"/>
</linearGradient>
<linearGradient id="paint6_linear_4154_29587" x1="32.8004" y1="20.0781" x2="42.1012" y2="83.7877" gradientUnits="userSpaceOnUse">
<stop stop-color="#B39100"/>
<stop offset="1" stop-color="#B04C00"/>
</linearGradient>
<linearGradient id="paint7_linear_4154_29587" x1="15.9996" y1="56.8008" x2="17.2581" y2="63.1227" gradientUnits="userSpaceOnUse">
<stop stop-color="#B39100"/>
<stop offset="1" stop-color="#B04C00"/>
</linearGradient>
<linearGradient id="paint8_linear_4154_29587" x1="5.19541" y1="10" x2="7.71435" y2="22.6442" gradientUnits="userSpaceOnUse">
<stop stop-color="#B39100"/>
<stop offset="1" stop-color="#B04C00"/>
</linearGradient>
</defs>
</svg>
