<svg width="114" height="34" viewBox="0 0 114 34" fill="none" xmlns="http://www.w3.org/2000/svg">
<g clipPath="url(#clip0_1945_4770)">
<path d="M19.8969 25.508L17.5735 23.1367C17.48 23.0405 17.3708 22.9764 17.2461 22.9123H17.2305C17.1213 22.8643 16.9966 22.8322 16.8719 22.8322C16.7471 22.8322 16.6224 22.8643 16.5132 22.9123H16.4976C16.3729 22.9604 16.2637 23.0405 16.1702 23.1367C16.0766 23.2328 16.0142 23.3449 15.9519 23.4571V23.4731C15.9051 23.5853 15.8895 23.7135 15.8895 23.8417V26.213V27.1263L15.3126 26.5335L9.30927 20.4128C9.21572 20.3167 9.10657 20.2366 8.98182 20.1885C8.98182 20.1885 8.98182 20.1885 8.96623 20.1885C8.85708 20.1404 8.73234 20.1084 8.60759 20.1084C8.48285 20.1084 8.3581 20.1404 8.24895 20.1885C8.24895 20.1885 8.24895 20.1885 8.23336 20.1885C7.98387 20.2846 7.79676 20.4929 7.68761 20.7333C7.68761 20.7333 7.68761 20.7333 7.68761 20.7493C7.64083 20.8614 7.60964 20.9896 7.60964 21.1178V24.3864L7.01711 23.7936L1.88703 18.5702L0.468075 17.1282C0.468075 17.1282 -0.623431 18.6343 0.483668 19.9962L5.56697 25.1715L7.90591 27.5589C7.99947 27.655 8.10862 27.7351 8.23336 27.7832C8.34251 27.8313 8.46726 27.8633 8.60759 27.8633C8.73234 27.8633 8.85708 27.8313 8.98182 27.7832C9.23131 27.6871 9.41842 27.4788 9.52757 27.2384V27.2224C9.57435 27.1103 9.60554 26.9821 9.60554 26.8539V23.5693L13.8624 27.9114L16.1858 30.2827C16.2793 30.3789 16.3885 30.443 16.4976 30.491H16.5132C16.6224 30.5391 16.7315 30.5551 16.8563 30.5551H16.8719C16.9966 30.5551 17.1057 30.5231 17.2149 30.491H17.2305C17.3552 30.443 17.4644 30.3629 17.5423 30.2827C17.6359 30.1866 17.6983 30.0745 17.7607 29.9623V29.9463C17.8074 29.8341 17.823 29.722 17.823 29.5938V26.3252L18.4467 26.9661L23.951 32.59L25.37 34.0481C25.37 34.0481 26.4615 32.5419 25.3544 31.164L19.8969 25.508Z" fill="#FA7909"/>
<path d="M67.9695 13.8755V7.99524H70.6827V8.78035H68.9207V10.4307H70.4332V11.1998H68.9207V13.0904H70.6982V13.8755H67.9695Z" fill="#FA7909"/>
<path d="M75.6882 13.8756V11.2319C75.6882 10.607 75.5946 10.2385 75.236 10.2385C74.9865 10.2385 74.8149 10.4308 74.5031 10.8634V13.8756H73.5987V11.2319C73.5987 10.607 73.5051 10.2225 73.1465 10.2225C72.897 10.2225 72.7099 10.4148 72.4136 10.8474V13.8596H71.4937V9.54954H72.1953L72.2733 10.1103C72.5852 9.67772 72.897 9.43738 73.3648 9.43738C73.8638 9.43738 74.1756 9.69374 74.3472 10.1584C74.6902 9.67772 75.0021 9.4534 75.4699 9.4534C76.2807 9.4534 76.6081 10.1424 76.6081 11.0557V13.8756H75.6882Z" fill="#FA7909"/>
<path d="M79.1186 10.2225C78.8847 10.2225 78.7132 10.3507 78.3702 10.8474V13.0425C78.5261 13.1386 78.7132 13.1706 78.9315 13.1706C79.4617 13.1706 79.7268 12.6099 79.7268 11.6325C79.7268 10.8794 79.6176 10.2225 79.1186 10.2225ZM78.9627 13.9237C78.7444 13.9237 78.5261 13.8917 78.3702 13.8596V15.5901H77.4502V9.54954H78.1519L78.2142 10.1264C78.5573 9.64567 78.8692 9.43738 79.3213 9.43738C80.2725 9.43738 80.6623 10.3827 80.6623 11.5524C80.6935 12.8662 80.1634 13.9237 78.9627 13.9237Z" fill="#FA7909"/>
<path d="M82.8764 10.2064C82.3619 10.2064 82.1435 10.7993 82.1435 11.6645C82.1435 12.6739 82.393 13.2027 82.9076 13.2027C83.4222 13.2027 83.6561 12.6258 83.6561 11.7446C83.6405 10.7512 83.3754 10.2064 82.8764 10.2064ZM82.8608 13.9717C81.7537 13.9717 81.1924 13.1546 81.1924 11.7766C81.1924 10.3186 81.8005 9.45337 82.9232 9.45337C84.0303 9.45337 84.6072 10.2865 84.6072 11.6805C84.5916 13.1065 83.9835 13.9717 82.8608 13.9717Z" fill="#FA7909"/>
<path d="M90.1894 9.54944C89.9555 10.9915 89.6437 12.4175 89.2539 13.8595H88.1779L87.6634 11.1837L87.5698 10.671H87.5542L87.4607 11.1837L86.9773 13.8595H85.917C85.5115 12.4495 85.1685 10.9755 84.9502 9.54944H85.9014C86.0261 10.4627 86.1976 11.376 86.3692 12.2893C86.4159 12.5136 86.4627 12.754 86.4939 12.9943H86.5095L86.6186 12.3214L87.1332 9.56546H88.0844L88.6145 12.3374L88.7393 12.9943H88.7549C88.8017 12.77 88.8484 12.5136 88.8796 12.2733C89.0511 11.36 89.1915 10.4627 89.3006 9.56546H90.1894V9.54944Z" fill="#FA7909"/>
<path d="M92.809 11.2479C92.8246 10.5429 92.6219 10.1264 92.2009 10.1264C91.6864 10.1264 91.5148 10.6871 91.4836 11.2479H92.809ZM93.6978 11.9049H91.4992C91.4992 12.738 91.7175 13.2187 92.3724 13.2187C92.809 13.2187 93.1365 13.1386 93.4951 13.0104L93.5887 13.7314C93.1833 13.8756 92.7311 13.9718 92.2321 13.9718C91.0938 13.9718 90.5325 13.2347 90.5325 11.7286C90.5325 10.3026 91.1094 9.43738 92.2165 9.43738C93.2768 9.43738 93.6822 10.1744 93.6822 11.4242C93.7134 11.5363 93.6978 11.7446 93.6978 11.9049Z" fill="#FA7909"/>
<path d="M96.3644 10.3987C96.2397 10.3506 96.1305 10.3186 96.037 10.3186C95.8499 10.3186 95.6939 10.5269 95.3509 11.0556V13.8596H94.4309V9.5495H95.1326L95.2106 10.2705C95.538 9.67769 95.7407 9.45337 96.0838 9.45337C96.2085 9.45337 96.3332 9.48541 96.458 9.51746L96.3644 10.3987Z" fill="#FA7909"/>
<path d="M97.7054 8.84449C97.3779 8.84449 97.144 8.58813 97.144 8.25165C97.144 7.91518 97.3779 7.65881 97.7054 7.65881C98.0484 7.65881 98.2667 7.91518 98.2667 8.25165C98.2667 8.60415 98.0328 8.84449 97.7054 8.84449ZM97.2532 13.8756V10.2865H96.7698V9.54948H98.1731V13.8596H97.2532V13.8756Z" fill="#FA7909"/>
<path d="M101.245 13.8756V11.2319C101.245 10.607 101.12 10.2385 100.73 10.2385C100.465 10.2385 100.263 10.4308 99.9664 10.8634V13.8756H99.0464V9.54954H99.7481L99.826 10.1103C100.138 9.67772 100.481 9.43738 100.964 9.43738C101.806 9.43738 102.149 10.1264 102.149 11.0396V13.8596H101.245V13.8756Z" fill="#FA7909"/>
<path d="M105.143 10.3666C104.987 10.2865 104.8 10.2384 104.597 10.2384C104.052 10.2384 103.787 10.7992 103.787 11.7446C103.787 12.4816 103.896 13.1385 104.379 13.1385C104.613 13.1385 104.785 13.0264 105.128 12.5137V10.3666H105.143ZM106.048 14.0198C106.048 15.3977 105.486 15.6701 104.332 15.6701C103.989 15.6701 103.615 15.6381 103.272 15.574L103.303 14.885C103.615 14.9171 103.942 14.9171 104.254 14.9171C104.894 14.9171 105.112 14.6767 105.112 13.7955V13.3308C104.831 13.7314 104.519 13.9076 104.098 13.9076C103.194 13.9076 102.804 12.9783 102.804 11.8407C102.804 10.5108 103.35 9.46936 104.644 9.46936C105.081 9.46936 105.627 9.86993 106.032 10.0141V14.0198H106.048Z" fill="#FA7909"/>
<path d="M9.3242 3.31668L7.49983 1.45806L6.08087 0C6.08087 0 4.98936 1.50613 6.09646 2.88407L7.92084 4.74269L24.0128 21.1499L25.4317 22.6079C25.4317 22.6079 26.5232 21.1018 25.4161 19.7238L9.3242 3.31668Z" fill="white"/>
<path d="M14.8756 3.25268L13.098 1.45815L11.679 0.0161133C11.679 0.0161133 10.5875 1.52224 11.6946 2.90018L13.4566 4.69472L24.013 15.4299L25.432 16.8879C25.432 16.8879 26.5235 15.3818 25.4164 14.0039L14.8756 3.25268Z" fill="white"/>
<path d="M21.0197 3.81338L18.6964 1.45806L17.2774 0C17.2774 0 16.1859 1.50613 17.293 2.88407L19.6163 5.25542L24.0291 9.74175L25.4481 11.1998C25.4481 11.1998 26.5396 9.69368 25.4325 8.31574L21.0197 3.81338Z" fill="white"/>
<path d="M23.0305 3.02827L23.9973 4.00565L25.4162 5.46371C25.4162 5.46371 26.5077 3.95759 25.4006 2.57964L24.5586 1.71442L24.2935 1.44204L22.8746 0C22.8746 0 21.7831 1.50613 22.8902 2.88407L23.0305 3.02827Z" fill="white"/>
<path d="M2.82245 10.9595L13.0202 21.3421L14.4392 22.8002C14.4392 22.8002 15.5307 21.294 14.4236 19.9161L3.94515 9.24504L1.91806 7.17812L0.499105 5.73608C0.499105 5.73608 -0.576808 7.24221 0.530291 8.62015L2.82245 10.9595Z" fill="white"/>
<path d="M0.499293 14.2922L2.79146 16.6315L4.75617 18.6344L6.17512 20.0764C6.17512 20.0764 7.26663 18.5703 6.15953 17.1923L4.19482 15.2055L1.90266 12.8662L0.4837 11.4242C0.4837 11.4242 -0.607806 12.9303 0.499293 14.2922Z" fill="white"/>
<path d="M3.99187 3.58907L1.90241 1.45806L0.483456 0C0.483456 0 -0.60805 1.50613 0.499049 2.88407L2.5885 5.01508L24.0132 26.8539L25.4322 28.312C25.4322 28.312 26.5237 26.8058 25.4166 25.4279L3.99187 3.58907Z" fill="white"/>
<path d="M49.3668 9.86987C48.9614 9.86987 48.6652 10.1743 48.1662 10.8312L48.1038 9.98203H47.6516V14.5645H48.1974V11.4241C48.7899 10.687 49.055 10.3986 49.3824 10.3986C49.5072 10.3986 49.7411 10.4467 49.8502 10.4787L49.9594 9.96601C49.7411 9.8859 49.5851 9.86987 49.3668 9.86987Z" fill="white"/>
<path d="M28.722 6.16882C29.2365 6.31303 29.7199 6.39314 30.2813 6.39314C31.4196 6.39314 31.9341 5.88042 31.9341 5.12735C31.9341 4.43838 31.669 4.21406 30.3748 3.58918C29.065 2.9643 28.6284 2.62782 28.6284 1.69851C28.6284 0.769201 29.2989 0.128296 30.7491 0.128296C31.2948 0.128296 31.7626 0.208409 32.1836 0.33659L32.1056 0.785223C31.669 0.657042 31.2792 0.592952 30.7491 0.592952C29.642 0.592952 29.1898 1.04159 29.1898 1.69851C29.1898 2.32339 29.4548 2.57976 30.7023 3.18862C32.0589 3.82952 32.4955 4.14997 32.4955 5.12735C32.4955 6.21689 31.7158 6.88984 30.2813 6.88984C29.7043 6.88984 29.1898 6.80973 28.6752 6.6495L28.722 6.16882Z" fill="white"/>
<path d="M28.987 8.04346H30.6399C32.0277 8.04346 32.6358 8.34789 32.6358 9.74185C32.6358 11.0878 31.9497 11.6325 30.5307 11.6325H29.5328V14.5807H28.9714V8.04346H28.987ZM30.5775 11.1679C31.6222 11.1679 32.1056 10.7673 32.1056 9.75788C32.1056 8.70038 31.6846 8.47607 30.6243 8.47607H29.5484V11.1679H30.5775Z" fill="white"/>
<path d="M34.7725 14.6928C33.5718 14.6928 32.8857 14.2442 32.8857 12.2894C32.8857 10.3507 33.603 9.854 34.7881 9.854C35.9887 9.854 36.6748 10.3187 36.6748 12.2574C36.6748 14.1961 35.9731 14.6928 34.7725 14.6928ZM34.7725 10.3026C33.9149 10.3026 33.4315 10.6071 33.4315 12.2734C33.4315 13.9398 33.9305 14.2602 34.7881 14.2602C35.6457 14.2602 36.1291 13.9558 36.1291 12.2894C36.1291 10.6071 35.6301 10.3026 34.7725 10.3026Z" fill="white"/>
<path d="M42.4122 9.98206L41.6637 12.5937C41.5234 13.1225 41.3986 13.5871 41.2739 14.1479H41.2583C41.118 13.6032 40.9932 13.1225 40.8373 12.5937L40.0732 9.98206H39.5275L39.7302 10.671L39.1844 12.5937C39.0441 13.1225 38.9038 13.6512 38.779 14.1479H38.7634C38.6231 13.6032 38.5139 13.1385 38.3424 12.5937L37.5628 9.98206H36.9858L38.3736 14.5645H39.1065L39.8705 11.9368C39.9017 11.8086 39.9485 11.6805 39.9797 11.5523L40.8841 14.5805H41.6169L42.9579 9.99808H42.4122V9.98206Z" fill="white"/>
<path d="M46.4978 14.4684C46.0612 14.5646 45.609 14.6447 45.1256 14.6447C44.0029 14.6447 43.27 14.2922 43.27 12.2733C43.27 10.3346 44.0029 9.83789 45.1256 9.83789C46.2483 9.83789 46.7317 10.2865 46.7317 11.9849C46.7317 12.0971 46.7317 12.1772 46.7161 12.3214H43.8158C43.8314 13.9717 44.3147 14.196 45.2347 14.196C45.6713 14.196 46.03 14.132 46.4354 14.0198L46.4978 14.4684ZM46.2015 11.9369C46.1859 10.5749 45.8429 10.2865 45.0788 10.2865C44.3303 10.2865 43.8626 10.607 43.8158 11.9369H46.2015Z" fill="white"/>
<path d="M28.9873 15.8623H29.7046L32.0435 20.0282C32.371 20.605 32.6672 21.1498 32.9791 21.7586H32.9947C32.9635 21.1658 32.9479 20.589 32.9479 20.0282V15.8623H33.4625V22.3835H32.7296L30.4063 18.2176C30.0788 17.6408 29.7981 17.096 29.4863 16.4872H29.4707C29.5019 17.08 29.5331 17.6568 29.5331 18.2176V22.3835H29.0185V15.8623H28.9873Z" fill="white"/>
<path d="M37.7197 22.3034C37.2831 22.3995 36.8309 22.4796 36.3475 22.4796C35.2248 22.4796 34.4919 22.1271 34.4919 20.1083C34.4919 18.1696 35.2248 17.6729 36.3475 17.6729C37.4702 17.6729 37.9536 18.1215 37.9536 19.8199C37.9536 19.932 37.9536 20.0122 37.938 20.1564H35.0377C35.0533 21.8067 35.5367 22.031 36.4567 22.031C36.8933 22.031 37.2519 21.9669 37.6573 21.8548L37.7197 22.3034ZM37.4234 19.7718C37.4078 18.4099 37.0648 18.1215 36.3007 18.1215C35.5523 18.1215 35.0845 18.4419 35.0377 19.7718H37.4234Z" fill="white"/>
<path d="M39.014 17.8171V16.4231L39.5597 16.343V17.8331H40.62V18.2657H39.5597V21.4062C39.5597 21.9029 39.7157 22.0471 40.0743 22.0471C40.277 22.0471 40.4485 22.015 40.62 21.967L40.6824 22.3835C40.4641 22.4476 40.2458 22.5117 39.9807 22.5117C39.2946 22.5117 39.0296 22.2233 39.0296 21.5504V18.2818H38.3279V17.8491H39.014V17.8171Z" fill="white"/>
<path d="M46.4204 17.8172L45.672 20.4289C45.5316 20.9576 45.4069 21.4223 45.2821 21.9831H45.2665C45.1262 21.4383 45.0015 20.9576 44.8455 20.4289L44.0815 17.8172H43.5045L43.7072 18.5061L43.1615 20.4128C43.0212 20.9416 42.8808 21.4703 42.7561 21.967H42.7405C42.6001 21.4223 42.491 20.9576 42.3195 20.4128L41.5398 17.8011H40.9629L42.3507 22.3836H43.0835L43.8476 19.7559C43.8788 19.6277 43.9255 19.4995 43.9567 19.3714L44.8611 22.3996H45.594L46.935 17.8172H46.4204Z" fill="white"/>
<path d="M53.7177 17.7051C53.3122 17.7051 53.016 18.0095 52.517 18.6664L52.4546 17.8172H52.0024V22.3997H52.5482V19.2593C53.1407 18.5222 53.4058 18.2338 53.7333 18.2338C53.858 18.2338 54.0919 18.2819 54.201 18.3139L54.3102 17.8012C54.0919 17.7211 53.936 17.7051 53.7177 17.7051Z" fill="white"/>
<path d="M49.1646 22.5117C47.9639 22.5117 47.2778 22.063 47.2778 20.1083C47.2778 18.1696 47.9951 17.6729 49.1802 17.6729C50.3808 17.6729 51.0669 18.1375 51.0669 20.0762C51.0669 22.031 50.3652 22.5117 49.1646 22.5117ZM49.1646 18.1375C48.307 18.1375 47.8236 18.4419 47.8236 20.1083C47.8236 21.7746 48.3226 22.0951 49.1958 22.0951C50.0534 22.0951 50.5368 21.7907 50.5368 20.1243C50.5212 18.4259 50.0222 18.1375 49.1646 18.1375Z" fill="white"/>
<path d="M58.7232 21.9029C59.1442 21.999 59.5029 22.0471 59.8459 22.0471C60.7659 22.0471 61.0934 21.6946 61.0934 21.1979C61.0934 20.7492 60.8751 20.589 60.0018 20.2365C59.0663 19.868 58.7388 19.6116 58.7388 18.9547C58.7388 18.1375 59.3158 17.7209 60.3761 17.7209C60.7503 17.7209 61.1245 17.8011 61.4364 17.8812L61.374 18.2978C61.0154 18.2176 60.6879 18.1536 60.3449 18.1536C59.612 18.1536 59.2534 18.4099 59.2534 18.9226C59.2534 19.3072 59.4405 19.4834 60.2981 19.8199C61.2805 20.2045 61.6079 20.4288 61.6079 21.1658C61.6079 21.9669 61.0778 22.4636 59.7991 22.4636C59.4249 22.4636 59.0507 22.4156 58.6453 22.3194L58.7232 21.9029Z" fill="white"/>
<path d="M57.788 22.3995H58.4429L56.6341 19.8519L58.2869 17.8171H57.6476L56.1819 19.6276H55.4178V15.8623H54.8721V22.3995H55.4178V20.0602H56.1507L57.788 22.3995Z" fill="white"/>
<path d="M35.0063 0.208252H35.7547L37.9689 6.72946H37.392L36.7527 4.85481H34.0083L33.3846 6.72946H32.8389L35.0063 0.208252ZM36.628 4.40618L36.0198 2.59562C35.7703 1.85858 35.5832 1.29779 35.3805 0.608817H35.3649C35.1622 1.29779 34.9907 1.8746 34.7412 2.61164L34.1487 4.40618H36.628Z" fill="white"/>
<path d="M69.0771 22.3996C68.6872 22.3996 68.313 22.3195 67.97 22.2073L68.0947 21.3901C68.391 21.5023 68.7184 21.5824 69.0459 21.5824C69.6228 21.5824 69.8879 21.2299 69.8879 20.7813C69.8879 20.3006 69.654 20.0442 68.9991 19.6116C68.2351 19.0829 67.9856 18.6503 67.9856 17.9773C67.9856 16.9359 68.7028 16.343 69.6384 16.343C69.9815 16.343 70.3401 16.4071 70.6052 16.5193L70.4648 17.3044C70.1842 17.1922 69.9191 17.1281 69.6696 17.1281C69.2174 17.1281 68.9835 17.4486 68.9835 17.8491C68.9835 18.3138 69.2486 18.5702 69.8411 18.9867C70.6364 19.5475 70.8859 20.0122 70.8859 20.6371C70.8859 21.7747 70.153 22.3996 69.0771 22.3996Z" fill="white"/>
<path d="M73.0524 18.6342C72.5379 18.6342 72.3196 19.227 72.3196 20.0922C72.3196 21.1017 72.5691 21.6304 73.0836 21.6304C73.5982 21.6304 73.8321 21.0536 73.8321 20.1723C73.8165 19.1629 73.5514 18.6342 73.0524 18.6342ZM73.0369 22.3995C71.9298 22.3995 71.3684 21.5823 71.3684 20.2044C71.3684 18.7463 71.9765 17.8811 73.0992 17.8811C74.2063 17.8811 74.7833 18.7143 74.7833 20.1082C74.7677 21.5343 74.1595 22.3995 73.0369 22.3995Z" fill="white"/>
<path d="M77.8403 22.2876L77.7623 21.7108C77.4505 22.1594 77.1074 22.3998 76.624 22.3998C75.782 22.3998 75.439 21.7108 75.439 20.7975V17.9775H76.359V20.6213C76.359 21.2462 76.4681 21.6147 76.8579 21.6147C77.123 21.6147 77.3257 21.4224 77.6376 20.9898V17.9775H78.5576V22.2876H77.8403Z" fill="white"/>
<path d="M81.2085 22.2714C81.037 22.3355 80.7563 22.3675 80.4913 22.3675C79.9299 22.3675 79.5557 22.1111 79.5557 21.2139V18.7143H79.0879V17.9773H79.5557L79.774 16.7275H80.4757V17.9773H81.2085V18.7143H80.4601V20.8934C80.4601 21.5023 80.5692 21.6144 80.9123 21.6144H81.1929V22.2714H81.2085Z" fill="white"/>
<path d="M84.0616 22.2874V19.6437C84.0616 19.0188 83.9369 18.6503 83.5471 18.6503C83.282 18.6503 83.0793 18.8425 82.783 19.2751V22.2874H81.863V15.9745H82.783V18.458C83.0325 18.0895 83.36 17.8491 83.8122 17.8491C84.623 17.8491 84.966 18.5381 84.966 19.4514V22.2714H84.0616V22.2874Z" fill="white"/>
<path d="M90.0493 20.0764C89.8933 19.3714 89.6906 18.6183 89.5035 17.8973C89.4567 17.721 89.4099 17.4967 89.3632 17.3365H89.3476C89.3008 17.4967 89.2384 17.721 89.2072 17.8973C89.0201 18.6183 88.8174 19.3874 88.6615 20.0764H90.0493ZM90.5015 22.2875C90.4235 21.8389 90.3143 21.3261 90.2208 20.8455H88.5367C88.4432 21.3101 88.334 21.8389 88.2561 22.2875H87.2893C87.7103 20.2526 88.2249 18.3299 88.8174 16.4232H90.0181C90.6262 18.394 91.1408 20.3808 91.5306 22.2875H90.5015Z" fill="white"/>
<path d="M94.4311 22.2876L94.3531 21.7108C94.0413 22.1594 93.6982 22.3998 93.2148 22.3998C92.3728 22.3998 92.0298 21.7108 92.0298 20.7975V17.9775H92.9498V20.6213C92.9498 21.2462 93.0589 21.6147 93.4487 21.6147C93.7138 21.6147 93.9165 21.4224 94.2284 20.9898V17.9775H95.1484V22.2876H94.4311Z" fill="white"/>
<path d="M96.8161 22.3996C96.4575 22.3996 96.1144 22.3355 95.8337 22.2394L95.9585 21.4703C96.208 21.5825 96.5042 21.6626 96.7381 21.6626C97.0812 21.6626 97.2683 21.4703 97.2683 21.1819C97.2683 20.9095 97.1435 20.7333 96.6914 20.4289C96.0988 20.0443 95.8337 19.7078 95.8337 19.115C95.8337 18.378 96.3171 17.8652 97.1591 17.8652C97.4554 17.8652 97.7673 17.9133 98.0168 17.9934L97.9076 18.7305C97.7205 18.6503 97.4554 18.5863 97.2527 18.5863C96.9408 18.5863 96.7693 18.7945 96.7693 19.0189C96.7693 19.2752 96.8629 19.4515 97.2839 19.7239C97.9856 20.1565 98.2195 20.509 98.2195 21.1018C98.2039 21.8709 97.7049 22.3996 96.8161 22.3996Z" fill="white"/>
<path d="M100.652 22.2714C100.481 22.3355 100.2 22.3675 99.9349 22.3675C99.3735 22.3675 98.9993 22.1111 98.9993 21.2139V18.7143H98.5315V17.9773H98.9993L99.2176 16.7275H99.9193V17.9773H100.652V18.7143H99.9193V20.8934C99.9193 21.5023 100.028 21.6144 100.371 21.6144H100.652V22.2714Z" fill="white"/>
<path d="M103.226 18.8106C103.101 18.7625 102.992 18.7305 102.898 18.7305C102.711 18.7305 102.555 18.9388 102.212 19.4675V22.2715H101.292V17.9614H101.994L102.072 18.6824C102.399 18.0896 102.602 17.8652 102.945 17.8652C103.07 17.8652 103.194 17.8973 103.319 17.9293L103.226 18.8106Z" fill="white"/>
<path d="M105.565 20.3487H105.097C104.629 20.3487 104.38 20.6051 104.38 21.0698C104.38 21.4383 104.535 21.6946 104.863 21.6946C105.144 21.6946 105.346 21.4703 105.565 21.1819V20.3487ZM105.767 22.2875L105.705 21.8228C105.471 22.1273 105.128 22.3996 104.645 22.3996C103.959 22.3996 103.491 21.951 103.491 21.1178C103.491 20.1565 104.146 19.7239 105.175 19.7239H105.58V19.4034C105.58 18.8426 105.44 18.5863 104.91 18.5863C104.598 18.5863 104.239 18.6824 103.912 18.8426L103.756 18.1536C104.146 17.9614 104.613 17.8652 105.019 17.8652C106.048 17.8652 106.469 18.426 106.469 19.3073V22.2875H105.767Z" fill="white"/>
<path d="M108.729 22.3034C108.604 22.3355 108.402 22.3675 108.152 22.3675C107.684 22.3675 107.341 22.1432 107.341 21.4062V15.9745H108.261V21.1498C108.261 21.4382 108.324 21.5824 108.511 21.5824H108.729V22.3034Z" fill="white"/>
<path d="M109.868 17.2723C109.541 17.2723 109.307 17.016 109.307 16.6795C109.307 16.343 109.541 16.0867 109.868 16.0867C110.211 16.0867 110.43 16.343 110.43 16.6795C110.43 17.016 110.196 17.2723 109.868 17.2723ZM109.416 22.2874V18.6984H108.933V17.9613H110.336V22.2714H109.416V22.2874Z" fill="white"/>
<path d="M113.096 20.3487H112.628C112.16 20.3487 111.911 20.6051 111.911 21.0698C111.911 21.4383 112.067 21.6946 112.394 21.6946C112.675 21.6946 112.877 21.4703 113.096 21.1819V20.3487ZM113.283 22.2875L113.221 21.8228C112.987 22.1273 112.644 22.3996 112.16 22.3996C111.474 22.3996 111.006 21.951 111.006 21.1178C111.006 20.1565 111.661 19.7239 112.69 19.7239H113.096V19.4034C113.096 18.8426 112.955 18.5863 112.425 18.5863C112.113 18.5863 111.755 18.6824 111.427 18.8426L111.271 18.1536C111.661 17.9614 112.129 17.8652 112.534 17.8652C113.564 17.8652 113.985 18.426 113.985 19.3073V22.2875H113.283Z" fill="white"/>
</g>
<defs>
<clipPath id="clip0_1945_4770">
<rect width="114" height="34" fill="white"/>
</clipPath>
</defs>
</svg>
