<svg width="73" height="79" viewBox="0 0 73 79" fill="none" xmlns="http://www.w3.org/2000/svg">
<path d="M47.1442 58.3777C48.1713 58.3777 49.0069 57.5422 49.0069 56.515V51.0996C49.0069 50.0725 48.1715 49.2369 47.1442 49.2369C46.1169 49.2369 45.2815 50.0724 45.2815 51.0996V56.515C45.2816 57.5422 46.1171 58.3777 47.1442 58.3777Z" fill="#5DF891"/>
<path d="M14.272 65.2332H58.4517V42.3816H14.272V65.2332ZM42.2347 51.0998C42.2347 48.3926 44.4371 46.1902 47.1443 46.1902C49.8514 46.1902 52.0538 48.3926 52.0538 51.0998V56.5151C52.0538 59.2223 49.8514 61.4247 47.1443 61.4247C44.4371 61.4247 42.2347 59.2223 42.2347 56.5151V51.0998ZM29.3686 51.0998C29.3686 48.3926 31.5711 46.1902 34.2782 46.1902C36.9854 46.1902 39.1878 48.3926 39.1878 51.0998V56.5151C39.1878 59.2223 36.9854 61.4247 34.2782 61.4247C31.5711 61.4247 29.3686 59.2223 29.3686 56.5151V51.0998ZM22.1934 46.1902H24.7983C25.6397 46.1902 26.3218 46.8724 26.3218 47.7136V59.9011C26.3218 60.7424 25.6397 61.4246 24.7983 61.4246C23.9569 61.4246 23.2749 60.7424 23.2749 59.9011V49.2371H22.1934C21.352 49.2371 20.67 48.5549 20.67 47.7136C20.67 46.8724 21.352 46.1902 22.1934 46.1902Z" fill="#5DF891"/>
<path d="M34.2782 58.3777C35.3053 58.3777 36.1409 57.5422 36.1409 56.515V51.0996C36.1409 50.0725 35.3053 49.2369 34.2782 49.2369C33.2511 49.2369 32.4155 50.0724 32.4155 51.0996V56.515C32.4155 57.5422 33.2511 58.3777 34.2782 58.3777Z" fill="#5DF891"/>
<path d="M65.3071 0.944107H7.4165C3.6364 0.944107 0.561035 4.01947 0.561035 7.79958V72.0886C0.561035 75.8687 3.6364 78.9441 7.4165 78.9441H65.3071C69.0872 78.9441 72.1626 75.8687 72.1626 72.0886V7.79958C72.1626 4.01947 69.0872 0.944107 65.3071 0.944107ZM11.6584 17.0913L17.1104 16.2991L19.5487 11.3586C20.3869 9.66015 22.8089 9.66015 23.6471 11.3586L26.0853 16.2991L31.5374 17.0913C33.4117 17.3637 34.1601 19.667 32.8038 20.989L28.8587 24.8347L29.79 30.2648C30.1102 32.1316 28.1508 33.5551 26.4744 32.6738L21.5979 30.11L16.7212 32.6738C15.0447 33.5551 13.0854 32.1316 13.4056 30.2648L14.337 24.8347L10.3918 20.989C9.03546 19.667 9.78393 17.3637 11.6584 17.0913ZM63.022 67.5183C63.022 68.7803 61.9988 69.8035 60.7368 69.8035H11.9868C10.7248 69.8035 9.70166 68.7803 9.70166 67.5183V40.0965C9.70166 38.8344 10.7248 37.8113 11.9868 37.8113H60.7368C61.9988 37.8113 63.022 38.8344 63.022 40.0965V67.5183ZM62.3319 20.989L58.3866 24.8347L59.3179 30.2648C59.6381 32.1316 57.6787 33.5551 56.0023 32.6738L51.1258 30.11L46.2492 32.6738C44.5728 33.5551 42.6134 32.1316 42.9336 30.2648L43.8649 24.8347L39.9197 20.989C38.5633 19.667 39.3118 17.3636 41.1861 17.0913L46.6382 16.2991L49.0764 11.3586C49.9146 9.66015 52.3366 9.66015 53.1748 11.3586L55.613 16.2991L61.0651 17.0913C62.9397 17.3637 63.6882 19.667 62.3319 20.989Z" fill="#5DF891"/>
<path d="M19.0446 24.4233L18.6928 26.4739L20.5344 25.5057C21.2001 25.1558 21.9953 25.1558 22.6611 25.5057L24.5026 26.4739L24.1509 24.4233C24.0236 23.682 24.2695 22.9256 24.8081 22.4007L26.298 20.9482L24.2391 20.649C23.4947 20.5408 22.8514 20.0735 22.5185 19.3989L21.5977 17.5331L20.677 19.3989C20.3441 20.0733 19.7006 20.5408 18.9564 20.649L16.8975 20.9482L18.3874 22.4007C18.9259 22.9256 19.1718 23.682 19.0446 24.4233Z" fill="#5DF891"/>
<path d="M52.0466 19.399L51.1258 17.5333L50.205 19.399C49.8722 20.0735 49.2287 20.541 48.4845 20.6492L46.4255 20.9484L47.9155 22.4008C48.454 22.9258 48.6997 23.6822 48.5727 24.4235L48.2209 26.474L50.0624 25.5059C50.7282 25.156 51.5234 25.156 52.1892 25.5059L54.0307 26.474L53.6789 24.4235C53.5519 23.6822 53.7976 22.9258 54.3361 22.4008L55.8261 20.9484L53.7671 20.6492C53.0229 20.541 52.3794 20.0735 52.0466 19.399Z" fill="#5DF891"/>
</svg>
