<svg width="107" height="99" viewBox="0 0 107 99" fill="none" xmlns="http://www.w3.org/2000/svg">
<path d="M92.624 51.4745C95.2681 51.4745 97.8092 50.7104 100.05 49.2064C103.764 46.6956 106.343 42.1412 106.443 37.4047C106.558 34.9971 106.443 32.447 106.091 29.6057C105.893 27.9801 104.461 26.7209 102.616 26.9039C99.463 27.3098 96.2315 28.8067 93.5375 31.1501C93.4106 30.1013 93.243 29.0605 93.0345 28.0283C96.0232 26.5479 98.3338 24.1702 99.5284 21.203C101.26 17.0489 100.717 11.9181 98.1063 7.81245C96.6537 5.523 95.0892 3.42172 93.4609 1.55994C92.3299 0.27114 90.3772 0.13783 89.0824 1.26889C86.2746 3.72208 84.3824 7.28191 83.6093 11.5938C82.9102 15.7324 83.454 19.222 85.0177 23.0033C91.5163 38.4424 85.5482 56.0956 72.0289 64.7189C71.0719 65.3159 70.316 66.1415 69.7982 67.1024H56.5977V54.4177L67.526 60.0918C68.5943 60.6439 69.8537 60.5247 70.7825 59.8461C71.7345 59.1547 72.2138 57.9874 72.0198 56.8259L69.4273 41.2279L80.6922 30.1327C81.5291 29.308 81.8292 28.0799 81.4653 26.9639C81.1014 25.8451 80.1372 25.0264 78.9759 24.8504L63.4143 22.5072L56.3218 6.82733C55.3151 4.60164 51.6702 4.60164 50.6635 6.82733L43.571 22.5072L28.0094 24.8511C26.8481 25.027 25.8837 25.8457 25.52 26.9646C25.1561 28.0805 25.4562 29.3084 26.2931 30.1333L37.558 41.2285L34.9655 56.8265C34.7713 57.9878 35.2503 59.1553 36.2028 59.8467C37.155 60.5381 38.4102 60.6321 39.4593 60.0924L50.3876 54.4181V67.1028H37.0896C35.9399 65.1754 34.183 64.3014 32.5374 63.0153C23.8163 55.9625 19.3979 45.8049 19.3979 36.0524C19.3979 23.6542 25.1215 21.6858 23.4278 11.5578C22.6546 7.27921 20.7655 3.72229 17.9606 1.26931C16.6781 0.141349 14.707 0.268656 13.5821 1.56035C11.9416 3.43435 10.3771 5.53874 8.93677 7.80976C6.32606 11.9155 5.77709 17.046 7.49645 21.1699C8.70369 24.1646 11.0196 26.5487 14.0112 28.0304C13.8024 29.0633 13.6353 30.1048 13.5082 31.1545C10.8054 28.8067 7.51819 27.3096 4.36823 26.9041C3.54953 26.8161 2.71862 27.0254 2.06677 27.5348C1.41492 28.0412 0.990356 28.7901 0.893272 29.609C0.544473 32.4532 0.432277 35.0064 0.53847 37.3534C0.668881 42.2627 3.33901 46.8291 7.02014 49.2308C9.17607 50.7167 11.7261 51.4776 14.3915 51.4776C15.0131 51.4776 15.6445 51.4025 16.2756 51.3192C16.6687 52.2785 17.062 53.2357 17.5261 54.1624C14.7326 53.8012 11.2386 53.8896 7.81751 55.5864C6.23974 56.3689 5.63984 58.2896 6.44695 59.8165C7.53557 61.8876 8.83327 64.2801 10.3767 66.3692C13.0071 70.2086 17.3328 72.8492 22.442 72.8492C25.533 72.8492 28.5043 71.6647 30.9563 69.5388C31.3365 69.8102 31.6938 70.077 31.7572 70.2082V91.9435H28.6521C26.9359 91.9435 25.5471 93.3323 25.5471 95.0486C25.5471 96.7648 26.9359 98.1536 28.6521 98.1536H78.3328C80.049 98.1536 81.4378 96.7648 81.4378 95.0486C81.4378 93.3323 80.049 91.9435 78.3328 91.9435H75.2277V70.5417C75.2652 70.3492 75.3459 70.1687 75.3459 69.9683C75.5881 69.8137 75.7974 69.6239 76.0354 69.4647C82.4956 75.1635 91.6414 73.4137 96.7386 66.3874C98.1949 64.1702 99.6159 62.06 100.714 59.677C101.417 58.1518 100.778 56.3415 99.2705 55.5955C96.4368 54.192 93.22 53.7799 89.5055 54.2359C89.9868 53.2804 90.461 52.3207 90.8651 51.3269C91.4542 51.4008 92.0434 51.4745 92.624 51.4745ZM59.7027 85.733H47.2826C45.5663 85.733 44.1775 84.3442 44.1775 82.628C44.1775 80.9117 45.5663 79.5229 47.2826 79.5229H59.7027C61.419 79.5229 62.8078 80.9117 62.8078 82.628C62.8078 84.3442 61.419 85.733 59.7027 85.733Z" fill="url(#paint0_linear_4144_26685)"/>
<defs>
<linearGradient id="paint0_linear_4144_26685" x1="53.493" y1="0.499999" x2="77.2209" y2="129.861" gradientUnits="userSpaceOnUse">
<stop stop-color="#CCA500"/>
<stop offset="1" stop-color="#C95700"/>
</linearGradient>
</defs>
</svg>
