<svg width="81" height="74" viewBox="0 0 81 74" fill="none" xmlns="http://www.w3.org/2000/svg">
<path d="M69.7736 38.5929C71.7693 38.5929 73.6874 38.0162 75.3788 36.8809C78.1826 34.9858 80.1287 31.548 80.2043 27.9729C80.2913 26.1555 80.2043 24.2307 79.9388 22.086C79.7894 20.859 78.7083 19.9085 77.3158 20.0466C74.9357 20.3531 72.4965 21.4829 70.4631 23.2518C70.3673 22.4601 70.2407 21.6745 70.0834 20.8954C72.3393 19.7779 74.0834 17.9832 74.9851 15.7435C76.292 12.6079 75.8823 8.73515 73.9117 5.63611C72.8153 3.90799 71.6343 2.32191 70.4053 0.916606C69.5515 -0.056201 68.0776 -0.156825 67.1003 0.69692C64.9809 2.54863 63.5527 5.23564 62.9691 8.49031C62.4414 11.6142 62.8519 14.2482 64.0322 17.1024C68.9375 28.7561 64.4326 42.0811 54.228 48.5901C53.5057 49.0407 52.9351 49.6638 52.5443 50.3891H42.5803V40.8145L50.8291 45.0974C51.6355 45.5142 52.5862 45.4242 53.2873 44.912C54.0058 44.3901 54.3676 43.509 54.2212 42.6323L52.2643 30.8586L60.7672 22.4838C61.3989 21.8613 61.6255 20.9343 61.3508 20.092C61.0761 19.2474 60.3483 18.6295 59.4717 18.4967L47.7256 16.7279L42.372 4.89252C41.6122 3.21253 38.8609 3.21253 38.1011 4.89252L32.7475 16.7279L21.0014 18.4971C20.1248 18.6299 19.3968 19.2479 19.1223 20.0924C18.8476 20.9348 19.0742 21.8616 19.7059 22.4843L28.2088 30.8591L26.2519 42.6328C26.1054 43.5093 26.4669 44.3906 27.1858 44.9124C27.9046 45.4343 28.8521 45.5052 29.644 45.0979L37.8928 40.8148V50.3894H27.8552C26.9874 48.9346 25.6613 48.2749 24.4191 47.3041C17.8364 41.9806 14.5012 34.3134 14.5012 26.9521C14.5012 17.5937 18.8215 16.1079 17.5431 8.46312C16.9595 5.23361 15.5336 2.54878 13.4164 0.697232C12.4483 -0.154169 10.9605 -0.0580758 10.1114 0.916918C8.87315 2.33144 7.69221 3.91987 6.60503 5.63408C4.63442 8.73312 4.22005 12.6058 5.51785 15.7185C6.4291 17.979 8.17721 19.7785 10.4353 20.897C10.2777 21.6766 10.1516 22.4627 10.0556 23.2551C8.01549 21.4829 5.53426 20.3529 3.15662 20.0468C2.53865 19.9804 1.91147 20.1384 1.41944 20.5229C0.927412 20.9051 0.606946 21.4704 0.533665 22.0885C0.270385 24.2354 0.185698 26.1626 0.265854 27.9341C0.364291 31.6397 2.37975 35.0866 5.15832 36.8994C6.78566 38.0209 8.71049 38.5953 10.7224 38.5953C11.1916 38.5953 11.6681 38.5386 12.1445 38.4758C12.4412 39.1998 12.7381 39.9223 13.0884 40.6218C10.9799 40.3492 8.34252 40.4159 5.76019 41.6967C4.56926 42.2873 4.11646 43.7371 4.72567 44.8896C5.54738 46.4529 6.52691 48.2588 7.6919 49.8357C9.67736 52.7338 12.9425 54.7269 16.799 54.7269C19.1321 54.7269 21.3749 53.8329 23.2257 52.2282C23.5127 52.433 23.7824 52.6344 23.8302 52.7335V69.1396H21.4865C20.191 69.1396 19.1428 70.1879 19.1428 71.4834C19.1428 72.7788 20.191 73.8271 21.4865 73.8271H58.9863C60.2817 73.8271 61.33 72.7788 61.33 71.4834C61.33 70.1879 60.2817 69.1396 58.9863 69.1396H56.6425V52.9852C56.6708 52.8399 56.7318 52.7036 56.7318 52.5524C56.9146 52.4357 57.0725 52.2924 57.2522 52.1722C62.1284 56.4738 69.0318 55.153 72.8793 49.8494C73.9785 48.1759 75.0512 46.5831 75.8799 44.7843C76.4109 43.6331 75.928 42.2667 74.7904 41.7036C72.6515 40.6442 70.2234 40.3331 67.4197 40.6773C67.7829 39.9561 68.1409 39.2317 68.4459 38.4815C68.8906 38.5373 69.3353 38.5929 69.7736 38.5929ZM44.924 64.4519H35.5491C34.2536 64.4519 33.2053 63.4036 33.2053 62.1081C33.2053 60.8127 34.2536 59.7644 35.5491 59.7644H44.924C46.2195 59.7644 47.2678 60.8127 47.2678 62.1081C47.2678 63.4036 46.2195 64.4519 44.924 64.4519Z" fill="#5DF891"/>
</svg>
