<svg width="32" height="30" viewBox="0 0 32 30" fill="none" xmlns="http://www.w3.org/2000/svg">
<path opacity="0.2" d="M11.7401 7.05331C5.3414 10.5234 1.5639 15.624 3.19693 18.6353L6.10895 24.0049C7.74199 27.0161 14.0775 26.6323 20.4762 23.1622C26.8749 19.6921 30.6524 14.5915 29.0194 11.5803L26.1073 6.21063C24.4743 3.19939 18.1388 3.58321 11.7401 7.05331ZM16.5988 20.8269C16.7464 21.1913 16.5933 21.6018 16.2557 21.7849C16.2308 21.7984 16.2045 21.811 16.1781 21.8218C13.8884 22.7488 11.6268 23.301 9.72196 23.3704C9.30039 23.3861 8.94647 23.0572 8.9314 22.6353C8.91539 22.2148 9.24624 21.8598 9.66648 21.8448C11.3953 21.7809 13.4781 21.268 15.6038 20.4062C15.995 20.2484 16.4403 20.4361 16.5988 20.8269ZM8.71114 19.1181C10.1632 17.2351 12.5765 15.2858 15.3801 13.7654C18.1838 12.2449 21.1339 11.2855 23.5042 11.0956C22.1534 12.8527 19.8574 14.8117 16.8362 16.4502C13.8149 18.0886 10.9206 18.9444 8.71114 19.1181ZM19.0202 20.4774C18.6495 20.6784 18.186 20.5409 17.985 20.1702C17.7839 19.7994 17.9215 19.336 18.2922 19.135C18.6628 18.934 19.1263 19.0714 19.3274 19.4422C19.5284 19.8129 19.3909 20.2764 19.0202 20.4774ZM26.5168 14.2624C25.4196 15.8211 23.7232 17.4154 21.6973 18.8288C21.6738 18.845 21.6489 18.8601 21.624 18.8736C21.2864 19.0567 20.8589 18.9612 20.6339 18.6387C20.3929 18.2927 20.4784 17.817 20.8241 17.5753C22.7059 16.2638 24.2718 14.7979 25.2684 13.3837C25.5115 13.039 25.9882 12.956 26.332 13.1989C26.6774 13.4416 26.7599 13.9176 26.5168 14.2624ZM24.487 9.53722C21.7141 9.50679 18.0656 10.5718 14.6521 12.4229C11.2387 14.2741 8.35592 16.7511 6.86889 19.0918C5.71065 18.947 4.8841 18.543 4.53934 17.9072C3.50635 16.0025 6.53477 11.6135 12.4681 8.39572C18.4015 5.17799 23.7319 5.03385 24.7649 6.93864C25.1097 7.57436 24.9975 8.4875 24.487 9.53722Z" fill="url(#paint0_linear_1298_4053)"/>
<defs>
<linearGradient id="paint0_linear_1298_4053" x1="11.7401" y1="7.05331" x2="26.5004" y2="27.0446" gradientUnits="userSpaceOnUse">
<stop stop-color="#B39100"/>
<stop offset="1" stop-color="#B04C00"/>
</linearGradient>
</defs>
</svg>
