<svg width="198" height="186" viewBox="0 0 198 186" fill="none" xmlns="http://www.w3.org/2000/svg">
<path opacity="0.08" d="M102.366 89.187L179.784 0H152.757L101.475 88.629C101.772 88.815 102.069 89.001 102.366 89.187ZM130.68 0H111.177L99.693 88.071C99.99 88.071 100.287 88.164 100.584 88.257L130.68 0ZM96.723 88.536L74.547 44.268L52.371 0H27.225L96.03 88.908C96.228 88.815 96.525 88.629 96.723 88.536ZM98.406 88.071C98.505 88.071 98.604 88.071 98.703 88.071L92.565 0H73.458L97.614 88.257C97.812 88.164 98.109 88.164 98.406 88.071ZM95.04 96.255L0 178.56V186H25.245L95.832 96.999C95.634 96.72 95.337 96.534 95.04 96.255ZM104.247 92.256L198 80.166V61.845L103.95 91.419C104.049 91.605 104.148 91.884 104.247 92.256ZM104.148 94.209L198 115.599V97.743L104.247 93.372C104.247 93.651 104.148 93.93 104.148 94.209ZM103.059 89.838C103.257 90.117 103.455 90.303 103.554 90.582L198 40.827V14.787L103.059 89.838ZM100.188 97.836L119.889 186H140.283L101.079 97.557C100.782 97.65 100.485 97.743 100.188 97.836ZM94.545 90.396C94.743 90.117 94.941 89.838 95.238 89.559L0 5.301V33.48L94.545 90.396ZM101.871 97.185L164.34 186H195.03L102.564 96.627C102.366 96.813 102.069 96.999 101.871 97.185ZM103.356 95.79L198 158.472V135.222L103.851 95.046C103.653 95.232 103.554 95.511 103.356 95.79ZM98.505 97.929L91.278 186H109.89L99.594 97.929C99.099 97.929 98.802 97.929 98.505 97.929ZM93.852 93.93C93.852 93.837 93.852 93.651 93.753 93.465C93.753 93.186 93.753 93 93.753 92.814L0 92.442V110.019L93.852 93.93ZM93.852 91.977C93.951 91.698 93.951 91.419 94.149 91.14L0 55.707V74.772L93.852 91.977ZM94.149 94.86L0 128.898V150.846L94.446 95.604C94.347 95.325 94.248 95.046 94.149 94.86ZM96.723 97.464L50.886 186H72.171L97.713 97.836C97.317 97.743 97.02 97.65 96.723 97.464Z" fill="url(#paint0_radial_1409_5195)"/>
<defs>
<radialGradient id="paint0_radial_1409_5195" cx="0" cy="0" r="1" gradientUnits="userSpaceOnUse" gradientTransform="translate(98.01 91.605) scale(99.99 93.93)">
<stop stop-color="white"/>
<stop offset="0.4472" stop-color="#8F8F8F"/>
<stop offset="1" stop-color="#252121"/>
</radialGradient>
</defs>
</svg>
