<svg width="228" height="201" viewBox="0 0 228 201" fill="none" xmlns="http://www.w3.org/2000/svg">
<path d="M117.876 96.3795L207.024 0H175.902L116.85 95.7765C117.192 95.9775 117.534 96.1785 117.876 96.3795ZM150.48 0H128.022L114.798 95.1735C115.14 95.1735 115.482 95.274 115.824 95.3745L150.48 0ZM111.378 95.676L60.306 0H31.35L110.58 96.078C110.808 95.9775 111.15 95.7765 111.378 95.676ZM113.316 95.1735C113.43 95.1735 113.544 95.1735 113.658 95.1735L106.59 0H84.588L112.404 95.3745C112.632 95.274 112.974 95.274 113.316 95.1735ZM109.44 104.018L0 192.96V201H29.07L110.352 104.822C110.124 104.52 109.782 104.319 109.44 104.018ZM120.042 99.696L228 86.631V66.8325L119.7 98.7915C119.814 98.9925 119.928 99.294 120.042 99.696ZM119.928 101.807L228 124.922V105.626L120.042 100.902C120.042 101.203 119.928 101.505 119.928 101.807ZM118.674 97.083C118.902 97.3845 119.13 97.5855 119.244 97.887L228 44.1195V15.9795L118.674 97.083ZM115.368 105.726L138.054 201H161.538L116.394 105.424C116.052 105.525 115.71 105.625 115.368 105.726ZM108.87 97.686C109.098 97.3845 109.326 97.083 109.668 96.7815L0 5.7285V36.18L108.87 97.686ZM117.306 105.022L189.24 201H224.58L118.104 104.419C117.876 104.62 117.534 104.821 117.306 105.022ZM119.016 103.515L228 171.252V146.127L119.586 102.711C119.358 102.912 119.244 103.214 119.016 103.515ZM113.43 105.826L105.108 201H126.54L114.684 105.826C114.114 105.826 113.772 105.826 113.43 105.826ZM108.072 101.505C108.072 101.404 108.072 101.203 107.958 101.002C107.958 100.701 107.958 100.5 107.958 100.299L0 99.897V118.891L108.072 101.505ZM108.072 99.3945C108.186 99.093 108.186 98.7915 108.414 98.49L0 60.1995V80.802L108.072 99.3945ZM108.414 102.51L0 139.293V163.011L108.756 103.314C108.642 103.013 108.528 102.711 108.414 102.51ZM111.378 105.324L58.596 201H83.106L112.518 105.726C112.062 105.625 111.72 105.525 111.378 105.324Z" fill="url(#paint0_radial_4249_26547)" fill-opacity="0.04"/>
<defs>
<radialGradient id="paint0_radial_4249_26547" cx="0" cy="0" r="1" gradientUnits="userSpaceOnUse" gradientTransform="translate(112.86 98.9925) rotate(2.08776) scale(129.86 114.526)">
<stop offset="0.651042" stop-color="#5DF891"/>
<stop offset="0.916667" stop-color="#5DF891" stop-opacity="0"/>
</radialGradient>
</defs>
</svg>
