<svg width="289" height="269" viewBox="0 0 289 269" fill="none" xmlns="http://www.w3.org/2000/svg">
<path d="M148.808 128.61C149.157 128.827 149.612 128.759 149.883 128.45L256.599 6.63581C258.864 4.04999 257.028 0 253.59 0H225.26C223.838 0 222.523 0.754943 221.806 1.9829L148.525 127.472C148.295 127.865 148.421 128.37 148.808 128.61V128.61ZM188.915 5.3017C189.809 2.70461 187.88 0 185.133 0H165.782C163.774 0 162.078 1.48786 161.816 3.4781L145.606 126.657C145.556 127.036 145.843 127.377 146.214 127.468V127.468C146.546 127.549 146.9 127.384 147.011 127.061L188.915 5.3017ZM140.6 128.352C140.91 128.18 141.044 127.782 140.884 127.466L77.5504 2.19524C76.8697 0.84885 75.4893 0 73.9807 0H47.9371C44.6048 0 42.7335 3.83592 44.7847 6.46216L139.858 128.189C140.038 128.419 140.345 128.494 140.6 128.352V128.352ZM143.582 127.387C143.616 127.377 143.651 127.371 143.687 127.371V127.371C143.892 127.371 144.054 127.197 144.04 126.993L135.369 3.71934C135.222 1.62429 133.479 0 131.379 0H112.474C109.831 0 107.914 2.51753 108.618 5.06503L142.196 126.625C142.343 127.156 142.968 127.545 143.503 127.408C143.529 127.401 143.555 127.394 143.582 127.387ZM139.401 139.787C139.031 139.469 138.44 139.448 138.07 139.766L1.3952 257.043C0.509599 257.803 0 258.911 0 260.078V265C0 267.209 1.79086 269 4 269H34.9256C36.1404 269 37.2894 268.448 38.0485 267.5L139.422 140.85C139.691 140.515 139.727 140.067 139.401 139.787V139.787ZM151.977 132.819C152.076 133.111 152.387 133.395 152.694 133.356L285.507 116.385C287.504 116.13 289 114.431 289 112.418V94.8784C289 92.1813 286.385 90.2572 283.81 91.0595L152.44 131.991C152.069 132.106 151.852 132.451 151.977 132.819V132.819ZM152.072 135.725C152.018 136.029 152.228 136.297 152.529 136.365L284.119 166.081C286.621 166.646 289 164.744 289 162.179V145.179C289 143.042 287.32 141.282 285.185 141.183L152.85 135.07C152.473 135.053 152.137 135.353 152.072 135.725V135.725ZM150.891 129.562C150.63 129.766 150.603 130.157 150.805 130.42V130.42C151.034 130.717 151.443 130.848 151.776 130.675L286.851 60.1673C288.172 59.4778 289 58.1113 289 56.6213V29.5995C289 26.2646 285.159 24.3941 282.533 26.4505L150.891 129.562ZM146.898 141.288C146.523 141.404 146.301 141.789 146.387 142.172L174.286 265.88C174.697 267.704 176.318 269 178.188 269H198.585C201.484 269 203.42 266.013 202.236 263.367L147.807 141.699C147.651 141.352 147.261 141.175 146.898 141.288V141.288ZM137.382 130.367C137.73 130.574 138.153 130.503 138.404 130.185V130.185C138.691 129.822 138.707 129.259 138.36 128.954L6.63677 13.4844C4.05121 11.2178 0 13.0539 0 16.4923V46.1484C0 47.5571 0.741039 48.862 1.95089 49.5837L137.382 130.367ZM149.176 140.164C148.89 140.377 148.845 140.77 149.051 141.061L238.674 267.315C239.424 268.372 240.64 269 241.936 269H274.705C278.311 269 280.076 264.605 277.472 262.111L150.187 140.21C149.915 139.949 149.478 139.939 149.176 140.164V140.164ZM151.296 137.82C151.063 138.191 151.163 138.735 151.528 138.975L282.805 225.123C285.465 226.869 289 224.96 289 221.779V198.215C289 196.607 288.038 195.156 286.558 194.53L152.04 137.653C151.76 137.535 151.456 137.563 151.296 137.82V137.82ZM144.477 141.629C144.02 141.629 143.748 141.979 143.711 142.434L133.588 264.67C133.395 267.001 135.235 269 137.574 269H155.895C158.29 269 160.148 266.91 159.868 264.531L145.458 142.404C145.406 141.962 144.922 141.629 144.477 141.629V141.629ZM136.458 135.935C136.763 135.883 137.016 135.65 136.92 135.356V135.356C136.887 135.257 136.842 135.118 136.842 135.013C136.842 135.003 136.842 134.993 136.842 134.983C136.842 134.567 136.505 134.23 136.09 134.228L4.01572 133.709C1.80046 133.7 0 135.493 0 137.709V154.377C0 156.854 2.22803 158.735 4.66985 158.32L136.458 135.935ZM136.485 132.93C136.774 132.982 137.047 132.83 137.116 132.544V132.544C137.209 132.16 137.055 131.674 136.684 131.536L5.39762 82.5783C2.78375 81.6036 0 83.5365 0 86.3262V104.799C0 106.733 1.38285 108.389 3.28513 108.735L136.485 132.93ZM137.64 137.687C137.517 137.371 137.183 137.275 136.864 137.389L2.65104 185.467C1.06094 186.037 0 187.544 0 189.233V211.218C0 214.3 3.33905 216.224 6.00571 214.678L137.359 138.552C137.645 138.386 137.76 137.995 137.64 137.687V137.687ZM141.851 141.278C141.454 141.136 141.01 141.275 140.814 141.649L77.3309 263.148C75.9394 265.811 77.8713 269 80.8761 269H102.343C104.119 269 105.683 267.828 106.182 266.123L142.406 142.231C142.523 141.831 142.244 141.418 141.851 141.278V141.278Z" fill="url(#paint0_linear_1073_2359)" fill-opacity="0.15"/>
<defs>
<linearGradient id="paint0_linear_1073_2359" x1="144.5" y1="0" x2="144.5" y2="269" gradientUnits="userSpaceOnUse">
<stop offset="0.4375" stop-color="#594C2F"/>
<stop offset="1" stop-color="#202429"/>
</linearGradient>
</defs>
</svg>
