<svg width="127" height="128" viewBox="0 0 127 128" fill="none" xmlns="http://www.w3.org/2000/svg">
<path d="M65.659 61.376L115.316 0H97.9805L65.0875 60.992C65.278 61.12 65.4685 61.248 65.659 61.376ZM83.82 0H71.3105L63.9445 60.608C64.135 60.608 64.3255 60.672 64.516 60.736L83.82 0ZM62.0395 60.928L33.5915 0H17.4625L61.595 61.184C61.722 61.12 61.9125 60.992 62.0395 60.928ZM63.119 60.608C63.1825 60.608 63.246 60.608 63.3095 60.608L59.3725 0H47.117L62.611 60.736C62.738 60.672 62.9285 60.672 63.119 60.608ZM60.96 66.24L0 122.88V128H16.1925L61.468 66.752C61.341 66.56 61.1505 66.432 60.96 66.24ZM66.8655 63.488L127 55.168V42.56L66.675 62.912C66.7385 63.04 66.802 63.232 66.8655 63.488ZM66.802 64.832L127 79.552V67.264L66.8655 64.256C66.8655 64.448 66.802 64.64 66.802 64.832ZM66.1035 61.824C66.2305 62.016 66.3575 62.144 66.421 62.336L127 28.096V10.176L66.1035 61.824ZM64.262 67.328L76.8985 128H89.9795L64.8335 67.136C64.643 67.2 64.4525 67.264 64.262 67.328ZM60.6425 62.208C60.7695 62.016 60.8965 61.824 61.087 61.632L0 3.648V23.04L60.6425 62.208ZM65.3415 66.88L105.41 128H125.095L65.786 66.496C65.659 66.624 65.4685 66.752 65.3415 66.88ZM66.294 65.92L96.647 87.488L127 109.056V93.056L66.6115 65.408C66.4845 65.536 66.421 65.728 66.294 65.92ZM63.1825 67.392L58.547 128H70.485L63.881 67.392C63.5635 67.392 63.373 67.392 63.1825 67.392ZM60.198 64.64C60.198 64.576 60.198 64.448 60.1345 64.32C60.1345 64.128 60.1345 64 60.1345 63.872L0 63.616V75.712L60.198 64.64ZM60.198 63.296C60.2615 63.104 60.2615 62.912 60.3885 62.72L0 38.336V51.456L60.198 63.296ZM60.3885 65.28L0 88.704V103.808L60.579 65.792C60.5155 65.6 60.452 65.408 60.3885 65.28ZM62.0395 67.072L32.639 128H46.2915L62.6745 67.328C62.4205 67.264 62.23 67.2 62.0395 67.072Z" fill="url(#paint0_radial_4154_29586)" fill-opacity="0.23"/>
<defs>
<radialGradient id="paint0_radial_4154_29586" cx="0" cy="0" r="1" gradientUnits="userSpaceOnUse" gradientTransform="translate(62.865 63.04) rotate(2.38653) scale(72.3492 72.9169)">
<stop offset="0.203125" stop-color="#FED100"/>
<stop offset="1" stop-color="#1C1E20" stop-opacity="0"/>
</radialGradient>
</defs>
</svg>
