<svg width="121" height="121" viewBox="0 0 121 121" fill="none" xmlns="http://www.w3.org/2000/svg">
<g opacity="0.2">
<path d="M106.658 60.7596C106.12 63.4627 103.722 65.4317 100.848 65.554C99.9432 65.5907 99.1727 66.2511 99.0013 67.144C98.8179 68.0368 99.2704 68.9418 100.09 69.321C102.695 70.544 104.15 73.2837 103.6 75.9866L103.086 78.555C102.414 81.9428 98.671 84.0587 95.3933 83.2515C94.476 83.0314 93.5343 82.8601 92.6048 82.6767C91.235 82.4076 89.8652 82.1263 88.4953 81.8572C86.6851 81.4903 84.875 81.1358 83.065 80.7688C80.9124 80.3408 78.7476 79.9004 76.5951 79.4723C74.1858 78.9831 71.7764 78.5062 69.3668 78.017C66.7984 77.5033 64.2178 76.9896 61.6494 76.4637C59.0075 75.9378 56.3658 75.3997 53.7363 74.8737C51.1189 74.3478 48.5138 73.8218 45.8964 73.296C43.4015 72.7946 40.9063 72.2931 38.4114 71.7917C36.1243 71.3391 33.8495 70.8744 31.5624 70.4219C29.581 70.0305 27.5997 69.6269 25.6306 69.2355C24.0528 68.9175 22.4751 68.5996 20.8851 68.2815C19.7966 68.0614 18.708 67.8412 17.6196 67.6212C17.118 67.5232 16.6167 67.4133 16.1153 67.3154C16.0908 67.3154 16.0663 67.3031 16.0417 67.3031C16.3108 68.5751 16.1885 69.9326 15.6014 71.2046C14.366 73.8708 11.4919 75.2651 8.72791 74.727C7.90847 74.568 7.01564 74.8737 6.66096 75.632L5.56021 78.017C5.20565 78.7752 5.56021 79.6557 6.20855 80.1817C6.33086 80.2796 94.4883 120.922 94.6349 120.958C95.4544 121.117 96.3472 120.811 96.7019 120.053L97.8026 117.668C98.1573 116.91 97.8026 116.029 97.1544 115.503C94.9529 113.754 94.1456 110.66 95.381 107.994C96.6163 105.328 99.4904 103.933 102.255 104.472C103.074 104.631 103.967 104.325 104.321 103.566L105.422 101.182C105.777 100.423 105.422 99.5428 104.774 99.0167C102.572 97.2678 101.765 94.1735 103 91.5073C104.236 88.8412 107.11 87.4468 109.874 87.9849C110.693 88.1439 111.586 87.8382 111.941 87.0799L113.042 84.695C113.396 83.9367 113.042 83.0561 112.393 82.5302C110.192 80.7812 109.385 77.6869 110.62 75.0206C111.855 72.3544 114.73 70.9602 117.493 71.4983C118.313 71.6573 119.206 71.3515 119.56 70.5933L120.771 67.9514C121.126 67.1931 120.796 66.3003 120.037 65.9457L106.865 59.8672L106.658 60.7596Z" fill="url(#paint0_linear_1298_4186)"/>
<path d="M1.60626 59.9183C1.75303 59.9917 96.9185 79.0833 97.0775 79.0833C97.9093 79.0466 98.7164 78.533 98.8754 77.7258L99.3891 75.1574C99.5481 74.3379 99.0099 73.5552 98.2516 73.2005C95.7077 72.0019 94.2032 69.1889 94.7782 66.3025C95.353 63.4161 97.8358 61.3981 100.649 61.2758C101.481 61.2391 102.288 60.7254 102.447 59.9182L102.826 58.0347L102.961 57.3375C103.12 56.5181 102.581 55.7353 101.823 55.3807C99.279 54.1821 97.7747 51.3691 98.3496 48.4828C98.9245 45.5963 101.407 43.5782 104.22 43.4559C105.052 43.4192 105.859 42.9056 106.018 42.0984L106.532 39.5299C106.691 38.7105 106.153 37.9278 105.394 37.5731C102.85 36.3745 101.346 33.5615 101.921 30.6751C102.496 27.7887 104.979 25.7707 107.792 25.6483C108.623 25.6117 109.43 25.098 109.589 24.2908L110.164 21.4411C110.323 20.6216 109.797 19.8266 108.978 19.6676C108.978 19.6676 13.3477 0.490234 13.2498 0.490234C12.5405 0.490234 11.9167 0.991684 11.7699 1.70105L11.1951 4.55076C11.0361 5.3702 11.5742 6.15295 12.3325 6.50763C14.8765 7.70622 16.3808 10.5192 15.806 13.4056C15.2312 16.292 12.7484 18.3101 9.93536 18.4324C9.10356 18.4691 8.29647 18.9827 8.13747 19.7899L7.62379 22.3583C7.4648 23.1778 8.00294 23.9605 8.76123 24.3152C11.3052 25.5138 12.8096 28.3268 12.2347 31.2132C11.6599 34.0996 9.17706 36.1176 6.36405 36.2399C5.53238 36.2766 4.72516 36.7903 4.56617 37.5975L4.05249 40.1659C3.89349 40.9854 4.43175 41.7681 5.18992 42.1228C7.73399 43.3214 9.23834 46.1344 8.66338 49.0208C8.08855 51.9073 5.60576 53.9254 2.79274 54.0477C1.96107 54.0843 1.15386 54.598 0.994862 55.4052L0.481181 57.9736C0.309832 58.7931 0.847851 59.5636 1.60626 59.9183ZM83.1225 28.5716C83.4528 26.9204 85.0672 25.8442 86.7183 26.1744C88.3694 26.5046 89.4457 28.119 89.1155 29.7701L85.0794 49.8526L82.5966 62.2299C82.3031 63.6853 81.0311 64.6883 79.6001 64.6883C79.4043 64.6883 79.1965 64.6638 79.0009 64.6271C77.3497 64.2969 76.2734 62.6825 76.6037 61.0314L79.38 47.2232L83.1225 28.5716ZM27.9874 17.503C28.3177 15.8518 29.9321 14.7756 31.5832 15.1058C33.2343 15.436 34.3106 17.0504 33.9804 18.7016L32.5861 25.6362L31.0085 33.5004L29.7365 39.8358L27.4739 51.1613C27.1805 52.6167 25.9084 53.6197 24.4774 53.6197C24.2817 53.6197 24.0738 53.5953 23.8782 53.5586C23.7926 53.5462 23.707 53.5217 23.6336 53.4974C22.1171 53.057 21.1752 51.5282 21.4933 49.9628L21.9457 47.6757L23.1321 41.7561L27.9874 17.503Z" fill="url(#paint1_linear_1298_4186)"/>
</g>
<defs>
<linearGradient id="paint0_linear_1298_4186" x1="63.1668" y1="59.8672" x2="63.1668" y2="120.999" gradientUnits="userSpaceOnUse">
<stop stop-color="#B29100"/>
<stop offset="1" stop-color="#B04C00"/>
</linearGradient>
<linearGradient id="paint1_linear_1298_4186" x1="55.3209" y1="0.490235" x2="55.3209" y2="79.0833" gradientUnits="userSpaceOnUse">
<stop stop-color="#B29100"/>
<stop offset="1" stop-color="#B04C00"/>
</linearGradient>
</defs>
</svg>
