<svg width="32" height="26" viewBox="0 0 32 26" fill="none" xmlns="http://www.w3.org/2000/svg">
<path opacity="0.2" d="M17.631 7.03027C17.0388 7.03027 16.5571 7.51204 16.5571 8.10419V10.882C16.5571 11.4741 17.0388 11.9558 17.631 11.9558C18.2232 11.9558 18.7049 11.4741 18.7049 10.882V8.10419C18.7049 7.51204 18.2231 7.03027 17.631 7.03027Z" fill="url(#paint0_linear_1406_4531)"/>
<path opacity="0.2" d="M30.8706 7.72263L25.7562 2.71513C24.5653 1.54904 22.9914 0.906861 21.3246 0.906861H20.8867C20.841 0.869375 20.7908 0.835909 20.7365 0.807292L19.3973 0.102324C18.9638 -0.125964 18.4276 0.040596 18.1994 0.473995C18.1266 0.612292 18.0944 0.760996 18.0977 0.90692H13.9036C13.907 0.761055 13.8747 0.612292 13.802 0.473995C13.5738 0.0405369 13.0373 -0.125905 12.604 0.102324L11.2648 0.807292C11.2105 0.835909 11.1604 0.869375 11.1146 0.906861H10.6767C9.00992 0.906861 7.43602 1.54904 6.24515 2.71513L1.1307 7.72263C0.789538 8.05664 0.774046 8.60072 1.09552 8.95359L4.43978 12.6248C4.75102 12.9665 5.27246 13.0119 5.6381 12.7291L7.71451 11.123L7.92494 25.1266C7.93222 25.6111 8.32712 26.0001 8.81172 26.0001H23.1898C23.6744 26.0001 24.0693 25.6111 24.0766 25.1266L24.287 11.123L26.3634 12.7291C26.729 13.0119 27.2504 12.9666 27.5617 12.6248L30.906 8.95359C31.2274 8.60072 31.2118 8.05664 30.8706 7.72263ZM13.2971 12.8411C13.2971 13.3309 12.9 13.728 12.4102 13.728C11.9204 13.728 11.5233 13.3309 11.5233 12.8411V6.14176C11.5233 5.65195 11.9204 5.25486 12.4102 5.25486C12.9 5.25486 13.2971 5.65195 13.2971 6.14176V12.8411ZM20.4781 10.8803C20.4781 12.4506 19.2006 13.728 17.6303 13.728C16.0601 13.728 14.7827 12.4506 14.7827 10.8803V8.10258C14.7827 6.53235 16.0601 5.25486 17.6303 5.25486C19.2006 5.25486 20.4781 6.53229 20.4781 8.10258V10.8803Z" fill="url(#paint1_linear_1406_4531)"/>
<defs>
<linearGradient id="paint0_linear_1406_4531" x1="17.631" y1="7.03027" x2="20.5909" y2="9.98381" gradientUnits="userSpaceOnUse">
<stop stop-color="#B28D00"/>
<stop offset="1" stop-color="#B05100"/>
</linearGradient>
<linearGradient id="paint1_linear_1406_4531" x1="16.0007" y1="3.58486e-07" x2="26.2804" y2="27.3901" gradientUnits="userSpaceOnUse">
<stop stop-color="#B28D00"/>
<stop offset="1" stop-color="#B05100"/>
</linearGradient>
</defs>
</svg>
