<svg width="58" height="58" viewBox="0 0 58 58" fill="none" xmlns="http://www.w3.org/2000/svg">
<path d="M26.4818 48.007C26.5649 47.4927 26.8568 47.0277 27.2798 46.7303L29.4312 45.1773C29.4097 45.0763 29.3919 44.9791 29.3768 44.8909C29.3659 44.832 29.3572 44.7712 29.349 44.7114L26.7472 44.2295C26.2497 44.1372 25.8062 43.8394 25.5266 43.4132C25.2393 42.9752 25.1466 42.4512 25.2654 41.9387L26.3187 36.0705C26.4133 35.5466 26.6978 35.0975 27.1199 34.8057C27.5378 34.5183 28.0485 34.4069 28.5633 34.5056L31.1423 34.9834C31.193 34.902 31.2432 34.8262 31.2939 34.7568L31.3903 34.6065C31.3912 34.6047 31.3922 34.6029 31.3931 34.6006L29.8606 32.3473C29.6509 32.0618 29.5312 31.7064 29.5212 31.3323C29.5175 31.2067 29.5258 31.0806 29.5472 30.9523C29.6313 30.4389 29.9222 29.9748 30.3452 29.6783L33.4755 27.478C32.2687 26.6202 30.9737 25.9149 29.6107 25.375C29.4152 25.5312 29.2106 25.6714 29.0082 25.8167C28.9484 25.8596 28.8904 25.9053 28.8296 25.9473C28.4825 26.189 28.1262 26.4151 27.7612 26.6238C27.7315 26.6407 27.7023 26.6613 27.6726 26.6782C27.2843 26.8961 26.8869 27.0961 26.4809 27.277C26.3498 27.336 26.2141 27.3825 26.0812 27.4378C25.8126 27.5474 25.5445 27.6548 25.2704 27.7475C25.0868 27.8101 24.9009 27.8635 24.7136 27.9188C24.4742 27.9896 24.2326 28.0554 23.9896 28.1134C23.7996 28.1582 23.6095 28.2002 23.4172 28.2376C23.1459 28.2902 22.8737 28.3313 22.5996 28.3678C22.4347 28.3893 22.2721 28.4153 22.1063 28.4313C21.66 28.4742 21.211 28.5026 20.7602 28.5026C20.3102 28.5026 19.8621 28.4742 19.4168 28.4313C19.2496 28.4153 19.0847 28.3893 18.9184 28.3669C18.648 28.3304 18.3794 28.2902 18.1118 28.2385C17.9153 28.2011 17.7207 28.1582 17.5271 28.112C17.2923 28.0563 17.0593 27.9923 16.8273 27.9243C16.6327 27.8672 16.4381 27.8119 16.2476 27.7466C15.99 27.6584 15.7379 27.5575 15.4853 27.4556C15.3364 27.3949 15.1838 27.3414 15.0372 27.2761C14.6411 27.0993 14.2529 26.9034 13.8742 26.6914C13.8002 26.6499 13.7299 26.6024 13.6572 26.5594C13.3389 26.374 13.0264 26.1776 12.7218 25.9661C12.6345 25.9062 12.5514 25.8418 12.4664 25.7802C12.2906 25.6527 12.1097 25.5312 11.9388 25.3956C4.77654 28.2253 0 35.3798 0 43.3625V52.1834H8.80944C8.682 52.0281 8.59613 51.838 8.59613 51.622V46.8368C8.59613 46.3412 8.99855 45.9387 9.49416 45.9387C9.99022 45.9387 10.3922 46.3412 10.3922 46.8368V51.622C10.3922 51.838 10.3063 52.029 10.1789 52.1834H28.6885L26.796 49.3984C26.5174 49.0193 26.3986 48.515 26.4818 48.007Z" fill="url(#paint0_linear_3422_6024)"/>
<path d="M43.3062 36.9093C43.008 36.854 42.7074 36.8262 42.4091 36.8262C41.3887 36.8262 40.3828 37.1468 39.509 37.7617C38.3762 38.5583 37.6184 39.74 37.3745 41.0907C37.1319 42.4418 37.4298 43.8227 38.2154 44.976C38.9974 46.1276 40.1554 46.8954 41.4755 47.1398C42.791 47.3819 44.1408 47.0827 45.2717 46.2874C46.4055 45.4913 47.1633 44.3091 47.4063 42.958C47.6443 41.6351 47.3455 40.2534 46.5635 39.0667C45.7797 37.9197 44.6236 37.1523 43.3062 36.9093Z" fill="url(#paint1_linear_3422_6024)"/>
<path d="M13.6339 24.418C13.6485 24.4281 13.6635 24.4368 13.6786 24.4468C13.9787 24.6583 14.2902 24.8547 14.6086 25.0393C14.7356 25.1124 14.8658 25.1768 14.9946 25.2448C15.2043 25.3572 15.4148 25.4668 15.63 25.5659C15.7994 25.6436 15.9716 25.7135 16.1434 25.7838C16.3279 25.8596 16.5138 25.9318 16.702 25.998C16.8902 26.0643 17.0789 26.125 17.2698 26.1821C17.458 26.2383 17.6489 26.289 17.8403 26.3365C18.0276 26.3836 18.2158 26.4283 18.4054 26.4658C18.6301 26.5096 18.8576 26.5434 19.0855 26.5754C19.2458 26.5978 19.4039 26.6247 19.5647 26.6407C19.9584 26.6791 20.3572 26.7042 20.7601 26.7042C21.1643 26.7042 21.5635 26.6791 21.9587 26.6407C22.1167 26.6247 22.2738 26.5978 22.431 26.5763C22.663 26.5444 22.8951 26.5106 23.123 26.4649C23.3084 26.4283 23.4925 26.3836 23.6761 26.3374C23.8735 26.289 24.0708 26.2365 24.2645 26.1785C24.4499 26.1232 24.6331 26.0634 24.8144 25.9999C25.0118 25.9309 25.2064 25.8551 25.3991 25.7756C25.5631 25.708 25.7275 25.6408 25.8883 25.5668C26.1158 25.4618 26.3373 25.3471 26.5575 25.2293C26.6754 25.1663 26.795 25.1073 26.9111 25.0402C27.2317 24.8538 27.5451 24.6556 27.8493 24.4423C27.8616 24.434 27.8744 24.4263 27.8876 24.4171C31.277 22.0149 33.5088 17.951 33.5088 13.3521C33.5088 5.98975 27.7913 0 20.761 0C13.7321 0 8.01318 5.98975 8.01318 13.3521C8.01318 17.9519 10.2455 22.0158 13.6339 24.418Z" fill="url(#paint2_linear_3422_6024)"/>
<path d="M57.6446 41.4598L54.4134 40.8605C54.1635 40.8143 53.9644 40.6243 53.9054 40.3795C53.8598 40.1858 53.836 39.9967 53.8109 39.7843C53.8008 39.7057 53.7922 39.629 53.7661 39.5057C53.7529 39.4664 53.7323 39.3645 53.6976 39.2005C53.6743 39.0877 53.6501 38.9726 53.609 38.8675C53.5012 38.5916 53.5958 38.2801 53.8378 38.1097L56.5621 36.1958C56.6502 36.1351 56.711 36.0378 56.7279 35.9282L56.7425 35.829L53.1842 30.5007L53.0586 30.5953L53.0175 30.5838L50.1046 32.5466C49.8566 32.717 49.5181 32.6983 49.2984 32.4904C49.1961 32.3959 49.08 32.321 48.9229 32.2191L48.7087 32.0771C48.5534 31.9601 48.3533 31.8441 48.1158 31.7354C47.849 31.613 47.6992 31.3266 47.7508 31.0379L48.3419 27.7541C48.3693 27.6034 48.3263 27.5006 48.2839 27.4398C48.2437 27.3818 48.1683 27.3078 48.0304 27.2827L42.2425 26.2097L42.1849 26.1992L42.1279 26.2143C41.9351 26.2677 41.8227 26.3742 41.7944 26.5322L41.2033 29.8169C41.1586 30.0659 40.9713 30.265 40.7265 30.3258C40.5346 30.3733 40.3482 30.3979 40.1678 30.4203L40.1034 30.4285C40.0376 30.4381 39.9741 30.4454 39.8645 30.4706C39.8266 30.4829 39.727 30.5044 39.5813 30.5363C39.4671 30.5605 39.3511 30.5857 39.2456 30.6291C38.9601 30.7428 38.6449 30.6455 38.4736 30.3952L36.5903 27.6248L36.5186 27.5079H36.3829C36.3172 27.4914 36.2779 27.4809 36.2349 27.4809L35.4342 27.9852L35.2574 27.9861V28.1095L31.2332 30.9383C31.1451 30.9995 31.0843 31.0968 31.0674 31.2051L31.0523 31.3042L33.0188 34.2509C33.1855 34.4952 33.1631 34.8209 32.9653 35.0406C32.8749 35.1425 32.8 35.2576 32.6944 35.428L32.5588 35.6386C32.4428 35.7966 32.3304 35.9967 32.2171 36.2502C32.0956 36.5197 31.8065 36.6713 31.5155 36.6179L28.2842 36.0191L28.2262 36.009L28.1691 36.0236C27.9755 36.0771 27.8635 36.1858 27.8361 36.3438L26.77 42.3085L26.7801 42.6442L30.2603 43.3161C30.5097 43.3618 30.7093 43.5518 30.7682 43.7966C30.8139 43.9903 30.8372 44.1794 30.8628 44.3937C30.8728 44.4722 30.8815 44.549 30.8961 44.6339C30.9208 44.7696 30.9765 45.0857 31.0637 45.3086C31.1702 45.5808 31.0788 45.8914 30.8408 46.0613L28.1769 47.9848C28.0833 48.0493 28.0198 48.1497 28.0029 48.2589L27.9869 48.358L31.5621 53.6699L31.6831 53.595C31.7165 53.6041 31.7466 53.6092 31.7786 53.6092L34.6559 51.6464C34.8984 51.4769 35.2451 51.5016 35.4625 51.7026C35.5644 51.7971 35.6804 51.872 35.8375 51.9739L36.0527 52.1169C36.2107 52.2365 36.4108 52.3507 36.6438 52.4576C36.9105 52.58 37.0603 52.8664 37.0087 53.1551L36.4186 56.438C36.3752 56.6755 36.5035 56.8701 36.7301 56.9112L42.6011 58.0002L42.6582 57.9833C42.7299 57.9636 42.9501 57.902 42.9903 57.6654L43.5804 54.3807C43.6252 54.1308 43.8134 53.9317 44.0587 53.8718C44.25 53.8252 44.4364 53.801 44.6141 53.7773C44.7023 53.7672 44.79 53.7558 44.8722 53.7407C45.064 53.7065 45.3399 53.6494 45.5423 53.5699C45.82 53.4603 46.1448 53.5585 46.311 53.8047L48.1943 56.5737L48.2916 56.686L48.4159 56.6943C48.4657 56.7084 48.504 56.7185 48.5479 56.7185L53.551 53.2611C53.6387 53.2004 53.6994 53.1031 53.7163 52.9934L53.7314 52.8943L51.7641 49.9495C51.5964 49.7051 51.6193 49.3789 51.8175 49.1597C51.9102 49.0578 51.9829 48.9427 52.0888 48.7737L52.2263 48.5604C52.3442 48.3964 52.4556 48.1982 52.5648 47.952C52.6854 47.682 52.9709 47.5267 53.2673 47.5824L56.5575 48.1918L56.6146 48.1758C56.8083 48.1214 56.9197 48.015 56.9476 47.8569L57.9991 41.9631C57.9831 41.6936 57.8438 41.4972 57.6446 41.4598ZM48.922 43.2316C48.6077 44.9838 47.6247 46.5163 46.1566 47.5482C44.6963 48.5732 42.9386 48.9747 41.1951 48.6536C39.4653 48.3338 37.9543 47.3349 36.9411 45.8407C35.928 44.3525 35.5429 42.5674 35.8581 40.8171C36.1742 39.0658 37.1554 37.5337 38.6234 36.501C39.7608 35.7021 41.0713 35.2859 42.4056 35.2859C42.7984 35.2859 43.1931 35.322 43.5859 35.3951C45.313 35.7153 46.8226 36.7134 47.8435 38.213C48.848 39.7331 49.2299 41.5141 48.922 43.2316Z" fill="url(#paint3_linear_3422_6024)"/>
<defs>
<linearGradient id="paint0_linear_3422_6024" x1="16.7378" y1="25.375" x2="16.7378" y2="52.1834" gradientUnits="userSpaceOnUse">
<stop stop-color="#B29000"/>
<stop offset="1" stop-color="#B06200"/>
</linearGradient>
<linearGradient id="paint1_linear_3422_6024" x1="42.3891" y1="36.8262" x2="42.3891" y2="47.2215" gradientUnits="userSpaceOnUse">
<stop stop-color="#B29000"/>
<stop offset="1" stop-color="#B06200"/>
</linearGradient>
<linearGradient id="paint2_linear_3422_6024" x1="20.761" y1="0" x2="20.761" y2="26.7042" gradientUnits="userSpaceOnUse">
<stop stop-color="#B29000"/>
<stop offset="1" stop-color="#B06200"/>
</linearGradient>
<linearGradient id="paint3_linear_3422_6024" x1="42.3846" y1="26.1992" x2="42.3846" y2="58.0002" gradientUnits="userSpaceOnUse">
<stop stop-color="#B29000"/>
<stop offset="1" stop-color="#B06200"/>
</linearGradient>
</defs>
</svg>
