<svg width="57" height="57" viewBox="0 0 57 57" fill="none" xmlns="http://www.w3.org/2000/svg">
<path d="M15.4891 36.6968C10.3435 36.6968 6.15723 32.5105 6.15723 27.3649C6.15723 22.2194 10.3435 18.0331 15.4891 18.0331C20.6347 18.0331 24.8209 22.2194 24.8209 27.3649C24.8209 32.5105 20.6348 36.6968 15.4891 36.6968Z" fill="url(#paint0_linear_4244_29096)"/>
<path fill-rule="evenodd" clip-rule="evenodd" d="M29.7682 37.6689C32.0579 38.6049 34.5312 39.0964 37.0859 39.0964C47.7446 39.0964 56.4162 30.4248 56.4162 19.7661C56.4162 9.10742 47.7446 0.435852 37.0859 0.435852C28.295 0.435852 20.8559 6.33412 18.5186 14.3811C19.8139 14.6832 21.0372 15.1747 22.1578 15.8247C24.0165 9.40673 29.9377 4.71453 36.9548 4.71453C45.4617 4.71453 52.358 11.6108 52.358 20.1177C52.358 28.6247 45.4617 35.5209 36.9548 35.5209C33.522 35.5209 30.3514 34.398 27.7905 32.4994C27.4456 33.3217 27.0206 34.1025 26.5254 34.832C27.1145 35.6728 28.3511 36.662 29.7682 37.6689ZM28.4525 30.4796C30.7659 32.3801 33.7271 33.5209 36.9548 33.5209C44.3571 33.5209 50.358 27.5201 50.358 20.1177C50.358 12.7154 44.3571 6.71453 36.9548 6.71453C30.6131 6.71453 25.3001 11.1188 23.9077 17.0354C26.9042 19.482 28.8205 23.2039 28.8205 27.3649C28.8205 28.4372 28.693 29.4801 28.4525 30.4796ZM36.8594 13.6317C37.1588 12.7104 38.4622 12.7104 38.7615 13.6317L39.6993 16.518C39.8332 16.93 40.2172 17.2089 40.6504 17.2089H43.6852C44.6539 17.2089 45.0567 18.4486 44.2729 19.018L41.8178 20.8017C41.4673 21.0564 41.3206 21.5078 41.4545 21.9198L42.3923 24.806C42.6916 25.7273 41.6372 26.4935 40.8535 25.924L38.3983 24.1403C38.0478 23.8856 37.5732 23.8856 37.2227 24.1403L34.7675 25.924C33.9838 26.4935 32.9293 25.7273 33.2287 24.806L34.1665 21.9198C34.3004 21.5078 34.1537 21.0564 33.8032 20.8017L31.348 19.018C30.5643 18.4486 30.9671 17.2089 31.9358 17.2089H34.9706C35.4038 17.2089 35.7878 16.93 35.9216 16.518L36.8594 13.6317Z" fill="url(#paint1_linear_4244_29096)"/>
<path d="M23.7746 37.8009C21.4979 39.6122 18.618 40.6962 15.4891 40.6962C12.3604 40.6962 9.48033 39.6122 7.20362 37.8009C2.96829 40.532 0.158203 45.2912 0.158203 50.6946V54.694C0.158203 55.7984 1.05353 56.6937 2.15789 56.6937H28.8203C29.9247 56.6937 30.82 55.7984 30.82 54.694V50.6946C30.82 45.2912 28.0099 40.5321 23.7746 37.8009Z" fill="url(#paint2_linear_4244_29096)"/>
<defs>
<linearGradient id="paint0_linear_4244_29096" x1="15.4891" y1="18.0331" x2="20.3826" y2="42.6145" gradientUnits="userSpaceOnUse">
<stop stop-color="#B39100"/>
<stop offset="1" stop-color="#B04C00"/>
</linearGradient>
<linearGradient id="paint1_linear_4244_29096" x1="37.4674" y1="0.435852" x2="47.792" y2="51.2756" gradientUnits="userSpaceOnUse">
<stop stop-color="#B39100"/>
<stop offset="1" stop-color="#B04C00"/>
</linearGradient>
<linearGradient id="paint2_linear_4244_29096" x1="15.4891" y1="37.8009" x2="18.6153" y2="63.2866" gradientUnits="userSpaceOnUse">
<stop stop-color="#B39100"/>
<stop offset="1" stop-color="#B04C00"/>
</linearGradient>
</defs>
</svg>
