<svg width="41" height="40" viewBox="0 0 41 40" fill="none" xmlns="http://www.w3.org/2000/svg">
<g clip-path="url(#clip0_1305_5131)">
<path d="M20.0936 19.4192C22.7366 19.4192 25.0252 18.4865 26.8952 16.6464C28.7651 14.8067 29.7131 12.5555 29.7131 9.9549C29.7131 7.35514 28.7651 5.10374 26.8949 3.26334C25.0246 1.42385 22.7363 0.491211 20.0936 0.491211C17.4503 0.491211 15.1623 1.42385 13.2923 3.26364C11.4224 5.10344 10.4741 7.35484 10.4741 9.9549C10.4741 12.5555 11.4224 14.807 13.2926 16.6467C15.1629 18.4862 17.4512 19.4192 20.0936 19.4192Z" fill="url(#paint0_linear_1305_5131)"/>
<path d="M36.925 30.7062C36.8711 29.9405 36.762 29.1053 36.6014 28.2234C36.4393 27.3348 36.2306 26.4948 35.9808 25.727C35.7227 24.9335 35.3717 24.1499 34.9378 23.3989C34.4874 22.6194 33.9585 21.9407 33.3649 21.3822C32.7442 20.7979 31.9843 20.3282 31.1055 19.9855C30.2298 19.6447 29.2593 19.472 28.2212 19.472C27.8135 19.472 27.4192 19.6366 26.6578 20.1243C26.1891 20.425 25.641 20.7728 25.0291 21.1574C24.506 21.4854 23.7972 21.7926 22.9218 22.0708C22.0677 22.3427 21.2005 22.4806 20.3446 22.4806C19.4887 22.4806 18.6218 22.3427 17.7668 22.0708C16.8923 21.7929 16.1836 21.4857 15.661 21.1577C15.055 20.7767 14.5065 20.4289 14.0309 20.124C13.2703 19.6363 12.8758 19.4717 12.4681 19.4717C11.4296 19.4717 10.4595 19.6447 9.58405 19.9858C8.70589 20.3279 7.94566 20.7976 7.32437 21.3825C6.73111 21.9413 6.20184 22.6197 5.7521 23.3989C5.31851 24.1499 4.96749 24.9332 4.7091 25.7273C4.45955 26.4951 4.25083 27.3348 4.08873 28.2234C3.92815 29.1041 3.81907 29.9397 3.76513 30.7071C3.71212 31.459 3.6853 32.2393 3.6853 33.0275C3.6853 35.0786 4.34803 36.7391 5.6549 37.9638C6.94562 39.1722 8.65348 39.7853 10.7303 39.7853H29.9608C32.0376 39.7853 33.7449 39.1725 35.0359 37.9638C36.3431 36.74 37.0058 35.0792 37.0058 33.0272C37.0055 32.2354 36.9784 31.4545 36.925 30.7062Z" fill="url(#paint1_linear_1305_5131)"/>
</g>
<defs>
<linearGradient id="paint0_linear_1305_5131" x1="20.0936" y1="0.491211" x2="20.0936" y2="19.4192" gradientUnits="userSpaceOnUse">
<stop stop-color="#B28C00"/>
<stop offset="1" stop-color="#B05200"/>
</linearGradient>
<linearGradient id="paint1_linear_1305_5131" x1="20.3455" y1="19.4717" x2="20.3455" y2="39.7853" gradientUnits="userSpaceOnUse">
<stop stop-color="#B28C00"/>
<stop offset="1" stop-color="#B05200"/>
</linearGradient>
<clipPath id="clip0_1305_5131">
<rect width="39.938" height="39.2939" fill="white" transform="translate(0.40918 0.491211)"/>
</clipPath>
</defs>
</svg>
