<svg width="64" height="65" viewBox="0 0 64 65" fill="none" xmlns="http://www.w3.org/2000/svg">
<g clip-path="url(#clip0_3907_12848)">
<path d="M49.8764 41.9078C47.3654 45.3564 43.2981 47.6025 38.7154 47.6025H32.2852C30.0639 47.6025 28.1723 46.1923 27.4561 44.2185C26.5719 43.9547 25.7049 43.6124 24.8588 43.192C23.067 42.3017 21.4401 41.0957 20.0079 39.6016C10.7182 41.6424 3.76538 49.9201 3.76538 59.8229V61.1173C3.76538 62.8966 5.20788 64.3391 6.98722 64.3391H56.9745C58.7539 64.3391 60.1964 62.8966 60.1964 61.1173V59.8229C60.1962 52.1729 56.0468 45.4925 49.8764 41.9078Z" fill="url(#paint0_linear_3907_12848)"/>
<path d="M16.5836 32.9605C17.9684 32.9605 19.1736 32.1931 19.798 31.0605C19.8144 31.1053 19.8311 31.1499 19.848 31.1944C19.8529 31.2078 19.8579 31.2212 19.8629 31.2346C21.3277 35.0904 24.178 38.3227 27.9364 39.735C28.8453 38.2907 30.4527 37.3301 32.2854 37.3301H38.7155C39.3569 37.3301 39.9539 37.1492 40.4772 36.8566C41.3561 36.3651 42.1465 35.1184 42.5546 34.4575C43.2077 33.4 43.7138 32.2798 44.1625 31.0586C44.4146 31.5165 44.7614 31.9149 45.1769 32.227V33.8037C45.1769 37.3665 42.2783 40.2652 38.7154 40.2652H32.2852C31.0696 40.2652 30.0841 41.2507 30.0841 42.4663C30.0841 43.6821 31.0696 44.6675 32.2852 44.6675H38.7154C44.7057 44.6675 49.5791 39.794 49.5791 33.8037V32.227C50.4702 31.5576 51.0466 30.4922 51.0466 29.2921V22.6549V20.1097C51.0466 18.8849 50.4459 17.8012 49.5235 17.1348C48.8082 8.08268 41.2136 0.935547 31.9808 0.935547C22.7479 0.935547 15.1534 8.08268 14.4381 17.1347C13.5157 17.801 12.915 18.8849 12.915 20.1096V29.2918C12.915 31.3237 14.5657 32.9605 16.5836 32.9605ZM31.9808 5.33795C38.8157 5.33795 44.4531 10.5612 45.112 17.2257C44.6795 17.566 44.3251 18.0009 44.081 18.4999C42.004 13.0811 37.3675 9.30835 31.9807 9.30835C26.4777 9.30835 21.9156 13.2108 19.8885 18.4783C19.8858 18.4854 19.8831 18.4928 19.8804 18.5001C19.6362 18.001 19.2819 17.5661 18.8493 17.2258C19.5086 10.5612 25.146 5.33795 31.9808 5.33795Z" fill="url(#paint1_linear_3907_12848)"/>
</g>
<defs>
<linearGradient id="paint0_linear_3907_12848" x1="31.9809" y1="39.6016" x2="31.9809" y2="64.3391" gradientUnits="userSpaceOnUse">
<stop stop-color="#B29000"/>
<stop offset="1" stop-color="#B06200"/>
</linearGradient>
<linearGradient id="paint1_linear_3907_12848" x1="31.9808" y1="0.935547" x2="31.9808" y2="44.6675" gradientUnits="userSpaceOnUse">
<stop stop-color="#B29000"/>
<stop offset="1" stop-color="#B06200"/>
</linearGradient>
<clipPath id="clip0_3907_12848">
<rect width="63.4034" height="63.4034" fill="white" transform="translate(0.279297 0.935547)"/>
</clipPath>
</defs>
</svg>
