<svg width="30" height="22" viewBox="0 0 30 22" fill="none" xmlns="http://www.w3.org/2000/svg">
<path opacity="0.2" d="M20.2722 13.1172H19.3945V14.8753H20.2722C21.4368 14.8311 21.4364 13.1611 20.2722 13.1172Z" fill="url(#paint0_linear_1298_3957)"/>
<path opacity="0.2" d="M17.9346 6.23091L17.0332 6.69112C16.7453 6.8381 16.3999 6.81519 16.134 6.63158L15 5.84863L13.866 6.63158C13.6 6.81524 13.2548 6.83804 12.9668 6.69112L12.0654 6.23091V7.84251H17.9346V6.23091Z" fill="url(#paint1_linear_1298_3957)"/>
<path opacity="0.2" d="M25.6047 0.399414H4.39529C1.97173 0.399414 0 2.37114 0 4.7947V17.336C0 19.7595 1.97173 21.7313 4.39529 21.7313H25.6047C28.0283 21.7313 30 19.7595 30 17.336V4.7947C30 2.37114 28.0283 0.399414 25.6047 0.399414ZM10.3074 4.7947C10.2963 4.15041 11.0174 3.70901 11.5862 4.01181L13.2989 4.8863L14.5005 4.05664C14.8011 3.84913 15.1988 3.84913 15.4994 4.05664L16.701 4.8863L18.4138 4.01181C18.6865 3.87269 19.0117 3.88529 19.2726 4.04498C19.5335 4.20479 19.6926 4.48873 19.6926 4.7947V8.72116C19.6926 9.20663 19.2991 9.60021 18.8136 9.60021H11.1864C10.7009 9.60021 10.3074 9.20663 10.3074 8.72116V4.7947ZM5.97501 6.75793C5.97501 6.27374 6.36988 5.87887 6.85407 5.87887C8.01853 5.92382 8.01823 7.59221 6.85407 7.63698C6.36994 7.63698 5.97501 7.24211 5.97501 6.75793ZM12.6691 12.5274L10.4411 17.6846C10.1388 18.3848 9.07299 18.3844 8.77065 17.6846C8.76942 17.6817 6.54265 12.5274 6.54265 12.5274C6.35008 12.0817 6.55531 11.5644 7.00093 11.3718C7.44691 11.1794 7.96403 11.3845 8.15654 11.8301L9.60587 15.1849L11.0551 11.8301C11.2475 11.3845 11.765 11.1792 12.2107 11.3718C12.6564 11.5644 12.8617 12.0817 12.6691 12.5274ZM15.8791 17.3358C15.8791 17.8213 15.4855 18.2149 15 18.2149C14.5145 18.2149 14.1209 17.8213 14.1209 17.3358V12.2376C14.1634 11.0742 15.8356 11.0718 15.8791 12.2376C15.8791 12.2375 15.8791 17.3358 15.8791 17.3358ZM20.2719 16.6327H19.3943V17.3358C19.3943 17.8213 19.0007 18.2149 18.5152 18.2149C18.0298 18.2149 17.6362 17.8213 17.6362 17.3358C17.6362 17.3358 17.6346 12.2553 17.6346 12.2374C17.6346 11.7519 18.0282 11.3583 18.5137 11.3583H20.2719C23.7654 11.4909 23.765 16.5004 20.2719 16.6327ZM23.1459 7.63698C22.6618 7.63698 22.2669 7.24211 22.2669 6.75793C22.3118 5.59347 23.9802 5.59382 24.025 6.75793C24.025 7.24211 23.6301 7.63698 23.1459 7.63698Z" fill="url(#paint2_linear_1298_3957)"/>
<defs>
<linearGradient id="paint0_linear_1298_3957" x1="20.27" y1="13.1172" x2="21.0475" y2="14.8891" gradientUnits="userSpaceOnUse">
<stop stop-color="#B28D00"/>
<stop offset="1" stop-color="#B05100"/>
</linearGradient>
<linearGradient id="paint1_linear_1298_3957" x1="15" y1="5.84863" x2="15.3481" y2="8.1933" gradientUnits="userSpaceOnUse">
<stop stop-color="#B28D00"/>
<stop offset="1" stop-color="#B05100"/>
</linearGradient>
<linearGradient id="paint2_linear_1298_3957" x1="15" y1="0.399414" x2="22.2648" y2="23.7797" gradientUnits="userSpaceOnUse">
<stop stop-color="#B28D00"/>
<stop offset="1" stop-color="#B05100"/>
</linearGradient>
</defs>
</svg>
