<svg width="24" height="25" viewBox="0 0 24 25" fill="none" xmlns="http://www.w3.org/2000/svg">
<path d="M11.2969 6.11191C11.2969 5.26835 10.7567 4.55566 10.1172 4.55566C9.47773 4.55566 8.9375 5.26835 8.9375 6.11191C8.9375 6.61198 9.12739 7.06601 9.4152 7.35288C9.91311 6.84326 10.5595 6.47951 11.2842 6.33335C11.2925 6.26084 11.2969 6.18691 11.2969 6.11191Z" fill="url(#paint0_linear_1092_20402)"/>
<path d="M20.479 13.4929C20.8538 13.8984 21.1532 14.3745 21.3539 14.8992H21.7906C22.9844 14.8992 23.9734 13.9469 23.9988 12.7373C23.3875 13.2104 22.6216 13.4929 21.7906 13.4929H20.479Z" fill="url(#paint1_linear_1092_20402)"/>
<path d="M8.38434 13.4929H2.20936C1.3778 13.4929 0.611484 13.21 0 12.7363V12.8897C0 14.1019 0.980016 15.0991 2.20941 15.0991H8.38434V13.4929Z" fill="url(#paint2_linear_1092_20402)"/>
<path d="M21.7906 0.136719H2.20936C1.0147 0.136719 0 1.10047 0 2.34613V9.87735C0 11.1231 1.01466 12.0868 2.20936 12.0868H8.38434V9.87735C8.38434 9.40578 8.47603 8.95545 8.64098 8.54202C7.97086 8.00614 7.53122 7.11688 7.53122 6.11173C7.53122 4.47819 8.69128 3.14923 10.1172 3.14923C11.5431 3.14923 12.7031 4.47819 12.7031 6.11173C12.7031 6.18505 12.7 6.25752 12.6954 6.32952C13.3867 6.46475 14.0076 6.79775 14.4976 7.26678V4.55548H13.8828C13.4945 4.55548 13.1797 4.24067 13.1797 3.85236C13.1797 3.46405 13.4945 3.14923 13.8828 3.14923H16.5187C16.9071 3.14923 17.2219 3.46405 17.2219 3.85236C17.2219 4.24067 16.9071 4.55548 16.5187 4.55548H15.9039V8.37111C15.9039 8.64908 15.7422 8.88866 15.5081 9.0028C15.578 9.28302 15.6157 9.5758 15.6157 9.87735V12.0868H21.7906C22.9854 12.0868 24 11.1229 24 9.87735V2.34613C24 1.10037 22.9854 0.136719 21.7906 0.136719V0.136719ZM7.01859 4.07469L5.51236 8.59344C5.41664 8.88055 5.14795 9.07423 4.84533 9.07423C4.5427 9.07423 4.27402 8.88055 4.1783 8.59344L2.67206 4.07469C2.54925 3.7063 2.74837 3.30809 3.11677 3.18528C3.4852 3.06256 3.88336 3.26164 4.00617 3.62998L4.84538 6.14759L5.68458 3.62998C5.80739 3.26164 6.20555 3.06252 6.57398 3.18528C6.94233 3.30809 7.14141 3.70625 7.01859 4.07469ZM20.2844 5.40861C20.6727 5.40861 20.9875 5.72342 20.9875 6.11173C20.9875 6.50005 20.6727 6.81486 20.2844 6.81486H19.4813V7.66799H20.661C21.0493 7.66799 21.3641 7.9828 21.3641 8.37111C21.3641 8.75942 21.0493 9.07423 20.661 9.07423H18.7781C18.3898 9.07423 18.075 8.75942 18.075 8.37111V3.85236C18.075 3.46405 18.3898 3.14923 18.7781 3.14923H20.661C21.0493 3.14923 21.3641 3.46405 21.3641 3.85236C21.3641 4.24067 21.0493 4.55548 20.661 4.55548H19.4813V5.40861H20.2844Z" fill="url(#paint3_linear_1092_20402)"/>
<path d="M17.2719 13.493H14.2095V9.87733C14.2095 8.65909 13.2183 7.66797 12.0001 7.66797C10.7689 7.66797 9.79065 8.66692 9.79065 9.87733V17.233C9.37548 16.8913 8.85901 16.7055 8.31235 16.7055C7.38109 16.7055 6.54877 17.2615 6.19187 18.1225C5.83543 18.9835 6.0309 19.9653 6.68968 20.6236L9.33493 23.2689C9.89434 23.8285 10.6382 24.1367 11.4295 24.1367H17.2719C18.9055 24.1367 20.2344 22.8077 20.2344 21.1742V16.4555C20.2344 14.8219 18.9054 13.493 17.2719 13.493Z" fill="url(#paint4_linear_1092_20402)"/>
<defs>
<linearGradient id="paint0_linear_1092_20402" x1="10.1172" y1="4.55566" x2="10.9735" y2="8.1837" gradientUnits="userSpaceOnUse">
<stop stop-color="#B39100"/>
<stop offset="1" stop-color="#B04C00"/>
</linearGradient>
<linearGradient id="paint1_linear_1092_20402" x1="22.2389" y1="12.7373" x2="22.5955" y2="15.6539" gradientUnits="userSpaceOnUse">
<stop stop-color="#B39100"/>
<stop offset="1" stop-color="#B04C00"/>
</linearGradient>
<linearGradient id="paint2_linear_1092_20402" x1="4.19217" y1="12.7363" x2="4.3731" y2="15.9614" gradientUnits="userSpaceOnUse">
<stop stop-color="#B39100"/>
<stop offset="1" stop-color="#B04C00"/>
</linearGradient>
<linearGradient id="paint3_linear_1092_20402" x1="12" y1="0.136719" x2="13.6061" y2="16.3403" gradientUnits="userSpaceOnUse">
<stop stop-color="#B39100"/>
<stop offset="1" stop-color="#B04C00"/>
</linearGradient>
<linearGradient id="paint4_linear_1092_20402" x1="13.1253" y1="7.66797" x2="18.0624" y2="29.0796" gradientUnits="userSpaceOnUse">
<stop stop-color="#B39100"/>
<stop offset="1" stop-color="#B04C00"/>
</linearGradient>
</defs>
</svg>
