<svg width="29" height="28" viewBox="0 0 29 28" fill="none" xmlns="http://www.w3.org/2000/svg">
<path d="M21.8372 17.2902H28.5126V11.9238H21.8372V17.2902ZM24.8654 13.5771C25.3519 13.5771 25.7463 14.0385 25.7463 14.6061C25.7463 15.1755 25.3519 15.6358 24.8654 15.6358C24.3789 15.6358 23.9845 15.1755 23.9845 14.6061C23.9851 14.0385 24.3789 13.5771 24.8654 13.5771Z" fill="url(#paint0_linear_1406_4582)"/>
<path d="M21.3418 10.934H28.5126V6.95782C28.5126 5.99235 27.8324 5.20655 26.9958 5.20655H25.5076L24.9015 1.81953C24.7784 1.12825 24.4115 0.553631 23.8964 0.23978C23.4933 -0.00523332 23.0295 -0.0659033 22.5926 0.0700208L6.28342 5.1243C5.85698 5.25556 5.47954 5.56999 5.22169 6.0081L5.23453 6.01627C5.08344 6.2887 4.99243 6.61071 4.99243 6.95782V15.1722C5.65338 14.9808 6.35167 14.8741 7.07505 14.8741C11.1184 14.8741 14.4074 18.0803 14.4074 22.0215C14.4074 22.6585 14.3204 23.2833 14.1519 23.89H26.9952C27.8318 23.89 28.512 23.1036 28.512 22.1387V18.2815H21.3418C21.0682 18.2815 20.8466 18.0598 20.8466 17.7862V11.4293C20.8471 11.1551 21.0688 10.934 21.3418 10.934ZM9.36417 5.20655L22.8866 1.01566C23.0528 0.96432 23.2203 0.987655 23.3836 1.08624C23.6514 1.24959 23.8556 1.58852 23.9279 1.99454L24.5031 5.20655H9.36417Z" fill="url(#paint1_linear_1406_4582)"/>
<path d="M7.07634 16.042C3.67765 16.042 0.913086 18.7243 0.913086 22.0209C0.913086 25.3175 3.67707 27.9998 7.07634 27.9998C9.62798 27.9998 11.9463 26.4452 12.8458 24.1304C13.1078 23.4577 13.2402 22.7478 13.2402 22.0209C13.2402 18.7243 10.475 16.042 7.07634 16.042ZM9.45122 22.6054H7.66029V24.3964C7.66029 24.7196 7.39836 24.9803 7.07634 24.9803C6.75374 24.9803 6.49239 24.7196 6.49239 24.3964V22.6054H4.70146C4.37886 22.6054 4.11751 22.3441 4.11751 22.0209C4.11751 21.6983 4.37944 21.437 4.70146 21.437H6.49239V19.646C6.49239 19.3228 6.75374 19.0621 7.07634 19.0621C7.39894 19.0621 7.66029 19.3228 7.66029 19.646V21.437H9.45122C9.77383 21.437 10.0352 21.6983 10.0352 22.0209C10.0358 22.3441 9.77383 22.6054 9.45122 22.6054Z" fill="url(#paint2_linear_1406_4582)"/>
<defs>
<linearGradient id="paint0_linear_1406_4582" x1="25.1749" y1="11.9238" x2="25.1749" y2="17.2902" gradientUnits="userSpaceOnUse">
<stop stop-color="#B29100"/>
<stop offset="1" stop-color="#B04C00"/>
</linearGradient>
<linearGradient id="paint1_linear_1406_4582" x1="16.7525" y1="-0.000976562" x2="16.7525" y2="23.89" gradientUnits="userSpaceOnUse">
<stop stop-color="#B29100"/>
<stop offset="1" stop-color="#B04C00"/>
</linearGradient>
<linearGradient id="paint2_linear_1406_4582" x1="7.07663" y1="16.042" x2="7.07663" y2="27.9998" gradientUnits="userSpaceOnUse">
<stop stop-color="#B29100"/>
<stop offset="1" stop-color="#B04C00"/>
</linearGradient>
</defs>
</svg>
